<svg width="238" height="40" xmlns="http://www.w3.org/2000/svg" xmlns:xlink="http://www.w3.org/1999/xlink" xml:space="preserve" overflow="hidden"><defs><clipPath id="clip0"><rect x="47" y="49" width="236" height="38"/></clipPath><clipPath id="clip1"><rect x="47" y="49" width="236" height="38"/></clipPath><clipPath id="clip2"><rect x="47" y="49" width="236" height="38"/></clipPath></defs><g transform="translate(-46 -48)"><g><g clip-path="url(#clip0)"><g clip-path="url(#clip1)"><g clip-path="url(#clip2)"><path d="M143.208 27.5323C141.867 34.1546 136.734 34.5188 135.724 34.5188 133.425 34.772 131.356 33.1131 131.103 30.8136 131.075 30.5597 131.07 30.3036 131.089 30.0488 131.108 29.2488 131.191 28.4516 131.337 27.6647L134.516 11.8208 130.791 11.8208 127.48 27.9958 127.48 28.2276C127.318 28.9956 127.229 29.7772 127.215 30.562 126.954 34.3202 129.79 37.5778 133.548 37.8383 133.815 37.8568 134.083 37.8594 134.35 37.8465 137.176 37.9702 139.913 36.8439 141.833 34.7672L141.337 37.4492 145.029 37.4492 150.144 11.8208 146.353 11.8208Z" fill="#000000" fill-rule="nonzero" fill-opacity="1" transform="matrix(1.01306 0 0 1 47 49.0767)"/><path d="M168.869 11.4566C166.119 11.3936 163.499 12.6183 161.783 14.7678L162.247 11.8208 158.604 11.8208 153.489 37.4823 157.28 37.4823 160.426 21.7046C160.93 17.9251 164.008 15.0128 167.809 14.7181 169.225 14.7105 170.554 15.397 171.369 16.5558L174.415 13.8241C173.023 12.2326 170.982 11.3613 168.869 11.4566" fill="#000000" fill-rule="nonzero" fill-opacity="1" transform="matrix(1.01306 0 0 1 47 49.0767)"/><path d="M107.381 11.7712 106.735 15.0327 106.735 15.0989 119.533 15.0989 102.48 34.3864 101.835 37.5485 120.013 37.5485 120.659 34.2043 107.066 34.2043 124.168 14.9333 124.185 14.9168 124.814 11.7712 107.381 11.7712Z" fill="#000000" fill-rule="nonzero" fill-opacity="1" transform="matrix(1.01306 0 0 1 47 49.0767)"/><path d="M180.094 11.7712 174.928 37.4823 174.912 37.5485 178.67 37.5485 183.786 11.7712 180.094 11.7712Z" fill="#000000" fill-rule="nonzero" fill-opacity="1" transform="matrix(1.01306 0 0 1 47 49.0767)"/><path d="M225.821 11.4566C223.091 11.3399 220.44 12.3939 218.536 14.3539L221.384 0 217.626 0 210.076 37.5485 213.835 37.5485 216.964 21.7709C218.305 15.1485 223.503 14.7843 224.513 14.7843 226.794 14.5382 228.844 16.1884 229.091 18.4701 229.119 18.7362 229.122 19.0044 229.099 19.2709 229.079 20.0717 228.99 20.8692 228.834 21.655L225.655 37.5485 229.414 37.5485 232.725 21.3073C232.9 20.4633 232.99 19.6034 232.99 18.7412 233.25 14.983 230.415 11.7254 226.657 11.4649 226.389 11.4464 226.122 11.4436 225.854 11.4566" fill="#000000" fill-rule="nonzero" fill-opacity="1" transform="matrix(1.01306 0 0 1 47 49.0767)"/><path d="M200.938 11.4566C194.117 11.4566 189.349 16.2578 187.825 24.7012 187.577 26.0111 187.45 27.3412 187.445 28.6746 187.445 34.3864 190.921 37.9293 196.501 37.9293 199.727 37.9439 202.823 36.6474 205.077 34.3367L205.077 34.3367 202.924 31.7043C201.421 33.5654 199.158 34.6483 196.766 34.6513 194.1 34.6513 191.252 32.9957 191.252 28.6084 191.262 27.3175 191.4 26.0308 191.666 24.7675 192.07 22.0536 193.216 19.5042 194.978 17.4001 196.431 15.8218 198.477 14.9216 200.623 14.9168 202.688 14.8333 204.618 15.94 205.59 17.7644L208.338 15.43C206.721 12.919 203.888 11.4612 200.905 11.6056" fill="#000000" fill-rule="nonzero" fill-opacity="1" transform="matrix(1.01306 0 0 1 47 49.0767)"/><path d="M182.428 0 181.485 4.68529 185.243 4.68529 186.186 0 182.428 0Z" fill="#000000" fill-rule="nonzero" fill-opacity="1" transform="matrix(1.01306 0 0 1 47 49.0767)"/><path d="M145.939 0 144.979 4.68529 148.754 4.68529 149.681 0 145.939 0Z" fill="#000000" fill-rule="nonzero" fill-opacity="1" transform="matrix(1.01306 0 0 1 47 49.0767)"/><path d="M135.923 0 134.979 4.68529 138.738 4.68529 139.665 0 135.923 0Z" fill="#000000" fill-rule="nonzero" fill-opacity="1" transform="matrix(1.01306 0 0 1 47 49.0767)"/><path d="M87.7788 0 84.8153 14.5525 76.3719 14.5525 79.3353 0 7.53288 0 0 37.5485 28.625 37.5485 30.4958 28.1614 13.5923 28.1614 14.6188 22.996 31.5222 22.996 33.2275 14.5525 16.324 14.5525 17.3505 9.38713 44.1377 9.38713 38.4757 37.5485 50.2137 37.5485 55.8592 9.38713 65.7265 9.38713 60.0644 37.5485 71.8025 37.5485 74.6997 22.996 83.1432 22.996 80.2459 37.5485 91.984 37.5485 99.5169 0 87.7788 0Z" fill="#000000" fill-rule="nonzero" fill-opacity="1" transform="matrix(1.01306 0 0 1 47 49.0767)"/></g></g></g></g></g></svg>