<svg width="600" height="208" xmlns="http://www.w3.org/2000/svg" xmlns:xlink="http://www.w3.org/1999/xlink" xml:space="preserve" overflow="hidden"><g transform="translate(-1284 -73)"><g><g><g><g><path d="M0 207.236 598.82 207.236 598.82 391.478 0 391.478Z" fill="#002147" fill-rule="nonzero" fill-opacity="1" transform="matrix(1.0003 0 0 1 1285 -117.568)"/><path d="M234.604 322.567C234.604 306.977 227.06 296.158 214.429 296.158 200.651 296.158 194.254 309.117 194.254 322.567 194.254 338.158 201.798 348.976 214.429 348.976 228.206 348.812 234.604 335.854 234.604 322.567M243.961 322.24C243.961 339.304 230.838 351.771 214.265 351.771 197.529 351.771 184.57 339.304 184.57 322.895 184.57 305.831 197.692 293.363 214.265 293.363 231.165 293.363 243.961 305.831 243.961 322.24" fill="#FFFFFF" fill-rule="nonzero" fill-opacity="1" transform="matrix(1.0003 0 0 1 1285 -117.568)"/><path d="M415.56 322.567C415.56 306.977 408.016 296.158 395.385 296.158 381.607 296.158 375.21 309.117 375.21 322.567 375.21 338.158 382.753 348.976 395.385 348.976 409.162 348.812 415.56 335.854 415.56 322.567M425.08 322.24C425.08 339.304 411.958 351.771 395.385 351.771 378.648 351.771 365.689 339.304 365.689 322.895 365.689 305.831 378.812 293.363 395.385 293.363 412.121 293.363 425.08 305.831 425.08 322.24" fill="#FFFFFF" fill-rule="nonzero" fill-opacity="1" transform="matrix(1.0003 0 0 1 1285 -117.568)"/><path d="M461.009 331.912C457.723 327.152 456.413 325.515 452.319 325.515L447.887 325.515 447.887 344.707C447.887 346.345 448.542 347 450.179 347.327L456.577 348.801 456.577 350.766 431.314 350.766 431.314 348.637 437.057 347.163C438.694 346.672 439.349 346.017 439.349 344.544L439.349 300.252C439.349 298.615 438.694 298.123 437.057 297.632L431.314 296.158 431.314 294.194 455.922 294.194C461.173 294.194 464.775 294.685 467.734 295.831 473.804 298.123 477.255 304.03 477.255 309.445 477.255 316.334 472.003 322.24 463.477 324.205L463.477 324.532C465.278 325.351 466.097 326.497 472.331 334.38L480.038 344.555C481.184 346.193 482.494 347.011 484.307 347.339L489.886 348.649 489.886 350.614 476.436 350.614C474.799 350.614 474.144 350.122 472.658 348.321L461.009 331.912ZM447.887 322.895 454.939 322.895C465.606 322.895 467.898 316.17 467.898 309.772 467.898 304.848 465.769 300.416 460.682 298.123 458.062 296.977 455.43 296.977 451.992 296.977L447.723 296.977 447.723 322.895 447.887 322.895Z" fill="#FFFFFF" fill-rule="nonzero" fill-opacity="1" transform="matrix(1.0003 0 0 1 1285 -117.568)"/><path d="M350.263 313.538 352.555 313.538 352.555 332.403 350.263 332.403 348.789 326.825C348.298 324.86 346.988 324.041 345.175 324.041L331.561 324.041 331.561 344.707C331.561 346.345 332.216 347 333.854 347.327L340.251 348.801 340.251 350.766 314.989 350.766 314.989 348.637 320.731 347.163C322.532 346.672 323.023 346.017 323.023 344.544L323.023 300.252C323.023 298.615 322.368 298.123 320.731 297.632L314.989 296.158 314.989 294.194 357.643 294.194 357.643 308.299 355.35 308.299 352.731 299.772C352.076 297.644 351.093 296.825 349.28 296.825L331.561 296.825 331.561 321.105 345.175 321.105C346.976 321.105 348.122 320.287 348.789 318.322L350.263 313.538Z" fill="#FFFFFF" fill-rule="nonzero" fill-opacity="1" transform="matrix(1.0003 0 0 1 1285 -117.568)"/><path d="M511.044 296.977 511.044 345.538C511.044 347.503 511.535 347.994 513.5 347.994L520.388 347.994C526.95 347.994 531.874 347.011 535.312 344.544 541.055 340.275 543.838 332.567 543.838 322.883 543.838 313.363 541.218 303.854 533.336 299.422 530.049 297.457 525.792 296.965 519.23 296.965L511.044 296.977ZM494.482 350.789 494.482 348.66 500.225 347.187C502.026 346.696 502.517 346.041 502.517 344.567L502.517 300.275C502.517 298.638 501.862 298.147 500.225 297.655L494.482 296.182 494.482 294.217 521.055 294.217C528.271 294.217 533.523 295.199 537.628 297.001 548.294 301.924 553.218 312.427 553.218 322.754 553.218 332.766 549.44 342.275 539.932 347.198 535.499 349.491 529.429 350.649 521.394 350.649L494.494 350.649 494.494 350.789Z" fill="#FFFFFF" fill-rule="nonzero" fill-opacity="1" transform="matrix(1.0003 0 0 1 1285 -117.568)"/><path d="M266.101 348.649 266.101 350.614 246.253 350.614 246.253 348.649 251.341 347.339C253.305 346.848 254.463 346.193 255.773 344.883L273.001 323.222 255.773 300.252C254.627 298.615 253.317 297.96 251.504 297.468L246.744 296.158 246.744 294.194 271.516 294.194 271.516 296.158 266.264 297.305C264.463 297.632 264.791 298.451 265.773 299.597L278.404 317.807 278.732 317.807 291.691 299.597C292.673 298.287 293.001 297.796 291.199 297.468L286.112 296.158 286.112 294.194 305.959 294.194 305.959 296.158 300.872 297.468C299.071 297.96 297.749 298.615 296.439 299.924L280.194 320.427 298.404 344.38C299.55 346.017 300.86 346.672 302.673 347.163L307.433 348.473 307.433 350.438 282.662 350.438 282.662 348.637 288.077 347.491C289.878 347.163 289.714 346.508 288.732 345.362L274.966 325.842 274.638 325.842 260.697 345.198C259.715 346.508 259.387 346.836 261.188 347.327L266.101 348.649Z" fill="#FFFFFF" fill-rule="nonzero" fill-opacity="1" transform="matrix(1.0003 0 0 1 1285 -117.568)"/><path d="M206.721 267.609C205.084 269.247 202.78 270.229 199.505 270.229 196.722 270.229 194.09 269.41 192.289 267.609 189.833 265.153 189.997 262.03 189.997 258.756L189.997 243.002 193.283 243.002 193.283 259.902C193.283 262.03 193.283 264.171 194.921 265.808 196.067 266.954 197.868 267.609 199.844 267.609 201.809 267.609 203.458 266.954 204.441 265.972 206.242 264.171 206.078 262.194 206.078 257.282L206.078 243.177 209.201 243.177 209.201 256.463C209.014 261.375 209.341 265.141 206.721 267.609" fill="#FFFFFF" fill-rule="nonzero" fill-opacity="1" transform="matrix(1.0003 0 0 1 1285 -117.568)"/><path d="M235.095 269.738 222.136 247.914 222.3 269.738 219.353 269.738 219.353 243.002 222.628 243.002 235.586 265.141 235.423 243.002 238.382 243.002 238.382 269.738Z" fill="#FFFFFF" fill-rule="nonzero" fill-opacity="1" transform="matrix(1.0003 0 0 1 1285 -117.568)"/><path d="M249.539 243.002 252.826 243.002 252.826 269.738 249.539 269.738Z" fill="#FFFFFF" fill-rule="nonzero" fill-opacity="1" transform="matrix(1.0003 0 0 1 1285 -117.568)"/><path d="M272.837 269.738 269.06 269.738 259.867 243.002 263.317 243.002 271.024 266.627 279.071 243.002 282.182 243.002Z" fill="#FFFFFF" fill-rule="nonzero" fill-opacity="1" transform="matrix(1.0003 0 0 1 1285 -117.568)"/><path d="M289.562 269.738 289.562 243.002 304.006 243.002 304.006 245.621 292.685 245.621 292.685 254.487 303.351 254.487 303.351 257.107 292.685 257.107 292.685 267.118 304.334 267.118 304.334 269.738Z" fill="#FFFFFF" fill-rule="nonzero" fill-opacity="1" transform="matrix(1.0003 0 0 1 1285 -117.568)"/><path d="M327.632 269.738 324.509 262.849C322.544 258.58 321.725 258.089 317.784 258.089L315.983 258.089 315.983 269.738 312.86 269.738 312.86 243.002 318.603 243.002C322.216 243.002 324.836 243.002 326.965 245.13 328.275 246.44 329.094 248.253 329.094 250.545 329.094 252.346 328.602 253.995 327.456 255.142 326.474 256.124 324.836 257.107 323.187 257.27 324.17 257.27 324.825 257.761 325.48 258.416 326.135 259.071 326.789 260.218 327.444 262.03L331.058 270.065 327.608 270.065 327.608 269.738ZM324.673 247.095C323.199 245.621 321.222 245.621 318.93 245.621L315.983 245.621 315.983 255.633 316.965 255.633C319.585 255.633 322.544 255.797 324.345 253.995 325.164 253.177 325.655 251.867 325.655 250.545 325.982 248.908 325.328 247.75 324.673 247.095" fill="#FFFFFF" fill-rule="nonzero" fill-opacity="1" transform="matrix(1.0003 0 0 1 1285 -117.568)"/><path d="M362.239 243.002 365.526 243.002 365.526 269.738 362.239 269.738Z" fill="#FFFFFF" fill-rule="nonzero" fill-opacity="1" transform="matrix(1.0003 0 0 1 1285 -117.568)"/><path d="M383.736 245.621 383.736 269.738 380.625 269.738 380.625 245.621 372.578 245.621 372.578 243.002 391.771 243.002 391.771 245.621Z" fill="#FFFFFF" fill-rule="nonzero" fill-opacity="1" transform="matrix(1.0003 0 0 1 1285 -117.568)"/><path d="M407.197 259.235 407.197 269.738 403.911 269.738 403.911 259.235 395.548 243.002 399.162 243.002 405.724 255.633 412.121 243.002 415.56 243.002Z" fill="#FFFFFF" fill-rule="nonzero" fill-opacity="1" transform="matrix(1.0003 0 0 1 1285 -117.568)"/><path d="M445.583 270.229C438.694 270.229 433.606 264.487 433.606 256.452 433.606 248.253 438.694 242.51 445.91 242.51 452.963 242.51 457.887 248.253 457.887 256.288 457.887 264.487 452.974 270.229 445.583 270.229M445.583 245.294C440.331 245.294 436.893 249.727 436.893 256.452 436.893 263.177 440.67 267.609 445.746 267.609 451.325 267.609 454.436 262.849 454.436 256.288 454.448 249.563 450.834 245.294 445.583 245.294" fill="#FFFFFF" fill-rule="nonzero" fill-opacity="1" transform="matrix(1.0003 0 0 1 1285 -117.568)"/><path d="M469.863 245.621 469.863 254.487 480.202 254.487 480.202 257.107 469.863 257.107 469.863 269.738 466.588 269.738 466.588 243.002 480.857 243.002 480.857 245.621Z" fill="#FFFFFF" fill-rule="nonzero" fill-opacity="1" transform="matrix(1.0003 0 0 1 1285 -117.568)"/><path d="M337.468 249.563C337.468 245.458 340.754 242.51 345.666 242.51 350.579 242.51 352.883 244.966 353.21 245.294L351.573 247.259C350.918 246.768 348.789 245.294 345.83 245.294 342.38 245.294 340.579 247.095 340.579 249.563 340.579 250.709 341.07 251.528 341.889 252.346 342.871 253.165 344.181 253.82 345.666 254.475 347.467 255.294 349.935 256.276 351.573 257.925 352.719 259.071 353.538 260.709 353.538 262.685 353.538 267.118 350.415 270.557 344.848 270.557 340.087 270.557 337.14 267.937 336.813 267.773L338.286 265.644C339.105 266.136 342.064 267.937 344.684 267.937 348.789 267.937 350.263 265.808 350.263 263.013 350.263 261.703 349.772 260.72 348.789 260.066 347.479 258.919 345.666 258.101 343.865 257.282 342.064 256.463 340.251 255.645 339.105 254.335 338.286 253.001 337.468 251.691 337.468 249.563" fill="#FFFFFF" fill-rule="nonzero" fill-opacity="1" transform="matrix(1.0003 0 0 1 1285 -117.568)"/><path d="M91.5422 279.258C91.5422 276.966 90.7235 274.989 89.0861 274.007 87.9399 273.352 86.4663 273.188 84.6535 273.188L71.5309 273.188 71.5309 299.761 85.7996 299.761C89.0861 299.761 91.051 300.579 91.2147 303.538L91.5422 303.538 91.5422 279.258Z" fill="#FFFFFF" fill-rule="nonzero" fill-opacity="1" transform="matrix(1.0003 0 0 1 1285 -117.568)"/><path d="M93.3551 279.258C93.3551 276.966 94.1738 274.989 95.8111 274.007 96.9573 273.352 98.431 273.188 100.244 273.188L113.53 273.188 113.53 299.761 99.0976 299.761C95.8111 299.761 93.8463 300.579 93.6825 303.538L93.3551 303.538C93.3551 303.538 93.3551 279.258 93.3551 279.258Z" fill="#FFFFFF" fill-rule="nonzero" fill-opacity="1" transform="matrix(1.0003 0 0 1 1285 -117.568)"/><path d="M116.314 275.153 116.314 303.375 95.9749 303.375 95.8111 304.03C95.4837 304.848 94.8287 305.667 92.5247 305.667 90.2206 305.667 89.7411 304.848 89.2382 304.03L89.0744 303.375 68.7356 303.375 68.7356 275.153 66.9345 275.153 66.9345 275.972 65.1333 275.48C64.9696 274.826 64.3146 274.334 63.4959 274.334 62.5135 274.334 61.8585 275.153 61.8585 275.972 61.8585 276.954 62.6772 277.609 63.4959 277.609 63.8234 277.609 64.3146 277.445 64.4784 277.282L66.7707 277.937 66.7707 280.229 64.9696 279.901C64.6421 279.246 64.1509 278.919 63.4959 278.919 62.5135 278.919 61.8585 279.738 61.8585 280.556 61.8585 281.539 62.6772 282.194 63.4959 282.194 63.9872 282.194 64.4784 282.03 64.6421 281.703L66.7707 282.03 66.7707 284.322 64.9696 284.322C64.6421 283.831 64.1509 283.504 63.4959 283.504 62.5135 283.504 61.8585 284.322 61.8585 285.141 61.8585 286.124 62.6772 286.779 63.4959 286.779 63.9872 286.779 64.4784 286.451 64.8059 286.124L66.7707 286.124 66.7707 288.58 64.9696 288.58C64.6421 288.088 64.1509 287.925 63.6597 287.925 62.6772 287.925 62.0223 288.743 62.0223 289.562 62.0223 290.545 62.841 291.199 63.6597 291.199 64.3146 291.199 64.8059 290.872 65.1333 290.381L66.9345 290.381 66.9345 292.673 64.9696 293.001C64.6421 292.673 64.1509 292.509 63.8234 292.509 62.841 292.509 62.186 293.328 62.186 294.147 62.186 295.129 63.0047 295.784 63.8234 295.784 64.4784 295.784 65.1333 295.293 65.2971 294.802L66.9345 294.474 66.9345 296.767 64.8059 297.422C64.4784 297.258 64.1509 297.094 63.8234 297.094 62.841 297.094 62.186 297.913 62.186 298.732 62.186 299.714 63.0047 300.369 63.8234 300.369 64.6421 300.369 65.2971 299.878 65.4608 299.223L67.0982 298.732 67.0982 300.86 64.6421 301.843C64.3146 301.679 63.9872 301.515 63.6597 301.515 62.6772 301.515 62.0223 302.334 62.0223 303.152 62.0223 304.135 62.841 304.79 63.6597 304.79 64.4784 304.79 65.1333 304.135 65.2971 303.48L66.9345 302.661 66.9345 304.626 87.9399 304.626C88.7586 306.1 90.2323 306.919 92.5364 306.919 94.8287 306.919 96.3141 306.1 97.1328 304.626L118.302 304.626 118.302 274.603 116.337 274.603 116.337 275.153Z" fill="#FFFFFF" fill-rule="nonzero" fill-opacity="1" transform="matrix(1.0003 0 0 1 1285 -117.568)"/><path d="M78.7471 265.796C74.4782 265.796 71.0397 266.451 71.0397 267.27 71.0397 268.089 74.4899 268.744 78.7471 268.744 83.0161 268.744 86.4546 268.089 86.4546 267.27 86.2909 266.463 82.8523 265.796 78.7471 265.796" fill="#FFFFFF" fill-rule="nonzero" fill-opacity="1" transform="matrix(1.0003 0 0 1 1285 -117.568)"/><path d="M89.2499 256.452 84.8172 259.574 84.8172 259.902 85.7996 260.393C85.9634 260.557 85.9634 260.72 85.9634 260.72L83.1798 263.013 82.8523 263.013 80.8874 260.066C80.7237 259.902 80.7237 259.738 81.0512 259.574L82.3611 259.411 82.3611 259.083 78.9109 254.159 78.4197 254.159 74.9694 259.083 74.9694 259.411 76.2793 259.574C76.4431 259.574 76.6068 259.738 76.4431 260.066L74.4782 263.013 74.1507 263.013 71.5309 260.72C71.3671 260.557 71.3671 260.393 71.6946 260.393L72.6771 259.902 72.6771 259.574 68.0807 256.452 67.7532 256.615 70.5368 264.978C71.8467 264.323 75.1332 263.995 78.7354 263.832 82.5131 263.832 85.6242 264.323 86.9341 264.978L89.7177 256.615 89.2499 256.452Z" fill="#FFFFFF" fill-rule="nonzero" fill-opacity="1" transform="matrix(1.0003 0 0 1 1285 -117.568)"/><path d="M92.5247 321.421C88.2557 321.421 84.8172 322.076 84.8172 322.895 84.8172 323.714 88.2674 324.368 92.5247 324.368 96.7936 324.368 100.232 323.714 100.232 322.895 100.244 322.24 96.7936 321.421 92.5247 321.421" fill="#FFFFFF" fill-rule="nonzero" fill-opacity="1" transform="matrix(1.0003 0 0 1 1285 -117.568)"/><path d="M103.027 312.228 98.5947 315.351 98.5947 315.679 99.5772 316.17C99.7409 316.334 99.7409 316.497 99.7409 316.497L96.9573 318.79 96.6299 318.79 94.665 315.842C94.5012 315.679 94.5012 315.515 94.8287 315.351L96.1386 315.187 96.1386 314.86 92.6884 309.936 92.1972 309.936 88.7469 314.86 88.7469 315.187 90.0569 315.351C90.2206 315.351 90.3843 315.515 90.2206 315.842L88.2557 318.79 87.9283 318.79 85.3084 316.497C85.1447 316.334 85.1447 316.17 85.4722 316.17L86.4546 315.679 86.4546 315.351 81.8699 312.228 81.5424 312.392 84.326 320.754C85.6359 320.1 88.9224 319.772 92.5247 319.608 96.3024 319.608 99.4134 320.1 100.723 320.754L103.507 312.392 103.027 312.228Z" fill="#FFFFFF" fill-rule="nonzero" fill-opacity="1" transform="matrix(1.0003 0 0 1 1285 -117.568)"/><path d="M106.314 265.796C102.045 265.796 98.6064 266.451 98.6064 267.27 98.6064 268.089 102.057 268.744 106.314 268.744 110.583 268.744 114.021 268.089 114.021 267.27 114.021 266.451 110.571 265.796 106.314 265.796" fill="#FFFFFF" fill-rule="nonzero" fill-opacity="1" transform="matrix(1.0003 0 0 1 1285 -117.568)"/><path d="M116.98 256.452 112.548 259.574 112.548 259.902 113.53 260.393C113.694 260.557 113.694 260.72 113.694 260.72L110.91 263.013 110.583 263.013 108.618 260.066C108.454 259.902 108.454 259.738 108.782 259.574L110.092 259.411 110.092 259.083 106.641 254.159 106.15 254.159 102.7 259.083 102.7 259.411 104.01 259.574C104.174 259.574 104.337 259.738 104.174 260.066L102.209 263.013 101.881 263.013 99.2614 260.557C99.0976 260.393 99.0976 260.229 99.4251 260.229L100.408 259.738 100.408 259.411 95.8111 256.288 95.4837 256.452 98.2672 264.814C99.5772 264.159 102.864 263.832 106.466 263.668 110.244 263.668 113.355 264.159 114.665 264.814L117.448 256.452 116.98 256.452Z" fill="#FFFFFF" fill-rule="nonzero" fill-opacity="1" transform="matrix(1.0003 0 0 1 1285 -117.568)"/><path d="M74.6419 280.241C74.6419 280.732 74.8057 280.896 75.1332 280.896 75.6244 280.896 76.1156 280.404 76.1156 279.258 76.1156 277.948 75.4606 277.621 74.9694 277.621L74.6419 277.621 74.6419 277.948C74.6419 277.937 74.6419 280.241 74.6419 280.241ZM74.9811 277.445C75.6361 277.445 76.291 277.609 76.6185 277.937 76.946 278.264 77.1097 278.591 77.1097 279.083 77.1097 280.556 75.9635 281.211 74.6536 281.211L73.18 281.211 73.18 281.048C73.6712 281.048 73.6712 281.048 73.6712 280.393L73.6712 278.428C73.6712 277.773 73.6712 277.773 73.18 277.773L73.18 277.609 74.9811 277.609 74.9811 277.445Z" fill="#002147" fill-rule="nonzero" fill-opacity="1" transform="matrix(1.0003 0 0 1 1285 -117.568)"/><path d="M78.7471 279.094C78.7471 280.077 79.0746 280.896 79.7296 280.896 80.2208 280.896 80.5483 280.404 80.5483 279.422 80.5483 278.276 80.057 277.621 79.5658 277.621 79.0746 277.609 78.7471 278.1 78.7471 279.094M81.5424 279.258C81.5424 280.568 80.7237 281.223 79.5775 281.223 78.4313 281.223 77.6126 280.404 77.6126 279.258 77.6126 278.276 78.2676 277.293 79.5775 277.293 80.712 277.282 81.5424 278.1 81.5424 279.258" fill="#002147" fill-rule="nonzero" fill-opacity="1" transform="matrix(1.0003 0 0 1 1285 -117.568)"/><path d="M86.7821 277.445 86.7821 277.609C86.2909 277.609 86.2909 277.609 86.2909 278.264L86.2909 280.229C86.2909 280.884 86.2909 280.884 86.7821 280.884L86.7821 281.048 84.9809 281.048 84.9809 280.884C85.4722 280.884 85.4722 280.884 85.4722 280.229L85.4722 278.1 84.326 281.048 83.9985 281.048 82.8523 278.264 82.8523 279.574C82.8523 280.065 82.8523 280.393 82.8523 280.556 82.8523 280.72 83.0161 280.884 83.3435 280.884L83.3435 281.048 81.8699 281.048 81.8699 280.884C82.1974 280.884 82.1974 280.884 82.3611 280.556 82.3611 280.393 82.3611 280.065 82.5248 279.574L82.5248 278.428C82.5248 277.609 82.5248 277.609 82.0336 277.609L82.0336 277.445 83.3435 277.445 84.326 279.738 85.1447 277.445 86.7821 277.445Z" fill="#002147" fill-rule="nonzero" fill-opacity="1" transform="matrix(1.0003 0 0 1 1285 -117.568)"/><path d="M88.5949 280.241C88.5949 280.896 88.5949 280.896 89.0861 280.896L89.0861 281.059 87.1212 281.059 87.1212 280.896C87.4487 280.896 87.6125 280.896 87.6125 280.241L87.6125 278.276C87.6125 277.621 87.6125 277.621 87.1212 277.621L87.1212 277.457 89.0861 277.457 89.0861 277.621C88.7586 277.621 88.5949 277.621 88.5949 278.276L88.5949 280.241Z" fill="#002147" fill-rule="nonzero" fill-opacity="1" transform="matrix(1.0003 0 0 1 1285 -117.568)"/><path d="M79.2383 288.276 78.7471 288.276 76.6185 285.492 76.6185 286.638C76.6185 287.293 76.6185 287.621 76.6185 287.784 76.6185 287.948 76.7823 288.112 77.2735 288.112L77.2735 288.276 75.7998 288.276 75.7998 287.948C76.1273 287.948 76.291 287.784 76.291 287.621 76.291 287.457 76.291 287.129 76.291 286.474L76.291 285.328C76.291 284.837 76.291 284.837 76.1273 284.673 75.9635 284.51 75.9635 284.51 75.6361 284.51L75.6361 284.346 76.946 284.346 78.9109 286.802 78.9109 285.983C78.9109 285.328 78.9109 285.001 78.9109 284.837 78.9109 284.673 78.7471 284.51 78.2559 284.51L78.2559 284.346 79.7296 284.346 79.7296 284.51C79.4021 284.51 79.2383 284.673 79.2383 284.837 79.2383 285.001 79.2383 285.328 79.2383 285.983 79.2383 285.983 79.2383 288.276 79.2383 288.276Z" fill="#002147" fill-rule="nonzero" fill-opacity="1" transform="matrix(1.0003 0 0 1 1285 -117.568)"/><path d="M81.5424 288.276C81.2149 287.293 80.56 285.819 80.3962 285.153 80.2325 284.662 80.0687 284.662 79.7413 284.662L79.7413 284.498 81.7061 284.498 81.7061 284.662 81.5424 284.662C81.3787 284.662 81.3787 284.662 81.3787 284.989 81.5424 285.317 81.8699 286.463 82.1974 287.118 82.3611 286.626 82.6886 285.48 82.8523 285.153 83.0161 284.825 83.0161 284.662 82.6886 284.662L82.5248 284.662 82.5248 284.498 83.9985 284.498 83.9985 284.662C83.671 284.662 83.5073 284.662 83.3435 285.317 83.3435 285.317 82.5248 287.118 82.1974 288.264L81.5424 288.264Z" fill="#002147" fill-rule="nonzero" fill-opacity="1" transform="matrix(1.0003 0 0 1 1285 -117.568)"/><path d="M84.1622 286.966C84.326 287.293 84.6535 287.948 85.1447 287.948 85.4722 287.948 85.6359 287.784 85.6359 287.293 85.6359 286.966 85.4722 286.802 84.9809 286.638L84.8172 286.638C84.326 286.474 83.8348 286.147 83.8348 285.492 83.8348 284.837 84.326 284.346 85.3084 284.346L85.7996 284.346 86.1271 284.51C86.1271 284.673 86.1271 285.001 86.2909 285.492L85.9634 285.492C85.7996 285.164 85.6359 284.673 85.1447 284.673 84.8172 284.673 84.6535 284.837 84.6535 285.164 84.6535 285.492 84.8172 285.656 85.3084 285.819L85.4722 285.819C85.9634 286.147 86.4546 286.311 86.4546 287.129 86.4546 287.784 85.7996 288.439 84.9809 288.439 84.8172 288.439 84.4897 288.439 84.326 288.276L83.9985 288.112C83.9985 287.784 83.8348 287.457 83.8348 287.129L84.1622 286.966Z" fill="#002147" fill-rule="nonzero" fill-opacity="1" transform="matrix(1.0003 0 0 1 1285 -117.568)"/><path d="M76.6185 294.346C76.6185 295.001 76.6185 295.001 77.1097 295.001L77.1097 295.164 75.1449 295.164 75.1449 295.001C75.4723 295.001 75.6361 295.001 75.6361 294.346L75.6361 292.381C75.6361 291.726 75.6361 291.726 75.1449 291.726L75.1449 291.562 77.1097 291.562 77.1097 291.726C76.7823 291.726 76.6185 291.726 76.6185 292.381L76.6185 294.346Z" fill="#002147" fill-rule="nonzero" fill-opacity="1" transform="matrix(1.0003 0 0 1 1285 -117.568)"/><path d="M78.9109 294.346C78.9109 294.673 78.9109 294.837 79.0746 294.837L79.5658 294.837 80.057 294.673C80.2208 294.509 80.2208 294.346 80.3845 294.018L80.712 294.018C80.712 294.182 80.5483 294.837 80.5483 295.001L77.601 295.001 77.601 294.837C78.0922 294.837 78.0922 294.837 78.0922 294.182L78.0922 292.217C78.0922 291.562 78.0922 291.562 77.601 291.562L77.601 291.398 79.5658 291.398 79.5658 291.562C79.0746 291.562 79.0746 291.562 79.0746 292.217L79.0746 294.346 78.9109 294.346Z" fill="#002147" fill-rule="nonzero" fill-opacity="1" transform="matrix(1.0003 0 0 1 1285 -117.568)"/><path d="M82.1974 294.346C82.1974 294.673 82.1974 294.837 82.3611 294.837L82.8523 294.837 83.3435 294.673C83.5073 294.509 83.5073 294.346 83.671 294.018L83.9985 294.018C83.9985 294.182 83.8348 294.837 83.8348 295.001L80.8874 295.001 80.8874 294.837C81.3787 294.837 81.3787 294.837 81.3787 294.182L81.3787 292.217C81.3787 291.562 81.3787 291.562 80.8874 291.562L80.8874 291.398 82.8523 291.398 82.8523 291.562C82.3611 291.562 82.3611 291.562 82.3611 292.217L82.3611 294.346 82.1974 294.346Z" fill="#002147" fill-rule="nonzero" fill-opacity="1" transform="matrix(1.0003 0 0 1 1285 -117.568)"/><path d="M84.9809 295.328C84.6535 294.346 83.9985 292.872 83.8348 292.205 83.671 291.714 83.5073 291.714 83.1798 291.714L83.1798 291.55 85.1447 291.55 85.1447 291.714 84.9809 291.714C84.8172 291.714 84.8172 291.714 84.8172 292.042 84.9809 292.369 85.3084 293.515 85.6359 294.17 85.7996 293.679 86.1271 292.533 86.2909 292.205 86.4546 291.878 86.4546 291.714 86.1271 291.714L85.9634 291.714 85.9634 291.55 87.437 291.55 87.437 291.714C87.1096 291.714 86.9458 291.714 86.7821 292.369 86.7821 292.369 85.9634 294.17 85.6359 295.316L84.9809 295.316Z" fill="#002147" fill-rule="nonzero" fill-opacity="1" transform="matrix(1.0003 0 0 1 1285 -117.568)"/><path d="M100.735 277.445 100.735 277.609C100.244 277.609 100.244 277.609 100.244 278.264L100.244 280.229C100.244 280.884 100.244 280.884 100.735 280.884L100.735 281.048 98.9339 281.048 98.9339 280.884C99.4251 280.884 99.4251 280.884 99.4251 280.229L99.4251 278.1 98.2789 281.048 97.9515 281.048 96.8053 278.264 96.8053 279.574C96.8053 280.065 96.8053 280.393 96.8053 280.556 96.8053 280.72 96.969 280.884 97.2965 280.884L97.2965 281.048 95.9866 281.048 95.9866 280.884C96.3141 280.884 96.3141 280.884 96.4778 280.556 96.4778 280.393 96.4778 280.065 96.6415 279.574L96.6415 278.428C96.6415 277.609 96.6415 277.609 96.1503 277.609L96.1503 277.445 97.4603 277.445 98.4427 279.738 99.2614 277.445 100.735 277.445Z" fill="#002147" fill-rule="nonzero" fill-opacity="1" transform="matrix(1.0003 0 0 1 1285 -117.568)"/><path d="M102.7 280.241C102.7 280.896 102.7 280.896 103.191 280.896L103.191 281.059 101.226 281.059 101.226 280.896C101.554 280.896 101.717 280.896 101.717 280.241L101.717 278.276C101.717 277.621 101.717 277.621 101.226 277.621L101.226 277.457 103.191 277.457 103.191 277.621C102.864 277.621 102.7 277.621 102.7 278.276L102.7 280.241Z" fill="#002147" fill-rule="nonzero" fill-opacity="1" transform="matrix(1.0003 0 0 1 1285 -117.568)"/><path d="M106.969 281.223 106.478 281.223 104.349 278.439 104.349 279.586C104.349 280.241 104.349 280.568 104.349 280.732 104.349 280.896 104.513 281.059 105.004 281.059L105.004 281.223 103.53 281.223 103.53 281.059C103.858 281.059 104.022 280.896 104.022 280.732 104.022 280.568 104.022 280.241 104.022 279.586L104.022 278.439C104.022 277.948 104.022 277.948 103.858 277.785 103.694 277.621 103.694 277.621 103.367 277.621L103.367 277.457 104.676 277.457 106.641 279.913 106.641 279.094C106.641 278.439 106.641 278.112 106.641 277.948 106.641 277.785 106.478 277.621 105.986 277.621L105.986 277.457 107.46 277.457 107.46 277.621C107.133 277.621 106.969 277.785 106.969 277.948 106.969 278.112 106.969 278.439 106.969 279.094L106.969 281.223Z" fill="#002147" fill-rule="nonzero" fill-opacity="1" transform="matrix(1.0003 0 0 1 1285 -117.568)"/><path d="M108.77 279.749 109.589 279.749 109.261 278.603 108.77 279.749ZM109.425 280.896 109.589 280.896C109.752 280.896 109.752 280.732 109.752 280.568L109.589 279.913 108.606 279.913 108.443 280.404C108.443 280.732 108.443 280.732 108.606 280.732L108.77 280.732 108.77 280.896 107.46 280.896 107.46 280.732C107.788 280.732 107.788 280.732 108.115 280.241L109.261 277.118 109.589 276.954 109.916 278.1C110.244 278.755 110.407 279.41 110.571 280.065 110.735 280.556 110.899 280.556 111.226 280.72L111.226 280.884 109.425 280.884 109.425 280.896Z" fill="#002147" fill-rule="nonzero" fill-opacity="1" transform="matrix(1.0003 0 0 1 1285 -117.568)"/><path d="M100.735 287.293C100.735 287.948 100.735 287.948 101.226 287.948L101.226 288.112 99.2614 288.112 99.2614 287.948C99.7526 287.948 99.7526 287.948 99.7526 287.293L99.7526 284.673 99.5889 284.673C99.2614 284.673 99.0976 284.673 98.9339 284.837 98.9339 285.001 98.7702 285.001 98.7702 285.328L98.4427 285.328C98.4427 284.837 98.4427 284.51 98.4427 284.182L98.6064 284.182 98.9339 284.346 101.226 284.346 101.554 284.182 101.717 284.182C101.717 284.51 101.717 285.001 101.717 285.328L101.39 285.328C101.226 285.001 101.226 284.837 101.226 284.673 101.063 284.51 100.899 284.51 100.571 284.51L100.408 284.51 100.408 287.293 100.735 287.293Z" fill="#002147" fill-rule="nonzero" fill-opacity="1" transform="matrix(1.0003 0 0 1 1285 -117.568)"/><path d="M103.846 287.293C103.846 287.948 103.846 287.948 104.337 287.948L104.337 288.112 102.372 288.112 102.372 287.948C102.7 287.948 102.864 287.948 102.864 287.293L102.864 285.328C102.864 284.673 102.864 284.673 102.372 284.673L102.372 284.51 104.337 284.51 104.337 284.673C104.01 284.673 103.846 284.673 103.846 285.328L103.846 287.293Z" fill="#002147" fill-rule="nonzero" fill-opacity="1" transform="matrix(1.0003 0 0 1 1285 -117.568)"/><path d="M105.823 286.147C105.823 287.129 106.15 287.948 106.805 287.948 107.296 287.948 107.624 287.457 107.624 286.474 107.624 285.328 107.133 284.673 106.641 284.673 106.15 284.673 105.823 285.164 105.823 286.147M108.606 286.311C108.606 287.621 107.788 288.276 106.641 288.276 105.495 288.276 104.676 287.457 104.676 286.311 104.676 285.328 105.331 284.346 106.641 284.346 107.788 284.334 108.606 285.164 108.606 286.311" fill="#002147" fill-rule="nonzero" fill-opacity="1" transform="matrix(1.0003 0 0 1 1285 -117.568)"/><path d="M102.372 291.398 102.372 291.562C101.881 291.562 101.881 291.562 101.881 292.217L101.881 294.182C101.881 294.837 101.881 294.837 102.372 294.837L102.372 295.001 100.571 295.001 100.571 294.837C101.063 294.837 101.063 294.837 101.063 294.182L101.063 292.053 99.9163 295.001 99.5889 295.001 98.4427 292.217 98.4427 293.527C98.4427 294.018 98.4427 294.346 98.4427 294.509 98.4427 294.673 98.6064 294.837 98.9339 294.837L98.9339 295.001 97.624 295.001 97.624 294.837C97.9515 294.837 97.9515 294.673 98.1152 294.509 98.1152 294.346 98.1152 294.018 98.2789 293.527L98.2789 292.381C98.2789 291.562 98.2789 291.562 97.7877 291.562L97.7877 291.398 99.0976 291.398 100.08 293.691 100.899 291.398 102.372 291.398Z" fill="#002147" fill-rule="nonzero" fill-opacity="1" transform="matrix(1.0003 0 0 1 1285 -117.568)"/><path d="M103.355 292.381C103.355 291.726 103.355 291.726 102.864 291.726L102.864 291.562 105.647 291.562C105.647 291.726 105.647 292.053 105.647 292.544L105.32 292.544C105.32 292.217 105.156 292.053 105.156 292.053 104.992 291.89 104.829 291.89 104.501 291.89L104.337 291.89C104.174 291.89 104.174 291.89 104.174 292.053L104.174 293.199 104.501 293.199C104.992 293.199 104.992 293.199 105.156 292.708L105.483 292.708 105.483 294.018 105.156 294.018C105.156 293.527 105.156 293.527 104.501 293.527L104.174 293.527 104.174 294.509C104.174 294.837 104.174 295.001 104.337 295.001L104.829 295.001C104.992 295.001 105.32 295.001 105.483 294.837 105.647 294.673 105.647 294.509 105.811 294.182L106.138 294.182C106.138 294.509 105.975 295.001 105.975 295.164L103.027 295.164 103.027 295.001C103.519 295.001 103.519 295.001 103.519 294.346L103.519 292.381 103.355 292.381Z" fill="#002147" fill-rule="nonzero" fill-opacity="1" transform="matrix(1.0003 0 0 1 1285 -117.568)"/><path d="M107.296 293.854 108.115 293.854 107.788 292.708 107.296 293.854ZM108.115 295.001 108.279 295.001C108.443 295.001 108.443 294.837 108.443 294.673L108.279 294.018 107.296 294.018 107.133 294.509C107.133 294.837 107.133 294.837 107.296 294.837L107.46 294.837 107.46 295.001 106.15 295.001 106.15 294.837C106.478 294.837 106.478 294.837 106.805 294.346L107.951 291.223 108.279 291.059 108.606 292.205C108.934 292.86 109.097 293.515 109.261 294.17 109.425 294.661 109.589 294.661 109.916 294.825L109.916 294.989 108.115 294.989 108.115 295.001Z" fill="#002147" fill-rule="nonzero" fill-opacity="1" transform="matrix(1.0003 0 0 1 1285 -117.568)"/><path d="M87.285 342.579C87.285 343.397 86.63 344.052 85.8113 344.052 84.9926 344.052 84.3377 343.397 84.3377 342.579 84.3377 341.76 84.9926 341.105 85.8113 341.105 86.4546 340.941 87.285 341.596 87.285 342.579" fill="#FFFFFF" fill-rule="nonzero" fill-opacity="1" transform="matrix(1.0003 0 0 1 1285 -117.568)"/><path d="M102.7 345.046C102.7 345.865 102.045 346.52 101.226 346.52 100.408 346.52 99.7526 345.865 99.7526 345.046 99.7526 344.228 100.408 343.573 101.226 343.573 102.045 343.561 102.7 344.216 102.7 345.046" fill="#FFFFFF" fill-rule="nonzero" fill-opacity="1" transform="matrix(1.0003 0 0 1 1285 -117.568)"/><path d="M94.01 234.136C94.01 234.955 93.3551 235.61 92.5364 235.61 91.7177 235.61 91.0627 234.955 91.0627 234.136 91.0627 233.317 91.7177 232.662 92.5364 232.662 93.3551 232.662 94.01 233.317 94.01 234.136" fill="#FFFFFF" fill-rule="nonzero" fill-opacity="1" transform="matrix(1.0003 0 0 1 1285 -117.568)"/><path d="M130.43 248.58C130.43 249.399 129.612 250.054 128.793 250.054 127.974 250.054 127.319 249.235 127.319 248.417 127.319 247.598 128.138 246.943 128.957 246.943 129.939 246.931 130.594 247.586 130.43 248.58" fill="#FFFFFF" fill-rule="nonzero" fill-opacity="1" transform="matrix(1.0003 0 0 1 1285 -117.568)"/><path d="M53.4844 314.369C54.1394 315.187 54.3031 316.17 54.3031 316.988 54.3031 318.135 53.9756 318.953 52.0108 320.275L46.4319 324.216 45.4495 322.743 51.1921 318.638C52.1745 317.983 52.6657 317.491 52.6657 316.673 52.6657 316.181 52.502 315.69 52.1745 315.199 51.6833 314.38 50.8646 314.217 50.2096 314.217 49.7184 314.217 49.0634 314.544 47.9173 315.363L42.6659 318.977 41.8472 317.503 46.7711 314.217C48.081 313.234 49.2272 312.579 50.2213 312.579 51.6833 312.392 52.8295 313.375 53.4844 314.369" fill="#FFFFFF" fill-rule="nonzero" fill-opacity="1" transform="matrix(1.0003 0 0 1 1285 -117.568)"/><path d="M35.7654 303.538 46.2682 299.924 46.9231 301.398 40.8531 308.79 48.5605 305.831 49.0518 307.304 38.7128 311.41 38.0578 309.772 44.1279 302.392 36.4204 305.176Z" fill="#FFFFFF" fill-rule="nonzero" fill-opacity="1" transform="matrix(1.0003 0 0 1 1285 -117.568)"/><path d="M34.281 294.318 45.4389 294.318 45.4389 296.119 34.281 296.119Z" fill="#FFFFFF" fill-rule="nonzero" fill-opacity="1" transform="matrix(0.989473 -0.146696 0.14674 0.989175 1242.11 -108.527)"/><path d="M33.9643 281.878 33.9643 280.077 44.9583 284.51 44.9583 286.311 33.6368 289.749 33.6368 287.784 42.8179 285.328Z" fill="#FFFFFF" fill-rule="nonzero" fill-opacity="1" transform="matrix(1.0003 0 0 1 1285 -117.568)"/><path d="M41.9992 260.218C42.6542 259.071 43.1454 258.58 43.8004 258.58 44.1279 258.58 44.4553 258.58 44.7828 258.744 45.274 258.908 45.6015 259.399 45.6015 259.726L45.6015 260.218C45.6015 260.873 45.274 261.527 44.7828 262.182L44.6191 262.674 41.4963 261.036 41.9992 260.218ZM43.9641 256.943C42.3267 256.943 41.6718 257.925 40.6776 259.726L39.3677 262.019 49.2155 267.434 50.0342 265.96 45.929 263.668 46.0927 263.177C46.7477 261.867 47.0752 261.703 48.7126 261.867L51.8353 262.194 52.8178 260.557 49.2038 260.229C48.3851 260.229 47.8939 260.066 47.4027 260.229L46.9114 260.557 47.0752 259.902C47.0752 259.574 47.0752 259.247 46.9114 258.919 46.7477 258.264 46.2565 257.773 45.6015 257.282 44.9583 257.107 44.4553 256.943 43.9641 256.943" fill="#FFFFFF" fill-rule="nonzero" fill-opacity="1" transform="matrix(1.0003 0 0 1 1285 -117.568)"/><path d="M59.3871 239.525 61.1884 239.525 61.1884 250.684 59.3871 250.684Z" fill="#FFFFFF" fill-rule="nonzero" fill-opacity="1" transform="matrix(0.795932 -0.605518 0.605701 0.795693 1148.85 -31.0123)"/><path d="M62.3381 236.768 69.566 232.99 70.221 234.3 67.4257 235.774 71.8584 244.311 70.221 245.13 65.7883 236.604 63.0047 238.078Z" fill="#FFFFFF" fill-rule="nonzero" fill-opacity="1" transform="matrix(1.0003 0 0 1 1285 -117.568)"/><path d="M80.3845 229.54 82.1974 229.049 80.712 236.604 81.8699 240.861 80.2208 241.352 79.0746 237.095 73.6595 231.516 75.4723 231.025 79.4021 234.955Z" fill="#FFFFFF" fill-rule="nonzero" fill-opacity="1" transform="matrix(1.0003 0 0 1 1285 -117.568)"/><path d="M114.349 244.803 120.091 235.282 125.343 238.405 124.524 239.715 120.746 237.423 119.273 240.206 122.711 242.171 122.056 243.493 118.454 241.352 115.822 245.785Z" fill="#FFFFFF" fill-rule="nonzero" fill-opacity="1" transform="matrix(1.0003 0 0 1 1285 -117.568)"/><path d="M143.062 269.738 147.167 264.814 147.658 266.791 144.699 270.229 149.132 271.212 149.787 273.024 143.717 271.539 139.284 276.79 138.629 274.989 141.916 271.048 136.992 269.902 136.5 268.1Z" fill="#FFFFFF" fill-rule="nonzero" fill-opacity="1" transform="matrix(1.0003 0 0 1 1285 -117.568)"/><path d="M139.775 280.732 150.933 279.749 151.424 285.983 149.951 286.147 149.623 281.714 146.5 281.878 146.839 286.147 145.354 286.147 145.027 282.042 139.939 282.533Z" fill="#FFFFFF" fill-rule="nonzero" fill-opacity="1" transform="matrix(1.0003 0 0 1 1285 -117.568)"/><path d="M145.682 299.106C143.553 299.106 140.921 297.96 140.921 295.656 140.921 294.837 141.249 293.854 142.231 293.036 142.886 292.544 143.705 292.381 144.687 292.381 145.834 292.381 147.81 292.708 148.793 294.182 149.12 294.673 149.284 295.328 149.284 295.819 149.284 296.638 148.956 297.62 147.974 298.275 147.494 298.942 146.664 299.106 145.682 299.106M144.699 290.58C143.389 290.58 142.243 290.907 141.249 291.562 139.612 292.708 139.284 294.509 139.284 295.503 139.284 299.281 142.898 300.755 145.518 300.755 146.828 300.755 147.974 300.427 148.968 299.772 150.769 298.462 150.933 296.322 150.933 295.667 150.933 292.544 147.822 290.58 144.699 290.58" fill="#FFFFFF" fill-rule="nonzero" fill-opacity="1" transform="matrix(1.0003 0 0 1 1285 -117.568)"/><path d="M136.5 262.522C135.518 262.522 134.536 262.03 134.044 261.048 133.717 260.557 133.553 260.066 133.553 259.411 133.553 258.101 134.372 256.791 135.846 255.96 136.828 255.305 137.81 254.978 138.629 254.978 139.775 254.978 140.594 255.469 141.085 256.452 141.413 256.943 141.576 257.598 141.576 258.089 141.576 259.399 140.758 260.545 139.448 261.375 138.465 262.194 137.483 262.522 136.5 262.522M138.302 253.493C137.155 253.493 136.009 253.82 134.851 254.639 132.723 255.949 131.904 257.925 131.904 259.399 131.904 260.381 132.232 261.2 132.723 262.019 133.869 263.82 135.67 264.311 136.828 264.311 137.974 264.311 139.12 263.984 140.278 263.165 141.588 262.346 143.226 260.709 143.226 258.405 143.226 257.422 142.898 256.604 142.407 255.785 141.424 254.311 139.939 253.493 138.302 253.493" fill="#FFFFFF" fill-rule="nonzero" fill-opacity="1" transform="matrix(1.0003 0 0 1 1285 -117.568)"/><path d="M107.296 240.534C106.478 240.534 105.331 240.206 104.676 238.896 104.349 238.241 104.185 237.586 104.185 236.931 104.185 234.967 105.495 232.171 107.963 232.171 109.273 232.171 111.086 233.154 111.086 235.785 111.074 237.259 109.916 240.534 107.296 240.534M107.788 230.534C105.495 230.534 103.355 232.171 102.7 234.967 102.536 235.622 102.372 236.113 102.372 236.768 102.372 237.914 102.536 238.733 103.027 239.551 104.01 241.516 105.975 242.007 107.46 242.007 108.279 242.007 109.097 241.844 109.752 241.352 111.554 240.37 112.875 237.902 112.875 235.61 112.875 234.627 112.711 233.645 112.22 232.826 111.238 231.353 109.589 230.534 107.788 230.534" fill="#FFFFFF" fill-rule="nonzero" fill-opacity="1" transform="matrix(1.0003 0 0 1 1285 -117.568)"/><path d="M46.1044 271.048 47.5781 271.375 45.777 277.609 35.1105 274.662 36.9116 268.428 38.3853 268.755 37.0754 273.188 40.0344 274.007 41.1805 270.065 42.4905 270.393 41.3443 274.498 44.7828 275.48Z" fill="#FFFFFF" fill-rule="nonzero" fill-opacity="1" transform="matrix(1.0003 0 0 1 1285 -117.568)"/><path d="M48.888 247.75C50.3617 245.949 52.0108 246.113 52.0108 246.113L52.3382 247.586C52.3382 247.586 51.1921 247.586 50.2096 248.732 49.7184 249.224 49.5547 249.715 49.5547 250.042 49.5547 250.37 49.7184 250.697 50.0459 251.025 50.8646 251.68 52.1745 251.025 52.9932 250.697 53.6482 250.37 54.4669 250.042 55.4493 250.042 56.1043 250.042 56.7592 250.206 57.4142 250.861 58.2329 251.516 58.5604 252.335 58.5604 253.153 58.5604 254.136 58.2329 254.955 57.4142 255.773 55.9405 257.411 54.1277 257.574 54.1277 257.574L53.8002 256.101C54.9464 255.773 55.7651 255.446 56.2563 254.791 56.5838 254.3 56.9113 253.808 56.9113 253.317 56.9113 252.826 56.7475 252.498 56.42 252.171 56.0926 251.843 55.7651 251.843 55.4376 251.843 54.7826 251.843 53.8002 252.335 53.1452 252.498 51.8353 252.99 50.3617 253.481 49.0401 252.335 48.3851 251.68 48.0576 251.025 48.0576 250.206 47.7418 249.399 48.0693 248.405 48.888 247.75" fill="#FFFFFF" fill-rule="nonzero" fill-opacity="1" transform="matrix(1.0003 0 0 1 1285 -117.568)"/><path d="M143.389 311.737C142.898 311.737 142.079 311.41 141.752 310.591 141.588 310.427 141.588 310.1 141.588 309.936 141.588 309.281 141.916 308.626 142.243 307.971L142.407 307.48 145.693 308.954 145.366 309.772C144.699 311.246 144.372 311.737 143.389 311.737M136.828 305.012 141.097 306.977 140.933 307.468C140.278 308.778 140.114 308.942 138.313 308.942L135.191 308.942 134.372 310.579 137.986 310.579C138.805 310.579 139.296 310.579 139.787 310.415L140.278 310.088 140.278 310.415C140.278 310.907 140.278 311.234 140.442 311.562 140.933 312.708 142.243 313.363 143.389 313.363 145.19 313.363 145.845 312.38 146.676 310.415L147.658 307.959 137.483 303.363 136.828 305.012Z" fill="#FFFFFF" fill-rule="nonzero" fill-opacity="1" transform="matrix(1.0003 0 0 1 1285 -117.568)"/><path d="M135.027 324.041C134.208 324.041 133.389 323.714 132.407 323.059 131.588 322.404 130.606 321.257 130.606 319.936 130.606 318.953 131.097 317.971 131.916 316.988L132.734 316.006 139.132 321.094 138.641 321.749C137.319 323.222 136.5 324.041 135.027 324.041M131.085 315.679C129.939 317.152 129.12 318.462 129.12 320.111 129.12 321.585 129.775 323.234 131.413 324.38 132.559 325.199 133.705 325.69 135.027 325.69 136.5 325.69 137.81 325.199 139.787 322.743L141.588 320.614 132.898 313.725 131.085 315.679Z" fill="#FFFFFF" fill-rule="nonzero" fill-opacity="1" transform="matrix(1.0003 0 0 1 1285 -117.568)"/><path d="M129.939 336.836C119.6 340.45 109.928 340.286 101.554 338.473 101.881 334.696 103.355 330.766 105.659 330.111 123.869 324.532 137.155 307.468 137.155 287.457 137.155 262.849 117.144 242.838 92.3726 242.838 67.7649 242.838 47.5898 262.849 47.5898 287.457 47.5898 301.071 53.9873 314.193 64.8176 322.567 62.1977 323.714 60.0574 325.515 58.5837 327.819 57.765 327.327 56.9464 326.673 56.2914 326.018L55.9639 326.345C56.4551 327 57.2738 327.655 58.0925 328.637 56.7826 330.93 55.9639 333.398 55.9639 336.181 55.9639 336.672 55.9639 337 55.9639 337.491 39.8823 325.842 30.3737 307.304 30.3737 287.293 30.3737 253.165 58.268 225.283 92.3843 225.283 126.501 225.283 154.383 253.165 154.383 287.293 154.547 306.977 145.518 325.023 129.939 336.836M94.01 351.444C85.4838 351.444 74.8174 348.497 67.4374 344.228 65.145 342.918 62.5135 340.45 62.5135 336.357 62.5135 335.21 62.6772 334.228 63.1685 333.234 65.952 335.526 68.7473 337.666 70.5484 338.649 70.8759 338.813 71.2034 338.976 71.6946 338.976 72.8408 338.976 73.8232 337.994 73.8232 336.848 73.8232 336.029 73.332 335.21 72.5133 334.883 71.0397 334.228 67.7532 332.918 64.3146 331.105 65.952 328.977 68.4198 327.655 71.2034 327.655 72.5133 327.655 73.6595 327.982 74.8174 328.474L77.1097 329.784C84.6535 334.38 103.846 346.029 126.98 339.631 118.29 347.666 107.46 351.444 94.01 351.444M101.39 356.695C99.0976 356.695 97.1211 358.333 97.1211 360.964 97.1211 363.42 99.086 365.233 101.39 365.233 101.717 365.233 102.045 365.233 102.372 365.07 101.881 368.683 97.776 372.613 92.3609 374.426 87.1096 372.625 83.0044 368.683 82.3494 365.07 82.6769 365.233 83.0044 365.233 83.3318 365.233 85.7879 365.233 87.6008 363.432 87.6008 360.964 87.6008 358.672 85.7996 356.859 83.3318 356.695 83.9868 355.385 84.8055 353.912 85.2967 352.426 88.244 352.918 91.0393 353.245 93.8229 353.245 95.9515 353.245 98.0918 353.081 100.22 352.918 100.571 354.064 100.899 355.374 101.39 356.695M71.0397 323.059C75.4723 323.059 79.5658 325.351 82.0336 328.965 79.905 328.474 77.7647 327.655 75.7998 326.836 74.3262 326.181 72.8525 325.854 71.2034 325.854 67.7532 325.854 64.6421 327.491 62.6772 330.286 61.8585 329.795 61.0398 329.304 60.2211 328.813 62.5018 325.351 66.4433 323.059 71.0397 323.059M88.4312 331.912C87.9399 332.24 87.4487 332.731 87.1212 333.386 85.4838 332.567 83.5073 331.585 82.1974 330.93 83.9985 331.257 86.4546 331.748 88.4312 331.912M102.045 331.094C100.735 332.895 100.08 335.526 99.7526 337.982 95.6474 337 92.0451 335.526 88.7586 334.041 89.4136 332.895 91.051 332.076 92.3726 332.076 95.8111 332.076 98.9339 331.748 102.045 331.094M92.5247 330.275C89.7411 330.275 87.1096 329.947 84.4897 329.456 81.8699 324.532 76.7823 321.257 71.0397 321.257 69.7297 321.257 68.2561 321.421 67.0982 321.749 56.268 313.714 49.7067 300.919 49.7067 287.293 49.7067 263.668 68.8994 244.475 92.5247 244.475 116.15 244.475 135.343 263.668 135.343 287.293 135.354 311.082 116.15 330.275 92.5247 330.275M71.0397 349.467C63.8234 349.467 57.9171 343.561 57.9171 336.345 57.9171 334.052 58.5721 331.912 59.5545 330.111 60.2094 330.766 61.0281 331.421 61.6831 332.076 61.0281 333.386 60.7007 334.859 60.7007 336.509 60.7007 340.45 62.6655 343.725 66.4433 346.029 68.5719 347.339 71.0397 348.485 73.6595 349.479 72.6771 349.467 71.8584 349.467 71.0397 349.467M156.512 287.457C156.512 252.183 127.799 223.633 92.5247 223.633 57.2504 223.633 28.5375 252.346 28.5375 287.457 28.5375 308.626 39.0402 328.31 56.4317 340.123 58.0691 346.52 63.9755 351.28 71.028 351.28 72.8291 351.28 74.8057 350.953 76.4431 350.298 78.7354 351.117 81.2032 351.771 83.6593 352.263 83.0044 354.228 82.0219 356.04 81.0395 357.678L82.3494 358.988C82.6769 358.824 83.0044 358.66 83.4956 358.66 84.8055 358.66 85.9517 359.806 85.9517 361.116 85.9517 362.426 84.8055 363.572 83.4956 363.572 82.3494 363.572 81.367 362.917 80.8757 362.099 80.8757 362.099 80.5483 363.245 80.5483 364.555 80.5483 369.151 85.4722 374.403 92.5247 376.531 99.4134 374.403 104.501 369.151 104.501 364.555 104.501 362.917 104.174 362.099 104.174 362.099 103.682 362.754 102.7 363.572 101.554 363.572 100.244 363.572 99.0976 362.426 99.0976 361.116 99.0976 359.806 100.244 358.66 101.554 358.66 102.045 358.66 102.372 358.824 102.864 358.988L104.174 357.678C103.519 355.877 102.864 354.391 102.536 352.754 114.021 351.28 123.705 346.356 131.413 338.321 147.167 326.006 156.512 307.632 156.512 287.457" fill="#FFFFFF" fill-rule="nonzero" fill-opacity="1" transform="matrix(1.0003 0 0 1 1285 -117.568)"/></g></g></g></g></g></svg>