<svg xmlns="http://www.w3.org/2000/svg" width="1500" height="230"><text x="5" y="97.5" dominant-baseline="middle" text-anchor="start" font-weight="bold" font-size="20px">PTv3</text><rect x="95" y="25" width="224.19951123056023" height="100" fill="#e9e9e9" stroke="white" stroke-width="0.5" rx="8" ry="8"/><text x="207.09975561528012" y="44.5" dominant-baseline="middle" text-anchor="middle" font-weight="bold" font-size="20px">E0</text><rect x="100.25" y="65" width="83.83160732360118" height="55" fill="#4d4d4d" rx="8" ry="8" stroke="none" stroke-width="0" transform="translate(2,2)" opacity="0.2"/><rect x="100.25" y="65" width="83.83160732360118" height="55" fill="#009e73" rx="8" ry="8" stroke="#595959" stroke-width="0"/><g transform="translate(142.1658036618006,92.5)"><circle r="10" fill="#4d4d4d" transform="translate(2,2)" stroke="none" opacity="0.2"/><circle r="10" fill="#e9e9e9"/><path d="M5.36,0A5.36,5.36,0,1,1,-5.36,0A5.36,5.36,0,1,1,5.36,0" transform="rotate(0)" fill="#595959" stroke="none"/></g><rect x="184.5816073236012" y="65" width="59.46417247071731" height="55" fill="#4d4d4d" rx="8" ry="8" stroke="none" stroke-width="0" transform="translate(2,2)" opacity="0.2"/><rect x="184.5816073236012" y="65" width="59.46417247071731" height="55" fill="#56b4e9" rx="8" ry="8" stroke="#595959" stroke-width="0"/><g transform="translate(214.31369355895984,92.5)"><circle r="10" fill="#4d4d4d" transform="translate(2,2)" stroke="none" opacity="0.2"/><circle r="10" fill="#e9e9e9"/><path d="M-4.75,-4.75h9.5v9.5h-9.5Z" transform="rotate(0)" fill="#595959" stroke="none"/></g><rect x="244.5457797943185" y="65" width="69.40373143624173" height="55" fill="#4d4d4d" rx="8" ry="8" stroke="none" stroke-width="0" transform="translate(2,2)" opacity="0.2"/><rect x="244.5457797943185" y="65" width="69.40373143624173" height="55" fill="#d55e00" rx="8" ry="8" stroke="#595959" stroke-width="0"/><g transform="translate(279.24764551243936,92.5)"><circle r="10" fill="#4d4d4d" transform="translate(2,2)" stroke="none" opacity="0.2"/><circle r="10" fill="#e9e9e9"/><path d="M0,-8.966L2.013,-2.771L8.528,-2.771L3.257,1.058L5.27,7.254L0,3.425L-5.27,7.254L-3.257,1.058L-8.528,-2.771L-2.013,-2.771Z" transform="rotate(0)" fill="#595959" stroke="none"/></g><rect x="329.19951123056023" y="25" width="165.1013445066387" height="100" fill="#e9e9e9" stroke="white" stroke-width="0.5" rx="8" ry="8"/><text x="411.7501834838796" y="44.5" dominant-baseline="middle" text-anchor="middle" font-weight="bold" font-size="20px">E1</text><rect x="334.44951123056023" y="65" width="18.91368818496088" height="55" fill="#4d4d4d" rx="8" ry="8" stroke="none" stroke-width="0" transform="translate(2,2)" opacity="0.2"/><rect x="334.44951123056023" y="65" width="18.91368818496088" height="55" fill="#ffd539" rx="8" ry="8" stroke="#595959" stroke-width="0"/><g transform="translate(343.90635532304066,92.5)"><circle r="10" fill="#4d4d4d" transform="translate(2,2)" stroke="none" opacity="0.2"/><circle r="10" fill="#e9e9e9"/><path d="M0,-8.335L7.218,4.168L-7.218,4.168Z" transform="rotate(180)" fill="#595959" stroke="none"/></g><rect x="353.86319941552114" y="65" width="61.829995452989266" height="55" fill="#4d4d4d" rx="8" ry="8" stroke="none" stroke-width="0" transform="translate(2,2)" opacity="0.2"/><rect x="353.86319941552114" y="65" width="61.829995452989266" height="55" fill="#009e73" rx="8" ry="8" stroke="#595959" stroke-width="0"/><g transform="translate(384.77819714201576,92.5)"><circle r="10" fill="#4d4d4d" transform="translate(2,2)" stroke="none" opacity="0.2"/><circle r="10" fill="#e9e9e9"/><path d="M5.36,0A5.36,5.36,0,1,1,-5.36,0A5.36,5.36,0,1,1,5.36,0" transform="rotate(0)" fill="#595959" stroke="none"/></g><rect x="416.19319486851043" y="65" width="26.350725562698837" height="55" fill="#4d4d4d" rx="8" ry="8" stroke="none" stroke-width="0" transform="translate(2,2)" opacity="0.2"/><rect x="416.19319486851043" y="65" width="26.350725562698837" height="55" fill="#56b4e9" rx="8" ry="8" stroke="#595959" stroke-width="0"/><g transform="translate(429.36855764985984,92.5)"><circle r="10" fill="#4d4d4d" transform="translate(2,2)" stroke="none" opacity="0.2"/><circle r="10" fill="#e9e9e9"/><path d="M-4.75,-4.75h9.5v9.5h-9.5Z" transform="rotate(0)" fill="#595959" stroke="none"/></g><rect x="443.04392043120924" y="65" width="46.00693530598971" height="55" fill="#4d4d4d" rx="8" ry="8" stroke="none" stroke-width="0" transform="translate(2,2)" opacity="0.2"/><rect x="443.04392043120924" y="65" width="46.00693530598971" height="55" fill="#d55e00" rx="8" ry="8" stroke="#595959" stroke-width="0"/><g transform="translate(466.0473880842041,92.5)"><circle r="10" fill="#4d4d4d" transform="translate(2,2)" stroke="none" opacity="0.2"/><circle r="10" fill="#e9e9e9"/><path d="M0,-8.966L2.013,-2.771L8.528,-2.771L3.257,1.058L5.27,7.254L0,3.425L-5.27,7.254L-3.257,1.058L-8.528,-2.771L-2.013,-2.771Z" transform="rotate(0)" fill="#595959" stroke="none"/></g><rect x="504.30085573719896" y="25" width="139.47190391593242" height="100" fill="#e9e9e9" stroke="white" stroke-width="0.5" rx="8" ry="8"/><text x="574.0368076951652" y="44.5" dominant-baseline="middle" text-anchor="middle" font-weight="bold" font-size="20px">E2</text><rect x="510.6971031785437" y="65" width="19.207505117310475" height="55" fill="#4d4d4d" rx="8" ry="8" stroke="none" stroke-width="0" transform="translate(2,2)" opacity="0.2"/><rect x="510.6971031785437" y="65" width="19.207505117310475" height="55" fill="#ffd539" rx="8" ry="8" stroke="#595959" stroke-width="0"/><g transform="translate(520.300855737199,92.5)"><circle r="10" fill="#4d4d4d" transform="translate(2,2)" stroke="none" opacity="0.2"/><circle r="10" fill="#e9e9e9"/><path d="M0,-8.335L7.218,4.168L-7.218,4.168Z" transform="rotate(180)" fill="#595959" stroke="none"/></g><rect x="531.550855737199" y="65" width="54.60859890359906" height="55" fill="#4d4d4d" rx="8" ry="8" stroke="none" stroke-width="0" transform="translate(2,2)" opacity="0.2"/><rect x="531.550855737199" y="65" width="54.60859890359906" height="55" fill="#009e73" rx="8" ry="8" stroke="#595959" stroke-width="0"/><g transform="translate(558.8551551889985,92.5)"><circle r="10" fill="#4d4d4d" transform="translate(2,2)" stroke="none" opacity="0.2"/><circle r="10" fill="#e9e9e9"/><path d="M5.36,0A5.36,5.36,0,1,1,-5.36,0A5.36,5.36,0,1,1,5.36,0" transform="rotate(0)" fill="#595959" stroke="none"/></g><rect x="586.659454640798" y="65" width="24.20131264389347" height="55" fill="#4d4d4d" rx="8" ry="8" stroke="none" stroke-width="0" transform="translate(2,2)" opacity="0.2"/><rect x="586.659454640798" y="65" width="24.20131264389347" height="55" fill="#56b4e9" rx="8" ry="8" stroke="#595959" stroke-width="0"/><g transform="translate(598.7601109627448,92.5)"><circle r="10" fill="#4d4d4d" transform="translate(2,2)" stroke="none" opacity="0.2"/><circle r="10" fill="#e9e9e9"/><path d="M-4.75,-4.75h9.5v9.5h-9.5Z" transform="rotate(0)" fill="#595959" stroke="none"/></g><rect x="611.3607672846915" y="65" width="27.161992368439886" height="55" fill="#4d4d4d" rx="8" ry="8" stroke="none" stroke-width="0" transform="translate(2,2)" opacity="0.2"/><rect x="611.3607672846915" y="65" width="27.161992368439886" height="55" fill="#d55e00" rx="8" ry="8" stroke="#595959" stroke-width="0"/><g transform="translate(624.9417634689115,92.5)"><circle r="10" fill="#4d4d4d" transform="translate(2,2)" stroke="none" opacity="0.2"/><circle r="10" fill="#e9e9e9"/><path d="M0,-8.966L2.013,-2.771L8.528,-2.771L3.257,1.058L5.27,7.254L0,3.425L-5.27,7.254L-3.257,1.058L-8.528,-2.771L-2.013,-2.771Z" transform="rotate(0)" fill="#595959" stroke="none"/></g><rect x="653.7727596531314" y="25" width="220.23646599535434" height="100" fill="#e9e9e9" stroke="white" stroke-width="0.5" rx="8" ry="8"/><text x="763.8909926508086" y="44.5" dominant-baseline="middle" text-anchor="middle" font-weight="bold" font-size="20px">E3</text><rect x="660.665385258138" y="65" width="18.21474878998677" height="55" fill="#4d4d4d" rx="8" ry="8" stroke="none" stroke-width="0" transform="translate(2,2)" opacity="0.2"/><rect x="660.665385258138" y="65" width="18.21474878998677" height="55" fill="#ffd539" rx="8" ry="8" stroke="#595959" stroke-width="0"/><g transform="translate(669.7727596531314,92.5)"><circle r="10" fill="#4d4d4d" transform="translate(2,2)" stroke="none" opacity="0.2"/><circle r="10" fill="#e9e9e9"/><path d="M0,-8.335L7.218,4.168L-7.218,4.168Z" transform="rotate(180)" fill="#595959" stroke="none"/></g><rect x="681.0227596531314" y="65" width="47.64313240314658" height="55" fill="#4d4d4d" rx="8" ry="8" stroke="none" stroke-width="0" transform="translate(2,2)" opacity="0.2"/><rect x="681.0227596531314" y="65" width="47.64313240314658" height="55" fill="#009e73" rx="8" ry="8" stroke="#595959" stroke-width="0"/><g transform="translate(704.8443258547047,92.5)"><circle r="10" fill="#4d4d4d" transform="translate(2,2)" stroke="none" opacity="0.2"/><circle r="10" fill="#e9e9e9"/><path d="M5.36,0A5.36,5.36,0,1,1,-5.36,0A5.36,5.36,0,1,1,5.36,0" transform="rotate(0)" fill="#595959" stroke="none"/></g><rect x="729.1658920562779" y="65" width="86.29103474506034" height="55" fill="#4d4d4d" rx="8" ry="8" stroke="none" stroke-width="0" transform="translate(2,2)" opacity="0.2"/><rect x="729.1658920562779" y="65" width="86.29103474506034" height="55" fill="#56b4e9" rx="8" ry="8" stroke="#595959" stroke-width="0"/><g transform="translate(772.3114094288081,92.5)"><circle r="10" fill="#4d4d4d" transform="translate(2,2)" stroke="none" opacity="0.2"/><circle r="10" fill="#e9e9e9"/><path d="M-4.75,-4.75h9.5v9.5h-9.5Z" transform="rotate(0)" fill="#595959" stroke="none"/></g><rect x="815.9569268013382" y="65" width="52.80229884714739" height="55" fill="#4d4d4d" rx="8" ry="8" stroke="none" stroke-width="0" transform="translate(2,2)" opacity="0.2"/><rect x="815.9569268013382" y="65" width="52.80229884714739" height="55" fill="#d55e00" rx="8" ry="8" stroke="#595959" stroke-width="0"/><g transform="translate(842.3580762249119,92.5)"><circle r="10" fill="#4d4d4d" transform="translate(2,2)" stroke="none" opacity="0.2"/><circle r="10" fill="#e9e9e9"/><path d="M0,-8.966L2.013,-2.771L8.528,-2.771L3.257,1.058L5.27,7.254L0,3.425L-5.27,7.254L-3.257,1.058L-8.528,-2.771L-2.013,-2.771Z" transform="rotate(0)" fill="#595959" stroke="none"/></g><rect x="884.0092256484858" y="25" width="127.29512873019023" height="100" fill="#e9e9e9" stroke="white" stroke-width="0.5" rx="8" ry="8"/><text x="947.6567900135809" y="44.5" dominant-baseline="middle" text-anchor="middle" font-weight="bold" font-size="20px">E4</text><rect x="890.4075769374186" y="65" width="19.203297422134227" height="55" fill="#4d4d4d" rx="8" ry="8" stroke="none" stroke-width="0" transform="translate(2,2)" opacity="0.2"/><rect x="890.4075769374186" y="65" width="19.203297422134227" height="55" fill="#ffd539" rx="8" ry="8" stroke="#595959" stroke-width="0"/><g transform="translate(900.0092256484858,92.5)"><circle r="10" fill="#4d4d4d" transform="translate(2,2)" stroke="none" opacity="0.2"/><circle r="10" fill="#e9e9e9"/><path d="M0,-8.335L7.218,4.168L-7.218,4.168Z" transform="rotate(180)" fill="#595959" stroke="none"/></g><rect x="911.2592256484858" y="65" width="40.94976688879903" height="55" fill="#4d4d4d" rx="8" ry="8" stroke="none" stroke-width="0" transform="translate(2,2)" opacity="0.2"/><rect x="911.2592256484858" y="65" width="40.94976688879903" height="55" fill="#009e73" rx="8" ry="8" stroke="#595959" stroke-width="0"/><g transform="translate(931.7341090928853,92.5)"><circle r="10" fill="#4d4d4d" transform="translate(2,2)" stroke="none" opacity="0.2"/><circle r="10" fill="#e9e9e9"/><path d="M5.36,0A5.36,5.36,0,1,1,-5.36,0A5.36,5.36,0,1,1,5.36,0" transform="rotate(0)" fill="#595959" stroke="none"/></g><rect x="952.7089925372848" y="65" width="32.18661491524256" height="55" fill="#4d4d4d" rx="8" ry="8" stroke="none" stroke-width="0" transform="translate(2,2)" opacity="0.2"/><rect x="952.7089925372848" y="65" width="32.18661491524256" height="55" fill="#56b4e9" rx="8" ry="8" stroke="#595959" stroke-width="0"/><g transform="translate(968.802299994906,92.5)"><circle r="10" fill="#4d4d4d" transform="translate(2,2)" stroke="none" opacity="0.2"/><circle r="10" fill="#e9e9e9"/><path d="M-4.75,-4.75h9.5v9.5h-9.5Z" transform="rotate(0)" fill="#595959" stroke="none"/></g><rect x="985.3956074525273" y="65" width="20.658746926148638" height="55" fill="#4d4d4d" rx="8" ry="8" stroke="none" stroke-width="0" transform="translate(2,2)" opacity="0.2"/><rect x="985.3956074525273" y="65" width="20.658746926148638" height="55" fill="#d55e00" rx="8" ry="8" stroke="#595959" stroke-width="0"/><g transform="translate(995.7249809156017,92.5)"><circle r="10" fill="#4d4d4d" transform="translate(2,2)" stroke="none" opacity="0.2"/><circle r="10" fill="#e9e9e9"/><path d="M0,-8.966L2.013,-2.771L8.528,-2.771L3.257,1.058L5.27,7.254L0,3.425L-5.27,7.254L-3.257,1.058L-8.528,-2.771L-2.013,-2.771Z" transform="rotate(0)" fill="#595959" stroke="none"/></g><rect x="1021.304354378676" y="25" width="82.58919480636288" height="100" fill="#e9e9e9" stroke="white" stroke-width="0.5" rx="8" ry="8"/><text x="1062.5989517818573" y="44.5" dominant-baseline="middle" text-anchor="middle" font-weight="bold" font-size="20px">D3</text><rect x="1035.513655413346" y="65" width="3.581397930659912" height="55" fill="#4d4d4d" rx="8" ry="8" stroke="none" stroke-width="0" transform="translate(2,2)" opacity="0.2"/><rect x="1035.513655413346" y="65" width="3.581397930659912" height="55" fill="#e69f00" rx="8" ry="8" stroke="#595959" stroke-width="0"/><g transform="translate(1037.304354378676,92.5)"><circle r="10" fill="#4d4d4d" transform="translate(2,2)" stroke="none" opacity="0.2"/><circle r="10" fill="#e9e9e9"/><path d="M0,-8.335L7.218,4.168L-7.218,4.168Z" transform="rotate(0)" fill="#595959" stroke="none"/></g><rect x="1048.554354378676" y="65" width="28.089194806362883" height="55" fill="#4d4d4d" rx="8" ry="8" stroke="none" stroke-width="0" transform="translate(2,2)" opacity="0.2"/><rect x="1048.554354378676" y="65" width="28.089194806362883" height="55" fill="#56b4e9" rx="8" ry="8" stroke="#595959" stroke-width="0"/><g transform="translate(1062.5989517818573,92.5)"><circle r="10" fill="#4d4d4d" transform="translate(2,2)" stroke="none" opacity="0.2"/><circle r="10" fill="#e9e9e9"/><path d="M-4.75,-4.75h9.5v9.5h-9.5Z" transform="rotate(0)" fill="#595959" stroke="none"/></g><rect x="1078.515531680561" y="65" width="18.756035008955582" height="55" fill="#4d4d4d" rx="8" ry="8" stroke="none" stroke-width="0" transform="translate(2,2)" opacity="0.2"/><rect x="1078.515531680561" y="65" width="18.756035008955582" height="55" fill="#d55e00" rx="8" ry="8" stroke="#595959" stroke-width="0"/><g transform="translate(1087.8935491850389,92.5)"><circle r="10" fill="#4d4d4d" transform="translate(2,2)" stroke="none" opacity="0.2"/><circle r="10" fill="#e9e9e9"/><path d="M0,-8.966L2.013,-2.771L8.528,-2.771L3.257,1.058L5.27,7.254L0,3.425L-5.27,7.254L-3.257,1.058L-8.528,-2.771L-2.013,-2.771Z" transform="rotate(0)" fill="#595959" stroke="none"/></g><rect x="1113.8935491850389" y="25" width="75.41400876480729" height="100" fill="#e9e9e9" stroke="white" stroke-width="0.5" rx="8" ry="8"/><text x="1151.6005535674426" y="44.5" dominant-baseline="middle" text-anchor="middle" font-weight="bold" font-size="20px">D2</text><rect x="1128.1541087779208" y="65" width="3.478880814236213" height="55" fill="#4d4d4d" rx="8" ry="8" stroke="none" stroke-width="0" transform="translate(2,2)" opacity="0.2"/><rect x="1128.1541087779208" y="65" width="3.478880814236213" height="55" fill="#e69f00" rx="8" ry="8" stroke="#595959" stroke-width="0"/><g transform="translate(1129.8935491850389,92.5)"><circle r="10" fill="#4d4d4d" transform="translate(2,2)" stroke="none" opacity="0.2"/><circle r="10" fill="#e9e9e9"/><path d="M0,-8.335L7.218,4.168L-7.218,4.168Z" transform="rotate(0)" fill="#595959" stroke="none"/></g><rect x="1141.1435491850389" y="65" width="22.907074556412017" height="55" fill="#4d4d4d" rx="8" ry="8" stroke="none" stroke-width="0" transform="translate(2,2)" opacity="0.2"/><rect x="1141.1435491850389" y="65" width="22.907074556412017" height="55" fill="#56b4e9" rx="8" ry="8" stroke="#595959" stroke-width="0"/><g transform="translate(1152.597086463245,92.5)"><circle r="10" fill="#4d4d4d" transform="translate(2,2)" stroke="none" opacity="0.2"/><circle r="10" fill="#e9e9e9"/><path d="M-4.75,-4.75h9.5v9.5h-9.5Z" transform="rotate(0)" fill="#595959" stroke="none"/></g><rect x="1164.5506237414509" y="65" width="19.506934208395283" height="55" fill="#4d4d4d" rx="8" ry="8" stroke="none" stroke-width="0" transform="translate(2,2)" opacity="0.2"/><rect x="1164.5506237414509" y="65" width="19.506934208395283" height="55" fill="#d55e00" rx="8" ry="8" stroke="#595959" stroke-width="0"/><g transform="translate(1174.3040908456485,92.5)"><circle r="10" fill="#4d4d4d" transform="translate(2,2)" stroke="none" opacity="0.2"/><circle r="10" fill="#e9e9e9"/><path d="M0,-8.966L2.013,-2.771L8.528,-2.771L3.257,1.058L5.27,7.254L0,3.425L-5.27,7.254L-3.257,1.058L-8.528,-2.771L-2.013,-2.771Z" transform="rotate(0)" fill="#595959" stroke="none"/></g><rect x="1199.3075579498461" y="25" width="97.76554399102136" height="100" fill="#e9e9e9" stroke="white" stroke-width="0.5" rx="8" ry="8"/><text x="1248.1903299453568" y="44.5" dominant-baseline="middle" text-anchor="middle" font-weight="bold" font-size="20px">D1</text><rect x="1212.878419161802" y="65" width="4.858277576088212" height="55" fill="#4d4d4d" rx="8" ry="8" stroke="none" stroke-width="0" transform="translate(2,2)" opacity="0.2"/><rect x="1212.878419161802" y="65" width="4.858277576088212" height="55" fill="#e69f00" rx="8" ry="8" stroke="#595959" stroke-width="0"/><g transform="translate(1215.3075579498461,92.5)"><circle r="10" fill="#4d4d4d" transform="translate(2,2)" stroke="none" opacity="0.2"/><circle r="10" fill="#e9e9e9"/><path d="M0,-8.335L7.218,4.168L-7.218,4.168Z" transform="rotate(0)" fill="#595959" stroke="none"/></g><rect x="1226.5575579498461" y="65" width="24.926110622406235" height="55" fill="#4d4d4d" rx="8" ry="8" stroke="none" stroke-width="0" transform="translate(2,2)" opacity="0.2"/><rect x="1226.5575579498461" y="65" width="24.926110622406235" height="55" fill="#56b4e9" rx="8" ry="8" stroke="#595959" stroke-width="0"/><g transform="translate(1239.0206132610492,92.5)"><circle r="10" fill="#4d4d4d" transform="translate(2,2)" stroke="none" opacity="0.2"/><circle r="10" fill="#e9e9e9"/><path d="M-4.75,-4.75h9.5v9.5h-9.5Z" transform="rotate(0)" fill="#595959" stroke="none"/></g><rect x="1251.9836685722523" y="65" width="39.83943336861513" height="55" fill="#4d4d4d" rx="8" ry="8" stroke="none" stroke-width="0" transform="translate(2,2)" opacity="0.2"/><rect x="1251.9836685722523" y="65" width="39.83943336861513" height="55" fill="#d55e00" rx="8" ry="8" stroke="#595959" stroke-width="0"/><g transform="translate(1271.90338525656,92.5)"><circle r="10" fill="#4d4d4d" transform="translate(2,2)" stroke="none" opacity="0.2"/><circle r="10" fill="#e9e9e9"/><path d="M0,-8.966L2.013,-2.771L8.528,-2.771L3.257,1.058L5.27,7.254L0,3.425L-5.27,7.254L-3.257,1.058L-8.528,-2.771L-2.013,-2.771Z" transform="rotate(0)" fill="#595959" stroke="none"/></g><rect x="1307.0731019408674" y="25" width="192.92689805913236" height="100" fill="#e9e9e9" stroke="white" stroke-width="0.5" rx="8" ry="8"/><text x="1403.5365509704336" y="44.5" dominant-baseline="middle" text-anchor="middle" font-weight="bold" font-size="20px">D0</text><rect x="1316.6657951510997" y="65" width="12.814613579535443" height="55" fill="#4d4d4d" rx="8" ry="8" stroke="none" stroke-width="0" transform="translate(2,2)" opacity="0.2"/><rect x="1316.6657951510997" y="65" width="12.814613579535443" height="55" fill="#e69f00" rx="8" ry="8" stroke="#595959" stroke-width="0"/><g transform="translate(1323.0731019408674,92.5)"><circle r="10" fill="#4d4d4d" transform="translate(2,2)" stroke="none" opacity="0.2"/><circle r="10" fill="#e9e9e9"/><path d="M0,-8.335L7.218,4.168L-7.218,4.168Z" transform="rotate(0)" fill="#595959" stroke="none"/></g><rect x="1334.3231019408674" y="65" width="49.71751727339754" height="55" fill="#4d4d4d" rx="8" ry="8" stroke="none" stroke-width="0" transform="translate(2,2)" opacity="0.2"/><rect x="1334.3231019408674" y="65" width="49.71751727339754" height="55" fill="#56b4e9" rx="8" ry="8" stroke="#595959" stroke-width="0"/><g transform="translate(1359.181860577566,92.5)"><circle r="10" fill="#4d4d4d" transform="translate(2,2)" stroke="none" opacity="0.2"/><circle r="10" fill="#e9e9e9"/><path d="M-4.75,-4.75h9.5v9.5h-9.5Z" transform="rotate(0)" fill="#595959" stroke="none"/></g><rect x="1384.540619214265" y="65" width="110.20938078573482" height="55" fill="#4d4d4d" rx="8" ry="8" stroke="none" stroke-width="0" transform="translate(2,2)" opacity="0.2"/><rect x="1384.540619214265" y="65" width="110.20938078573482" height="55" fill="#d55e00" rx="8" ry="8" stroke="#595959" stroke-width="0"/><g transform="translate(1439.6453096071325,92.5)"><circle r="10" fill="#4d4d4d" transform="translate(2,2)" stroke="none" opacity="0.2"/><circle r="10" fill="#e9e9e9"/><path d="M0,-8.966L2.013,-2.771L8.528,-2.771L3.257,1.058L5.27,7.254L0,3.425L-5.27,7.254L-3.257,1.058L-8.528,-2.771L-2.013,-2.771Z" transform="rotate(0)" fill="#595959" stroke="none"/></g><text x="5" y="177.5" dominant-baseline="middle" text-anchor="start" font-weight="bold" font-size="20px">LitePT-S</text><rect x="95" y="140" width="224.19951123056023" height="65" fill="#e9e9e9" stroke="white" stroke-width="0.5" rx="8" ry="8"/><rect x="100.25" y="145" width="68.18489161390728" height="55" fill="#4d4d4d" rx="8" ry="8" stroke="none" stroke-width="0" transform="translate(2,2)" opacity="0.2"/><rect x="100.25" y="145" width="68.18489161390728" height="55" fill="#56b4e9" rx="8" ry="8" stroke="#595959" stroke-width="0"/><g transform="translate(134.34244580695363,172.5)"><circle r="10" fill="#4d4d4d" transform="translate(2,2)" stroke="none" opacity="0.2"/><circle r="10" fill="#e9e9e9"/><path d="M-4.75,-4.75h9.5v9.5h-9.5Z" transform="rotate(0)" fill="#595959" stroke="none"/></g><rect x="329.19951123056023" y="140" width="165.1013445066387" height="65" fill="#e9e9e9" stroke="white" stroke-width="0.5" rx="8" ry="8"/><rect x="334.44951123056023" y="145" width="20.45826647749248" height="55" fill="#4d4d4d" rx="8" ry="8" stroke="none" stroke-width="0" transform="translate(2,2)" opacity="0.2"/><rect x="334.44951123056023" y="145" width="20.45826647749248" height="55" fill="#ffd539" rx="8" ry="8" stroke="#595959" stroke-width="0"/><g transform="translate(344.67864446930645,172.5)"><circle r="10" fill="#4d4d4d" transform="translate(2,2)" stroke="none" opacity="0.2"/><circle r="10" fill="#e9e9e9"/><path d="M0,-8.335L7.218,4.168L-7.218,4.168Z" transform="rotate(180)" fill="#595959" stroke="none"/></g><rect x="355.4077777080527" y="145" width="33.10203108976026" height="55" fill="#4d4d4d" rx="8" ry="8" stroke="none" stroke-width="0" transform="translate(2,2)" opacity="0.2"/><rect x="355.4077777080527" y="145" width="33.10203108976026" height="55" fill="#56b4e9" rx="8" ry="8" stroke="#595959" stroke-width="0"/><g transform="translate(371.9587932529329,172.5)"><circle r="10" fill="#4d4d4d" transform="translate(2,2)" stroke="none" opacity="0.2"/><circle r="10" fill="#e9e9e9"/><path d="M-4.75,-4.75h9.5v9.5h-9.5Z" transform="rotate(0)" fill="#595959" stroke="none"/></g><rect x="504.30085573719896" y="140" width="139.47190391593242" height="65" fill="#e9e9e9" stroke="white" stroke-width="0.5" rx="8" ry="8"/><rect x="510.6971031785437" y="145" width="18.70626992279703" height="55" fill="#4d4d4d" rx="8" ry="8" stroke="none" stroke-width="0" transform="translate(2,2)" opacity="0.2"/><rect x="510.6971031785437" y="145" width="18.70626992279703" height="55" fill="#ffd539" rx="8" ry="8" stroke="#595959" stroke-width="0"/><g transform="translate(520.0502381399423,172.5)"><circle r="10" fill="#4d4d4d" transform="translate(2,2)" stroke="none" opacity="0.2"/><circle r="10" fill="#e9e9e9"/><path d="M0,-8.335L7.218,4.168L-7.218,4.168Z" transform="rotate(180)" fill="#595959" stroke="none"/></g><rect x="531.0496205426855" y="145" width="28.4767100185059" height="55" fill="#4d4d4d" rx="8" ry="8" stroke="none" stroke-width="0" transform="translate(2,2)" opacity="0.2"/><rect x="531.0496205426855" y="145" width="28.4767100185059" height="55" fill="#56b4e9" rx="8" ry="8" stroke="#595959" stroke-width="0"/><g transform="translate(545.2879755519384,172.5)"><circle r="10" fill="#4d4d4d" transform="translate(2,2)" stroke="none" opacity="0.2"/><circle r="10" fill="#e9e9e9"/><path d="M-4.75,-4.75h9.5v9.5h-9.5Z" transform="rotate(0)" fill="#595959" stroke="none"/></g><rect x="653.7727596531314" y="140" width="220.23646599535434" height="65" fill="#e9e9e9" stroke="white" stroke-width="0.5" rx="8" ry="8"/><rect x="660.665385258138" y="145" width="16.332090906314246" height="55" fill="#4d4d4d" rx="8" ry="8" stroke="none" stroke-width="0" transform="translate(2,2)" opacity="0.2"/><rect x="660.665385258138" y="145" width="16.332090906314246" height="55" fill="#ffd539" rx="8" ry="8" stroke="#595959" stroke-width="0"/><g transform="translate(668.8314307112952,172.5)"><circle r="10" fill="#4d4d4d" transform="translate(2,2)" stroke="none" opacity="0.2"/><circle r="10" fill="#e9e9e9"/><path d="M0,-8.335L7.218,4.168L-7.218,4.168Z" transform="rotate(180)" fill="#595959" stroke="none"/></g><rect x="679.1401017694589" y="145" width="52.0142199875338" height="55" fill="#4d4d4d" rx="8" ry="8" stroke="none" stroke-width="0" transform="translate(2,2)" opacity="0.2"/><rect x="679.1401017694589" y="145" width="52.0142199875338" height="55" fill="#009e73" rx="8" ry="8" stroke="#595959" stroke-width="0"/><g transform="translate(705.1472117632258,172.5)"><circle r="10" fill="#4d4d4d" transform="translate(2,2)" stroke="none" opacity="0.2"/><circle r="10" fill="#e9e9e9"/><path d="M5.36,0A5.36,5.36,0,1,1,-5.36,0A5.36,5.36,0,1,1,5.36,0" transform="rotate(0)" fill="#595959" stroke="none"/></g><rect x="731.6543217569927" y="145" width="71.90142223050414" height="55" fill="#4d4d4d" rx="8" ry="8" stroke="none" stroke-width="0" transform="translate(2,2)" opacity="0.2"/><rect x="731.6543217569927" y="145" width="71.90142223050414" height="55" fill="#d55e00" rx="8" ry="8" stroke="#595959" stroke-width="0"/><g transform="translate(767.6050328722447,172.5)"><circle r="10" fill="#4d4d4d" transform="translate(2,2)" stroke="none" opacity="0.2"/><circle r="10" fill="#e9e9e9"/><path d="M0,-8.966L2.013,-2.771L8.528,-2.771L3.257,1.058L5.27,7.254L0,3.425L-5.27,7.254L-3.257,1.058L-8.528,-2.771L-2.013,-2.771Z" transform="rotate(0)" fill="#595959" stroke="none"/></g><g transform="translate(803.5557439874968,145)"><circle r="14" fill="#4d4d4d" stroke="none" stroke-width="0" transform="translate(2,2)" opacity="0.2"/><circle r="14" fill="#e9e9e9" stroke="#595959" stroke-width="0"/><path d="M-6.5778483455013586,-2.272525663386985A7,7,0,1,1,6.5778483455013586,-2.272525663386986L0,9.333333333333332Z" fill="#91191dff" stroke="none"/><circle cx="0" cy="-4.666666666666667" r="2.8000000000000003" fill="#e9e9e9"/></g><rect x="884.0092256484858" y="140" width="127.29512873019023" height="65" fill="#e9e9e9" stroke="white" stroke-width="0.5" rx="8" ry="8"/><rect x="890.4075769374186" y="145" width="16.63229177574043" height="55" fill="#4d4d4d" rx="8" ry="8" stroke="none" stroke-width="0" transform="translate(2,2)" opacity="0.2"/><rect x="890.4075769374186" y="145" width="16.63229177574043" height="55" fill="#ffd539" rx="8" ry="8" stroke="#595959" stroke-width="0"/><g transform="translate(898.7237228252889,172.5)"><circle r="10" fill="#4d4d4d" transform="translate(2,2)" stroke="none" opacity="0.2"/><circle r="10" fill="#e9e9e9"/><path d="M0,-8.335L7.218,4.168L-7.218,4.168Z" transform="rotate(180)" fill="#595959" stroke="none"/></g><rect x="908.688220002092" y="145" width="42.985273330376664" height="55" fill="#4d4d4d" rx="8" ry="8" stroke="none" stroke-width="0" transform="translate(2,2)" opacity="0.2"/><rect x="908.688220002092" y="145" width="42.985273330376664" height="55" fill="#009e73" rx="8" ry="8" stroke="#595959" stroke-width="0"/><g transform="translate(930.1808566672803,172.5)"><circle r="10" fill="#4d4d4d" transform="translate(2,2)" stroke="none" opacity="0.2"/><circle r="10" fill="#e9e9e9"/><path d="M5.36,0A5.36,5.36,0,1,1,-5.36,0A5.36,5.36,0,1,1,5.36,0" transform="rotate(0)" fill="#595959" stroke="none"/></g><rect x="952.1734933324686" y="145" width="27.246442250836523" height="55" fill="#4d4d4d" rx="8" ry="8" stroke="none" stroke-width="0" transform="translate(2,2)" opacity="0.2"/><rect x="952.1734933324686" y="145" width="27.246442250836523" height="55" fill="#d55e00" rx="8" ry="8" stroke="#595959" stroke-width="0"/><g transform="translate(965.7967144578869,172.5)"><circle r="10" fill="#4d4d4d" transform="translate(2,2)" stroke="none" opacity="0.2"/><circle r="10" fill="#e9e9e9"/><path d="M0,-8.966L2.013,-2.771L8.528,-2.771L3.257,1.058L5.27,7.254L0,3.425L-5.27,7.254L-3.257,1.058L-8.528,-2.771L-2.013,-2.771Z" transform="rotate(0)" fill="#595959" stroke="none"/></g><g transform="translate(979.4199355833051,145)"><circle r="14" fill="#4d4d4d" stroke="none" stroke-width="0" transform="translate(2,2)" opacity="0.2"/><circle r="14" fill="#e9e9e9" stroke="#595959" stroke-width="0"/><path d="M-6.5778483455013586,-2.272525663386985A7,7,0,1,1,6.5778483455013586,-2.272525663386986L0,9.333333333333332Z" fill="#91191dff" stroke="none"/><circle cx="0" cy="-4.666666666666667" r="2.8000000000000003" fill="#e9e9e9"/></g><rect x="1021.304354378676" y="140" width="82.58919480636288" height="65" fill="#e9e9e9" stroke="white" stroke-width="0.5" rx="8" ry="8"/><rect x="1035.513655413346" y="145" width="3.835054418877254" height="55" fill="#4d4d4d" rx="8" ry="8" stroke="none" stroke-width="0" transform="translate(2,2)" opacity="0.2"/><rect x="1035.513655413346" y="145" width="3.835054418877254" height="55" fill="#e69f00" rx="8" ry="8" stroke="#595959" stroke-width="0"/><g transform="translate(1037.4311826227847,172.5)"><circle r="10" fill="#4d4d4d" transform="translate(2,2)" stroke="none" opacity="0.2"/><circle r="10" fill="#e9e9e9"/><path d="M0,-8.335L7.218,4.168L-7.218,4.168Z" transform="rotate(0)" fill="#595959" stroke="none"/></g><rect x="1113.8935491850389" y="140" width="75.41400876480729" height="65" fill="#e9e9e9" stroke="white" stroke-width="0.5" rx="8" ry="8"/><rect x="1128.1541087779208" y="145" width="3.269405125369444" height="55" fill="#4d4d4d" rx="8" ry="8" stroke="none" stroke-width="0" transform="translate(2,2)" opacity="0.2"/><rect x="1128.1541087779208" y="145" width="3.269405125369444" height="55" fill="#e69f00" rx="8" ry="8" stroke="#595959" stroke-width="0"/><g transform="translate(1129.7888113406054,172.5)"><circle r="10" fill="#4d4d4d" transform="translate(2,2)" stroke="none" opacity="0.2"/><circle r="10" fill="#e9e9e9"/><path d="M0,-8.335L7.218,4.168L-7.218,4.168Z" transform="rotate(0)" fill="#595959" stroke="none"/></g><rect x="1199.3075579498461" y="140" width="97.76554399102136" height="65" fill="#e9e9e9" stroke="white" stroke-width="0.5" rx="8" ry="8"/><rect x="1212.878419161802" y="145" width="5.017520657110179" height="55" fill="#4d4d4d" rx="8" ry="8" stroke="none" stroke-width="0" transform="translate(2,2)" opacity="0.2"/><rect x="1212.878419161802" y="145" width="5.017520657110179" height="55" fill="#e69f00" rx="8" ry="8" stroke="#595959" stroke-width="0"/><g transform="translate(1215.387179490357,172.5)"><circle r="10" fill="#4d4d4d" transform="translate(2,2)" stroke="none" opacity="0.2"/><circle r="10" fill="#e9e9e9"/><path d="M0,-8.335L7.218,4.168L-7.218,4.168Z" transform="rotate(0)" fill="#595959" stroke="none"/></g><rect x="1307.0731019408674" y="140" width="192.92689805913236" height="65" fill="#e9e9e9" stroke="white" stroke-width="0.5" rx="8" ry="8"/><rect x="1316.6657951510997" y="145" width="14.378239859196743" height="55" fill="#4d4d4d" rx="8" ry="8" stroke="none" stroke-width="0" transform="translate(2,2)" opacity="0.2"/><rect x="1316.6657951510997" y="145" width="14.378239859196743" height="55" fill="#e69f00" rx="8" ry="8" stroke="#595959" stroke-width="0"/><g transform="translate(1323.854915080698,172.5)"><circle r="10" fill="#4d4d4d" transform="translate(2,2)" stroke="none" opacity="0.2"/><circle r="10" fill="#e9e9e9"/><path d="M0,-8.335L7.218,4.168L-7.218,4.168Z" transform="rotate(0)" fill="#595959" stroke="none"/></g></svg>