<svg xmlns="http://www.w3.org/2000/svg" width="1500" height="200"><text x="5" y="112.5" dominant-baseline="middle" text-anchor="start" font-weight="bold" font-size="20px">PTv3</text><rect x="95" y="40" width="33.897561640292935" height="100" fill="#e9e9e9" stroke="white" stroke-width="0.5" rx="8" ry="8"/><text x="111.94878082014647" y="59.5" text-anchor="middle" dominant-baseline="middle" font-weight="bold" font-size="20px">E0</text><rect x="105" y="80" width="2" height="55" fill="black" rx="8" ry="8" stroke="none" stroke-width="0" transform="translate(2,2)" opacity="0.1"/><rect x="105" y="80" width="2" height="55" fill="#b6e2dd" rx="8" ry="8" stroke="#595959" stroke-width="0"/><rect x="107" y="80" width="2" height="55" fill="black" rx="8" ry="8" stroke="none" stroke-width="0" transform="translate(2,2)" opacity="0.1"/><rect x="107" y="80" width="2" height="55" fill="#e6bdbc" rx="8" ry="8" stroke="#595959" stroke-width="0"/><rect x="138.89756164029293" y="40" width="39.45997917167793" height="100" fill="#e9e9e9" stroke="white" stroke-width="0.5" rx="8" ry="8"/><text x="158.6275512261319" y="59.5" text-anchor="middle" dominant-baseline="middle" font-weight="bold" font-size="20px">E1</text><rect x="148.89756164029293" y="80" width="2" height="55" fill="black" rx="8" ry="8" stroke="none" stroke-width="0" transform="translate(2,2)" opacity="0.1"/><rect x="148.89756164029293" y="80" width="2" height="55" fill="#ffe599" rx="8" ry="8" stroke="#595959" stroke-width="0"/><rect x="150.89756164029293" y="80" width="5.393069925043068" height="55" fill="black" rx="8" ry="8" stroke="none" stroke-width="0" transform="translate(2,2)" opacity="0.1"/><rect x="150.89756164029293" y="80" width="5.393069925043068" height="55" fill="#b6e2dd" rx="8" ry="8" stroke="#595959" stroke-width="0"/><rect x="156.290631565336" y="80" width="2.0669092466348635" height="55" fill="black" rx="8" ry="8" stroke="none" stroke-width="0" transform="translate(2,2)" opacity="0.1"/><rect x="156.290631565336" y="80" width="2.0669092466348635" height="55" fill="#e6bdbc" rx="8" ry="8" stroke="#595959" stroke-width="0"/><rect x="188.35754081197086" y="40" width="61.741492436871965" height="100" fill="#e9e9e9" stroke="white" stroke-width="0.5" rx="8" ry="8"/><text x="219.22828703040685" y="59.5" text-anchor="middle" dominant-baseline="middle" font-weight="bold" font-size="20px">E2</text><rect x="198.35754081197086" y="80" width="2" height="55" fill="black" rx="8" ry="8" stroke="none" stroke-width="0" transform="translate(2,2)" opacity="0.1"/><rect x="198.35754081197086" y="80" width="2" height="55" fill="#ffe599" rx="8" ry="8" stroke="#595959" stroke-width="0"/><rect x="200.35754081197086" y="80" width="21.531752067885314" height="55" fill="black" rx="8" ry="8" stroke="none" stroke-width="0" transform="translate(2,2)" opacity="0.1"/><rect x="200.35754081197086" y="80" width="21.531752067885314" height="55" fill="#b6e2dd" rx="8" ry="8" stroke="#595959" stroke-width="0"/><rect x="221.88929287985619" y="80" width="8.209740368986656" height="55" fill="black" rx="8" ry="8" stroke="none" stroke-width="0" transform="translate(2,2)" opacity="0.1"/><rect x="221.88929287985619" y="80" width="8.209740368986656" height="55" fill="#e6bdbc" rx="8" ry="8" stroke="#595959" stroke-width="0"/><rect x="260.09903324884283" y="40" width="388.30736374342507" height="100" fill="#e9e9e9" stroke="white" stroke-width="0.5" rx="8" ry="8"/><text x="454.25271512055537" y="59.5" text-anchor="middle" dominant-baseline="middle" font-weight="bold" font-size="20px">E3</text><rect x="270.09903324884283" y="80" width="2" height="55" fill="black" rx="8" ry="8" stroke="none" stroke-width="0" transform="translate(2,2)" opacity="0.1"/><rect x="270.09903324884283" y="80" width="2" height="55" fill="#ffe599" rx="8" ry="8" stroke="#595959" stroke-width="0"/><rect x="272.09903324884283" y="80" width="258.137859020902" height="55" fill="black" rx="8" ry="8" stroke="none" stroke-width="0" transform="translate(2,2)" opacity="0.1"/><rect x="272.09903324884283" y="80" width="258.137859020902" height="55" fill="#b6e2dd" rx="8" ry="8" stroke="#595959" stroke-width="0"/><rect x="530.2368922697449" y="80" width="98.16950472252309" height="55" fill="black" rx="8" ry="8" stroke="none" stroke-width="0" transform="translate(2,2)" opacity="0.1"/><rect x="530.2368922697449" y="80" width="98.16950472252309" height="55" fill="#e6bdbc" rx="8" ry="8" stroke="#595959" stroke-width="0"/><rect x="658.4063969922679" y="40" width="507.68183278110934" height="100" fill="#e9e9e9" stroke="white" stroke-width="0.5" rx="8" ry="8"/><text x="912.2473133828225" y="59.5" text-anchor="middle" dominant-baseline="middle" font-weight="bold" font-size="20px">E4</text><rect x="668.4063969922679" y="80" width="2.9990447892348997" height="55" fill="black" rx="8" ry="8" stroke="none" stroke-width="0" transform="translate(2,2)" opacity="0.1"/><rect x="668.4063969922679" y="80" width="2.9990447892348997" height="55" fill="#ffe599" rx="8" ry="8" stroke="#595959" stroke-width="0"/><rect x="671.4054417815028" y="80" width="344.0217014987215" height="55" fill="black" rx="8" ry="8" stroke="none" stroke-width="0" transform="translate(2,2)" opacity="0.1"/><rect x="671.4054417815028" y="80" width="344.0217014987215" height="55" fill="#b6e2dd" rx="8" ry="8" stroke="#595959" stroke-width="0"/><rect x="1015.4271432802243" y="80" width="130.66108649315294" height="55" fill="black" rx="8" ry="8" stroke="none" stroke-width="0" transform="translate(2,2)" opacity="0.1"/><rect x="1015.4271432802243" y="80" width="130.66108649315294" height="55" fill="#e6bdbc" rx="8" ry="8" stroke="#595959" stroke-width="0"/><rect x="1176.0882297733772" y="40" width="153.25031944639488" height="100" fill="#e9e9e9" stroke="white" stroke-width="0.5" rx="8" ry="8"/><text x="1252.7133894965746" y="59.5" text-anchor="middle" dominant-baseline="middle" font-weight="bold" font-size="20px">D3</text><rect x="1186.0882297733772" y="80" width="4.48119819858651" height="55" fill="black" rx="8" ry="8" stroke="none" stroke-width="0" transform="translate(2,2)" opacity="0.1"/><rect x="1186.0882297733772" y="80" width="4.48119819858651" height="55" fill="#f6b26b" rx="8" ry="8" stroke="#595959" stroke-width="0"/><rect x="1190.5694279719637" y="80" width="86.04595300696734" height="55" fill="black" rx="8" ry="8" stroke="none" stroke-width="0" transform="translate(2,2)" opacity="0.1"/><rect x="1190.5694279719637" y="80" width="86.04595300696734" height="55" fill="#b6e2dd" rx="8" ry="8" stroke="#595959" stroke-width="0"/><rect x="1276.615380978931" y="80" width="32.72316824084103" height="55" fill="black" rx="8" ry="8" stroke="none" stroke-width="0" transform="translate(2,2)" opacity="0.1"/><rect x="1276.615380978931" y="80" width="32.72316824084103" height="55" fill="#e6bdbc" rx="8" ry="8" stroke="#595959" stroke-width="0"/><rect x="1339.3385492197722" y="40" width="61.741492436871965" height="100" fill="#e9e9e9" stroke="white" stroke-width="0.5" rx="8" ry="8"/><text x="1370.209295438208" y="59.5" text-anchor="middle" dominant-baseline="middle" font-weight="bold" font-size="20px">D2</text><rect x="1349.3385492197722" y="80" width="2" height="55" fill="black" rx="8" ry="8" stroke="none" stroke-width="0" transform="translate(2,2)" opacity="0.1"/><rect x="1349.3385492197722" y="80" width="2" height="55" fill="#f6b26b" rx="8" ry="8" stroke="#595959" stroke-width="0"/><rect x="1351.3385492197722" y="80" width="21.531752067885314" height="55" fill="black" rx="8" ry="8" stroke="none" stroke-width="0" transform="translate(2,2)" opacity="0.1"/><rect x="1351.3385492197722" y="80" width="21.531752067885314" height="55" fill="#b6e2dd" rx="8" ry="8" stroke="#595959" stroke-width="0"/><rect x="1372.8703012876574" y="80" width="8.209740368986656" height="55" fill="black" rx="8" ry="8" stroke="none" stroke-width="0" transform="translate(2,2)" opacity="0.1"/><rect x="1372.8703012876574" y="80" width="8.209740368986656" height="55" fill="#e6bdbc" rx="8" ry="8" stroke="#595959" stroke-width="0"/><rect x="1411.0800416566442" y="40" width="39.45997917167793" height="100" fill="#e9e9e9" stroke="white" stroke-width="0.5" rx="8" ry="8"/><text x="1430.810031242483" y="59.5" text-anchor="middle" dominant-baseline="middle" font-weight="bold" font-size="20px">D1</text><rect x="1421.0800416566442" y="80" width="2" height="55" fill="black" rx="8" ry="8" stroke="none" stroke-width="0" transform="translate(2,2)" opacity="0.1"/><rect x="1421.0800416566442" y="80" width="2" height="55" fill="#f6b26b" rx="8" ry="8" stroke="#595959" stroke-width="0"/><rect x="1423.0800416566442" y="80" width="5.393069925043068" height="55" fill="black" rx="8" ry="8" stroke="none" stroke-width="0" transform="translate(2,2)" opacity="0.1"/><rect x="1423.0800416566442" y="80" width="5.393069925043068" height="55" fill="#b6e2dd" rx="8" ry="8" stroke="#595959" stroke-width="0"/><rect x="1428.4731115816874" y="80" width="2.0669092466348635" height="55" fill="black" rx="8" ry="8" stroke="none" stroke-width="0" transform="translate(2,2)" opacity="0.1"/><rect x="1428.4731115816874" y="80" width="2.0669092466348635" height="55" fill="#e6bdbc" rx="8" ry="8" stroke="#595959" stroke-width="0"/><rect x="1460.5400208283222" y="40" width="39.45997917167793" height="100" fill="#e9e9e9" stroke="white" stroke-width="0.5" rx="8" ry="8"/><text x="1480.270010414161" y="59.5" text-anchor="middle" dominant-baseline="middle" font-weight="bold" font-size="20px">D0</text><rect x="1470.5400208283222" y="80" width="2" height="55" fill="black" rx="8" ry="8" stroke="none" stroke-width="0" transform="translate(2,2)" opacity="0.1"/><rect x="1470.5400208283222" y="80" width="2" height="55" fill="#f6b26b" rx="8" ry="8" stroke="#595959" stroke-width="0"/><rect x="1472.5400208283222" y="80" width="5.393069925043068" height="55" fill="black" rx="8" ry="8" stroke="none" stroke-width="0" transform="translate(2,2)" opacity="0.1"/><rect x="1472.5400208283222" y="80" width="5.393069925043068" height="55" fill="#b6e2dd" rx="8" ry="8" stroke="#595959" stroke-width="0"/><rect x="1477.9330907533654" y="80" width="2.0669092466348635" height="55" fill="black" rx="8" ry="8" stroke="none" stroke-width="0" transform="translate(2,2)" opacity="0.1"/><rect x="1477.9330907533654" y="80" width="2.0669092466348635" height="55" fill="#e6bdbc" rx="8" ry="8" stroke="#595959" stroke-width="0"/><g transform="translate(0, 0)"><g transform="translate(280, 4)"><rect width="20" height="20" rx="8" ry="8" stroke="none" stroke-width="0" fill="black" transform="translate(2,2)" opacity="0.1"/><rect width="20" height="20" rx="8" ry="8" stroke="#595959" stroke-width="0" fill="#e377c2"/><text x="30" y="16" font-size="20px">Serialisation</text></g><g transform="translate(470, 4)"><rect width="20" height="20" rx="8" ry="8" stroke="none" stroke-width="0" fill="black" transform="translate(2,2)" opacity="0.1"/><rect width="20" height="20" rx="8" ry="8" stroke="#595959" stroke-width="0" fill="#b6e2dd"/><text x="30" y="16" font-size="20px">Convolution</text></g><g transform="translate(640, 4)"><rect width="20" height="20" rx="8" ry="8" stroke="none" stroke-width="0" fill="black" transform="translate(2,2)" opacity="0.1"/><rect width="20" height="20" rx="8" ry="8" stroke="#595959" stroke-width="0" fill="#e6bdbc"/><text x="30" y="16" font-size="20px">Attention</text></g><g transform="translate(790, 4)"><g transform="translate(10,10)"><circle r="10" fill="black" stroke="none" stroke-width="0" transform="translate(2,2)" opacity="0.1"/><circle r="10" fill="#e9e9e9" stroke="#595959" stroke-width="0"/><path d="M-4.698463103929542,-1.623232616704989A5,5,0,1,1,4.698463103929543,-1.62323261670499L0,6.666666666666666Z" fill="#91191dff" stroke="none"/><circle cx="0" cy="-3.3333333333333335" r="2" fill="#e9e9e9"/></g><text x="30" y="16" font-size="20px">PointROPE</text></g><g transform="translate(940, 4)"><rect width="20" height="20" rx="8" ry="8" stroke="none" stroke-width="0" fill="black" transform="translate(2,2)" opacity="0.1"/><rect width="20" height="20" rx="8" ry="8" stroke="#595959" stroke-width="0" fill="#ffe599"/><text x="30" y="16" font-size="20px">Pooling</text></g><g transform="translate(1070, 4)"><rect width="20" height="20" rx="8" ry="8" stroke="none" stroke-width="0" fill="black" transform="translate(2,2)" opacity="0.1"/><rect width="20" height="20" rx="8" ry="8" stroke="#595959" stroke-width="0" fill="#f6b26b"/><text x="30" y="16" font-size="20px">Unpooling</text></g></g></svg>