<svg width="600" height="203" xmlns="http://www.w3.org/2000/svg" xmlns:xlink="http://www.w3.org/1999/xlink" xml:space="preserve" overflow="hidden"><g transform="translate(-2444 -78)"><g><g><g><g><path d="M27.9983 134.37C25.8547 135.285 25.4605 135.458 25.0211 135.68 24.557 135.918 24.3804 136.123 24.4749 136.628 24.4954 136.747 24.5817 137.002 24.6679 137.199 24.7377 137.355 24.7459 137.454 24.6433 137.491 24.5488 137.536 24.4749 137.45 24.3887 137.236 24.0683 136.489 23.7275 135.589 23.5468 135.158 23.4031 134.821 22.9801 133.947 22.7625 133.442 22.6762 133.228 22.6639 133.117 22.7584 133.076 22.8569 133.031 22.9226 133.105 22.9883 133.249 23.054 133.4 23.0992 133.483 23.206 133.639 23.4401 133.992 23.7275 134 24.2326 133.815 24.6966 133.651 25.0909 133.483 27.2345 132.563L29.2097 131.717C31.2589 130.834 31.9447 130.058 32.2034 129.126 32.458 128.263 32.2362 127.594 32.0268 127.113 31.7681 126.493 31.2424 125.82 30.4294 125.491 29.3206 125.048 28.0311 125.549 26.5774 126.173L24.8075 126.929C22.668 127.853 22.2656 128.021 21.8262 128.239 21.358 128.477 21.1815 128.678 21.2841 129.183 21.3047 129.31 21.3868 129.557 21.4566 129.713 21.5223 129.865 21.5305 129.967 21.432 130.004 21.3334 130.05 21.2636 129.959 21.1774 129.758 20.8735 129.048 20.5367 128.14 20.5326 128.128 20.4587 127.955 20.0357 127.085 19.8017 126.538 19.7154 126.341 19.7031 126.23 19.8017 126.189 19.9002 126.14 19.9659 126.218 20.0357 126.387 20.1056 126.543 20.1548 126.625 20.2575 126.781 20.4916 127.13 20.779 127.142 21.2841 126.957 21.7441 126.793 22.1424 126.621 24.2819 125.701L25.7931 125.056C27.3618 124.383 29.0906 123.824 30.6183 124.576 31.9077 125.208 32.499 126.165 32.8933 127.072 33.2136 127.824 33.7556 129.195 33.267 130.624 32.9261 131.618 32.113 132.6 30.0639 133.479L27.9983 134.37ZM27.4152 118.674C28.5773 118.391 28.9264 118.104 28.9674 117.783 29.0003 117.512 28.951 117.217 28.8976 116.983 28.8607 116.818 28.8689 116.724 28.9674 116.703 29.0824 116.679 29.144 116.806 29.1933 117.015 29.4068 117.989 29.4931 118.601 29.5547 118.884 29.5834 119.019 29.7846 119.713 29.9571 120.498 30.0023 120.695 30.0187 120.83 29.8791 120.863 29.7887 120.884 29.7395 120.793 29.7066 120.646 29.6655 120.449 29.5916 120.19 29.4849 119.989 29.2754 119.623 28.8319 119.664 27.5178 119.927L18.6108 121.742C18.311 121.808 18.0892 121.808 18.0564 121.656 18.0194 121.492 18.1837 121.315 18.3972 120.999 18.5533 120.777 20.4957 117.964 22.1917 115.291 22.9883 114.046 24.7049 111.55 24.8897 111.242L24.8732 111.168 18.1673 112.794C17.2556 113.012 17.0051 113.213 16.9312 113.599 16.8901 113.849 16.9682 114.198 17.0174 114.412 17.0585 114.593 17.0257 114.662 16.9312 114.675 16.8162 114.708 16.7587 114.543 16.7095 114.313 16.5411 113.55 16.4261 112.823 16.3604 112.506 16.3234 112.338 16.1551 111.776 15.9908 111.045 15.9456 110.847 15.9251 110.696 16.0524 110.671 16.1428 110.65 16.2085 110.732 16.2454 110.913 16.2783 111.061 16.307 111.18 16.3891 111.348 16.5986 111.747 16.9435 111.792 17.7854 111.624L27.2838 109.706C27.6123 109.632 27.756 109.665 27.793 109.796 27.8299 109.965 27.7067 110.182 27.5712 110.383 26.8813 111.521 25.3373 113.882 24.1341 115.771 22.8692 117.759 21.3621 119.837 21.1404 120.169L21.1486 120.214 27.4152 118.674ZM20.0029 104.946C17.6786 105.09 17.2433 105.119 16.7546 105.185 16.2372 105.25 15.9826 105.419 15.9292 105.759 15.8923 105.932 15.8923 106.129 15.9046 106.318 15.9128 106.466 15.8881 106.564 15.765 106.573 15.6787 106.581 15.6377 106.462 15.6212 106.215 15.5802 105.632 15.5637 104.663 15.535 104.22 15.5103 103.838 15.4077 102.938 15.3707 102.351 15.3584 102.154 15.383 102.027 15.4734 102.018 15.5925 102.01 15.6335 102.105 15.6418 102.261 15.65 102.413 15.6746 102.532 15.7157 102.717 15.8183 103.127 16.0853 103.234 16.6273 103.222 17.1201 103.222 17.5513 103.197 19.8797 103.049L22.5777 102.877C24.0642 102.79 25.2757 102.708 25.9286 102.61 26.3393 102.532 26.6103 102.413 26.639 101.949 26.6555 101.731 26.6637 101.394 26.6514 101.164 26.6431 100.992 26.6801 100.914 26.7581 100.91 26.8608 100.906 26.9183 101.025 26.9306 101.193 26.9963 102.203 27.0127 103.164 27.0333 103.587 27.0538 103.94 27.1606 104.897 27.2016 105.517 27.2139 105.714 27.177 105.825 27.0661 105.829 26.9881 105.837 26.9429 105.772 26.9306 105.587 26.9183 105.357 26.869 105.176 26.8361 105.041 26.754 104.737 26.4912 104.659 26.0436 104.642 25.3989 104.606 24.1874 104.684 22.7009 104.774L20.0029 104.946ZM16.7177 98.0515C15.8553 98.3513 15.6664 98.6018 15.4775 99.148 15.3954 99.3738 15.3872 99.6161 15.3789 99.7434 15.3707 99.883 15.3214 99.9241 15.227 99.92 15.1079 99.9118 15.0997 99.7434 15.1202 99.5134 15.1736 98.7003 15.2763 97.8298 15.305 97.2918 15.3297 96.9099 15.3297 96.1707 15.383 95.4028 15.3954 95.218 15.4364 95.0537 15.5432 95.0579 15.65 95.0661 15.6746 95.1564 15.6664 95.3001 15.6541 95.5506 15.6541 95.7765 15.7362 95.9038 15.8101 96.0106 15.9087 96.0722 16.0483 96.0763 16.2495 96.0886 16.6848 95.9777 17.2515 95.8011L24.3804 93.6083 24.3846 93.5467C22.7419 92.7746 17.9332 90.4709 16.9435 90.0397 16.7505 89.9535 16.5247 89.8713 16.385 89.8672 16.2618 89.859 16.1345 89.9165 16.0812 90.0479 16.0072 90.2327 15.9826 90.4627 15.9703 90.6557 15.958 90.7953 15.9333 90.9144 15.8307 90.9103 15.7075 90.9021 15.6869 90.7624 15.7034 90.475 15.7526 89.7029 15.8389 89.0664 15.8512 88.8693 15.8676 88.6106 15.8676 87.8838 15.8964 87.4197 15.9087 87.2226 15.9497 87.0994 16.0565 87.1076 16.1633 87.1117 16.1879 87.2062 16.1756 87.3622 16.1592 87.5142 16.1386 87.8345 16.3029 88.126 16.4261 88.3314 16.6725 88.5819 17.6293 89.0582 19.0337 89.7481 19.8345 90.2122 21.666 91.1649 23.8425 92.2901 25.4687 93.1196 26.2078 93.5015 27.0702 93.9532 27.3166 94.0641 27.3002 94.2735 27.2879 94.4706 27.062 94.5487 26.331 94.795L16.7177 98.0515ZM21.0583 84.4589C18.775 83.9661 18.3603 83.8717 17.8716 83.8019 17.3542 83.7239 17.0873 83.7937 16.8778 84.2659 16.8203 84.3727 16.7505 84.6314 16.7053 84.8408 16.6684 85.0092 16.6191 85.0954 16.5164 85.0667 16.4097 85.042 16.4056 84.9353 16.4466 84.7094 16.5329 84.3029 16.6396 83.8717 16.7218 83.498 16.8203 83.1079 16.9066 82.767 16.9558 82.5576 17.0585 82.0771 17.7073 79.0835 17.7484 78.796 17.7772 78.5045 17.8018 78.2581 17.7977 78.1308 17.7977 78.0486 17.773 77.9542 17.7895 77.8762 17.8059 77.8022 17.8716 77.7981 17.9455 77.8146 18.0482 77.8351 18.2124 77.9501 18.8941 78.1431 19.042 78.1924 19.6908 78.3648 19.8633 78.4305 19.9413 78.4634 20.0193 78.5127 19.9947 78.6153 19.9741 78.7139 19.8961 78.7303 19.7565 78.7016 19.6579 78.681 19.3992 78.64 19.2021 78.681 18.9147 78.7262 18.7011 78.8412 18.4424 79.568 18.3562 79.8226 17.9907 81.3872 17.925 81.6952 17.9086 81.7733 17.9455 81.8061 18.0523 81.8266L21.8508 82.6438C21.9535 82.6644 22.0192 82.6644 22.0356 82.574 22.1095 82.2414 22.4791 80.5167 22.5243 80.1635 22.5695 79.798 22.5736 79.5639 22.4504 79.3915 22.3559 79.2601 22.2943 79.182 22.3108 79.1122 22.3231 79.0465 22.3641 79.0137 22.4504 79.026 22.5407 79.0465 22.7707 79.1574 23.5263 79.3832 23.822 79.4654 24.4133 79.6379 24.5201 79.6584 24.6392 79.6871 24.8034 79.7241 24.7747 79.8596 24.7541 79.9664 24.6884 79.9828 24.6104 79.9664 24.4585 79.9458 24.2655 79.9048 24.056 79.9089 23.7398 79.9171 23.4647 80.0814 23.284 80.6234 23.1978 80.9027 22.8569 82.3892 22.7789 82.7506 22.7625 82.8245 22.8241 82.8492 22.9103 82.8738L24.0971 83.1284C24.6104 83.2393 25.9861 83.5555 26.4255 83.6294 27.4686 83.8224 27.7396 83.6294 28.0722 82.0977 28.1584 81.7075 28.294 81.0751 28.1954 80.6481 28.1051 80.221 27.8217 79.9705 27.2304 79.7282 27.0784 79.6666 27.025 79.6255 27.0497 79.5188 27.0825 79.3997 27.1975 79.4243 27.3454 79.4572 27.6903 79.5311 28.6882 79.8719 28.9715 80.0116 29.337 80.2005 29.3124 80.336 29.1851 80.9068 28.9387 82.032 28.7375 82.8533 28.5855 83.4939 28.4172 84.1345 28.3063 84.6026 28.2036 85.0462 28.1667 85.2104 28.0968 85.543 28.0353 85.9044 27.9572 86.2494 27.9079 86.6477 27.8422 86.9475 27.8012 87.1487 27.7355 87.239 27.6287 87.2144 27.5507 87.198 27.5219 87.1282 27.5548 86.9475 27.6082 86.7216 27.6164 86.5368 27.6164 86.3931 27.6205 86.081 27.3084 85.9332 26.8813 85.7853 26.2694 85.5718 25.0827 85.3213 23.7029 85.0174L21.0583 84.4589ZM23.9082 73.4042C21.7317 72.5623 21.3293 72.4063 20.857 72.2625 20.3602 72.1024 20.085 72.1311 19.8017 72.5582 19.7278 72.6609 19.621 72.899 19.543 73.1003 19.4814 73.2563 19.4239 73.3384 19.3212 73.2974 19.2268 73.2563 19.235 73.1454 19.313 72.9278 19.6087 72.1681 19.9988 71.2893 20.1138 70.9813 20.3027 70.4967 20.6805 69.388 20.8529 68.9445 21.202 68.041 21.6578 67.113 22.4873 66.5462 22.9144 66.2506 23.8671 65.959 24.8239 66.3327 25.8875 66.7434 26.6883 67.5606 27.3043 69.466 29.4027 68.809 31.0618 68.3162 32.2732 67.8193 33.4148 67.3388 33.7392 66.7885 33.8706 66.5873 33.9569 66.4436 34.0267 66.3204 34.0677 66.2013 34.1129 66.0863 34.1745 66.0453 34.2484 66.074 34.3634 66.1233 34.3511 66.23 34.2895 66.4025L33.7639 67.7659C33.4559 68.5667 33.2464 68.8993 32.9015 69.1991 32.3307 69.6836 31.4478 69.9711 30.0351 70.3448 29.0249 70.6117 27.7971 70.8992 27.5096 70.9977 27.3987 71.0347 27.3495 71.1168 27.3125 71.2154L26.7992 72.4555C26.7704 72.5295 26.7828 72.5787 26.869 72.6157L27.0702 72.6937C28.4048 73.207 29.5382 73.6464 30.1665 73.8066 30.5936 73.9175 30.9427 73.9544 31.1685 73.5479 31.2794 73.3426 31.4313 73.0387 31.4971 72.8662 31.5463 72.7512 31.6079 72.7101 31.6777 72.7389 31.7763 72.7841 31.7804 72.8949 31.7147 73.0797 31.3903 73.9092 30.9427 74.9564 30.8564 75.1741 30.7538 75.441 30.4417 76.3608 30.224 76.9399 30.146 77.1164 30.0639 77.2027 29.9653 77.1616 29.8914 77.1329 29.8791 77.0672 29.9407 76.8947 30.0269 76.6729 30.0598 76.4923 30.0844 76.3526 30.1378 76.0488 29.8503 75.8475 29.4561 75.6299 28.8812 75.326 27.7519 74.8866 26.4378 74.3774L23.9082 73.4042ZM25.6945 72.1517C25.8506 72.2133 25.9245 72.205 26.0025 72.1229 26.2202 71.8642 26.4296 71.4494 26.5692 71.0922 26.791 70.5132 26.8074 70.3119 26.7171 69.9793 26.5733 69.429 26.0723 68.7556 24.8979 68.3038 22.8651 67.5195 21.7523 68.6365 21.4237 69.4824 21.2882 69.8397 21.1979 70.1025 21.1856 70.2627 21.1774 70.3735 21.2225 70.4269 21.3375 70.468L25.6945 72.1517ZM34.7371 65.7619C34.5195 65.918 34.4332 65.9262 34.1376 65.7578 33.3984 65.3348 32.6305 64.8256 32.4251 64.6942 32.2321 64.571 32.1089 64.4437 32.1705 64.3369 32.2444 64.222 32.3676 64.2712 32.4744 64.3328 32.6469 64.4314 32.959 64.5382 33.2259 64.5956 34.3798 64.8585 35.1929 64.2794 35.6652 63.454 36.3469 62.2508 35.8664 61.1996 35.1601 60.8012 34.4948 60.4316 33.768 60.2838 32.2691 60.8998L31.4396 61.2406C29.4561 62.0578 28.2324 62.0332 27.1523 61.4213 25.6863 60.5836 25.3249 58.7644 26.3803 56.9 26.8731 56.0294 27.3248 55.5449 27.6205 55.2533 27.7108 55.1547 27.793 55.1055 27.8833 55.163 28.0558 55.2574 28.4131 55.5367 29.4561 56.1198 29.7518 56.2882 29.838 56.3867 29.7764 56.4935 29.723 56.5879 29.6204 56.5797 29.4602 56.4935 29.3452 56.4237 28.8894 56.2553 28.3802 56.3374 28.0147 56.399 27.3905 56.5592 26.8977 57.4257 26.3352 58.4112 26.5692 59.3393 27.37 59.791 27.986 60.1401 28.6307 60.0949 30.0967 59.4666L30.5895 59.2531C32.729 58.3209 33.9692 58.2757 35.2422 58.9985 36.0142 59.4379 36.7698 60.2551 36.8561 61.5732 36.9053 62.4849 36.6015 63.3021 36.199 64.0084 35.7514 64.7846 35.3161 65.3307 34.7371 65.7619ZM34.3839 53.0768C32.499 51.7012 32.15 51.4507 31.7352 51.1796 31.2958 50.9045 30.9878 50.8716 30.7332 51.0934 30.5936 51.2002 30.4663 51.3521 30.3595 51.504 30.2692 51.6272 30.1871 51.6847 30.0885 51.6108 30.0146 51.5574 30.0639 51.4383 30.2076 51.2412 30.5526 50.769 31.1562 50.0134 31.4231 49.652 31.649 49.344 32.1459 48.5843 32.4908 48.1121 32.6099 47.9519 32.7044 47.8698 32.7783 47.9232 32.8727 48.0012 32.8481 48.0915 32.7578 48.2147 32.6674 48.3379 32.6058 48.4488 32.5196 48.6131 32.3389 48.9991 32.4744 49.2455 32.8974 49.5863 33.2752 49.9025 33.6242 50.1571 35.5091 51.5328L37.6938 53.1302C38.897 54.009 39.8744 54.7236 40.4493 55.0644 40.8107 55.2697 41.094 55.3478 41.4143 55.011 41.5663 54.855 41.7962 54.5963 41.9276 54.4115 42.0262 54.276 42.1083 54.239 42.1781 54.2842 42.2644 54.354 42.2274 54.4772 42.1247 54.6127 41.5252 55.4299 40.9174 56.1896 40.671 56.5263 40.4616 56.8056 39.9319 57.6228 39.5664 58.1156 39.4473 58.2798 39.3446 58.3373 39.2625 58.2757 39.1968 58.2305 39.1927 58.1525 39.3077 58.0047 39.4432 57.8199 39.5253 57.6515 39.5828 57.5201 39.7101 57.2409 39.5541 57.0068 39.2255 56.7111 38.7492 56.2676 37.7718 55.5531 36.5645 54.6743L34.3839 53.0768ZM38.1702 42.7325 36.6425 44.4367C36.0512 45.1061 35.8623 45.4264 35.9444 45.8247 36.0101 46.0916 36.0882 46.2764 36.158 46.3832 36.2278 46.49 36.2401 46.5639 36.1744 46.6378 36.0964 46.7158 36.0224 46.6871 35.9034 46.5639 35.7227 46.3955 34.9096 45.2252 34.8398 45.1143 34.7248 44.9418 34.6919 44.8474 34.7535 44.7817 34.8398 44.6913 35.0533 44.6872 35.3449 44.4285 35.6857 44.1369 36.1087 43.7345 36.4577 43.3649L40.6382 38.9463C40.979 38.589 41.1761 38.3139 41.3117 38.125 41.4307 37.9238 41.4964 37.8129 41.5416 37.7718 41.6155 37.6938 41.6936 37.7472 41.8619 37.9032 42.096 38.125 42.8352 38.8806 43.1267 39.1598 43.2253 39.2748 43.2746 39.361 43.213 39.4268 43.1267 39.513 43.0528 39.4842 42.8721 39.3405L42.7407 39.242C42.4286 38.9874 41.8332 38.9915 40.8681 39.9688L39.5048 41.3445 44.0836 45.6687C45.1102 46.6378 45.9931 47.4714 46.5269 47.8698 46.8678 48.1244 47.1799 48.2968 47.5412 48.0012 47.7137 47.8657 47.9683 47.6439 48.1244 47.4755 48.2394 47.3524 48.3297 47.3277 48.379 47.3811 48.4611 47.4591 48.4077 47.5741 48.2927 47.6973 47.5987 48.4365 46.9006 49.1058 46.6091 49.4179 46.3627 49.6725 45.7303 50.4117 45.3155 50.8593 45.18 51.0031 45.0691 51.0523 44.9911 50.9743 44.9336 50.9209 44.9418 50.847 45.0732 50.7156 45.2293 50.5472 45.3319 50.3953 45.4059 50.2721 45.5701 50.0052 45.3894 49.7054 45.102 49.3687 44.679 48.8677 43.8043 48.0381 42.7777 47.0608L38.1702 42.7325ZM49.8286 40.8476C49.767 40.8969 49.7629 40.9339 49.7957 41.0283L50.5185 43.2622C50.6376 43.6565 50.8059 43.9932 50.925 44.1369 51.0975 44.3546 51.3316 44.4203 51.6971 44.1246L51.8777 43.9809C52.0215 43.87 52.079 43.8659 52.1323 43.9316 52.2104 44.0261 52.157 44.1082 52.0256 44.215 51.6396 44.5188 51.0934 44.8966 50.7279 45.1882 50.5965 45.295 49.96 45.8576 49.3399 46.3545 49.1839 46.4777 49.0894 46.5146 49.0155 46.4202 48.9539 46.3421 48.9867 46.2847 49.0853 46.2066 49.1921 46.1204 49.3522 45.9726 49.4385 45.8863 49.9354 45.373 49.8368 44.7817 49.5986 43.9932L46.6009 34.0513C46.4694 33.5914 46.4325 33.3984 46.5516 33.3039 46.6583 33.2177 46.8185 33.267 47.1552 33.4477 47.9724 33.8747 53.7996 37.2421 56.0212 38.4576 57.3353 39.1721 57.8199 39.0654 58.1238 38.9216 58.3332 38.8149 58.5221 38.6794 58.6658 38.5685 58.7603 38.4864 58.8342 38.4576 58.8999 38.5356 58.982 38.6301 58.8876 38.7451 58.4482 39.1023 58.017 39.4473 57.1382 40.1454 56.1567 40.8887 55.9309 41.0488 55.7872 41.1638 55.7256 41.0817 55.6681 41.0078 55.6968 40.9503 55.8077 40.8394 55.8775 40.7491 55.8734 40.5725 55.7009 40.478L52.7073 38.6958C52.6374 38.6547 52.58 38.6588 52.5225 38.7081L49.8286 40.8476ZM51.7997 38.2934C51.8572 38.2441 51.8408 38.203 51.7997 38.1743L48.3543 36.0676C48.3051 36.0307 48.2435 35.9814 48.2065 36.006 48.1695 36.0348 48.1942 36.1087 48.2188 36.1744L49.4713 40.0099C49.5042 40.0674 49.5452 40.0961 49.5863 40.0551L51.7997 38.2934ZM59.7787 38.1948C59.5159 38.2318 59.4337 38.1866 59.2613 37.8991 58.8342 37.1682 58.4153 36.3469 58.3045 36.1251 58.2018 35.9198 58.1525 35.7514 58.2593 35.6939 58.3743 35.62 58.4605 35.735 58.518 35.8418 58.6166 36.0142 58.8383 36.2606 59.0354 36.4413 59.906 37.2462 60.8957 37.1394 61.7129 36.6549 62.9038 35.9485 63.0064 34.8028 62.5917 34.0965 62.2098 33.4559 61.6513 32.9631 60.0456 32.7537L59.1545 32.6387C57.0273 32.3635 55.9802 31.7352 55.3437 30.6675 54.4813 29.2138 55.0808 27.4562 56.9164 26.3639 57.7747 25.8547 58.4071 25.6576 58.8055 25.5467 58.941 25.5015 59.0313 25.5015 59.0847 25.6001 59.1833 25.7726 59.3557 26.1873 59.9717 27.2181 60.1442 27.5096 60.1647 27.6451 60.0579 27.7026 59.9717 27.756 59.8814 27.7026 59.791 27.5425 59.7171 27.4234 59.4091 27.0538 58.9328 26.8731 58.5878 26.7417 57.9677 26.5692 57.1095 27.0784 56.1321 27.6616 55.8734 28.5773 56.3415 29.374 56.7029 29.9776 57.2819 30.2651 58.8629 30.4458L59.3968 30.5033C61.7047 30.7579 62.8175 31.3328 63.5649 32.5894 64.0125 33.3573 64.2671 34.4373 63.6799 35.62 63.2692 36.4331 62.5999 36.9875 61.9018 37.4104 61.1462 37.8498 60.4932 38.1086 59.7787 38.1948ZM139.987 27.0374 137.979 25.9286C137.195 25.5015 136.838 25.3824 136.468 25.559 136.213 25.674 136.053 25.8013 135.971 25.8916 135.881 25.9779 135.811 26.0066 135.725 25.9656 135.639 25.9122 135.643 25.83 135.733 25.6822 135.852 25.4728 136.817 24.4133 136.903 24.3188 137.043 24.171 137.133 24.1135 137.211 24.1628 137.318 24.2285 137.372 24.4338 137.688 24.6556 138.049 24.9184 138.538 25.2469 138.969 25.4974L144.217 28.5773C144.644 28.8319 144.956 28.9592 145.17 29.0496 145.392 29.1276 145.515 29.1604 145.568 29.1933 145.658 29.2508 145.63 29.337 145.511 29.5341 145.346 29.8093 144.767 30.7045 144.57 31.0494 144.484 31.1726 144.406 31.2383 144.324 31.1932 144.221 31.1275 144.234 31.0494 144.336 30.84L144.41 30.6922C144.583 30.3267 144.443 29.7518 143.285 29.0331L141.638 28.0065 138.452 33.4394C137.737 34.6591 137.125 35.7062 136.85 36.3099 136.673 36.7082 136.587 37.045 136.949 37.3283 137.121 37.4638 137.392 37.6609 137.589 37.7759 137.737 37.8622 137.782 37.9402 137.741 38.0059 137.688 38.0962 137.56 38.0798 137.413 37.9895 136.542 37.4885 135.733 36.9587 135.359 36.7411 135.06 36.5645 134.201 36.1128 133.667 35.8007 133.495 35.7062 133.425 35.6036 133.479 35.5173 133.52 35.4475 133.594 35.4393 133.754 35.5338 133.951 35.6529 134.127 35.7186 134.263 35.7596 134.559 35.8623 134.809 35.62 135.072 35.2586 135.466 34.7412 136.078 33.694 136.797 32.4744L139.987 27.0374ZM146.907 35.7719C148.43 34.002 148.706 33.6735 149.005 33.2875 149.321 32.8686 149.387 32.6058 149.075 32.1911 149.001 32.0925 148.821 31.9077 148.648 31.764 148.521 31.6531 148.471 31.571 148.541 31.4888 148.615 31.4067 148.714 31.4519 148.886 31.6038 149.502 32.1336 150.208 32.7988 150.558 33.0986 150.837 33.3368 151.601 33.9363 152.019 34.2936 152.192 34.4455 152.258 34.5359 152.184 34.618 152.11 34.7001 152.024 34.6632 151.909 34.5605 151.781 34.4538 151.699 34.4004 151.539 34.3059 151.174 34.0883 150.911 34.2156 150.537 34.5975 150.192 34.9548 149.913 35.2792 148.398 37.0532L147.001 38.6794C145.552 40.3713 145.281 41.3691 145.449 42.3301 145.605 43.2089 146.098 43.7181 146.496 44.0589 147.01 44.4942 147.777 44.872 148.644 44.8104 149.835 44.7242 150.771 43.6975 151.802 42.5025L153.058 41.0488C154.578 39.2748 154.857 38.9504 155.157 38.5644 155.473 38.1414 155.539 37.8786 155.227 37.4638 155.153 37.3653 154.972 37.1846 154.837 37.0655 154.705 36.9587 154.656 36.8725 154.726 36.7945 154.795 36.7123 154.898 36.7575 155.054 36.8971 155.654 37.4063 156.352 38.0716 156.364 38.0839 156.504 38.1989 157.268 38.7985 157.723 39.1886 157.888 39.3282 157.949 39.4268 157.879 39.5048 157.81 39.591 157.719 39.5499 157.58 39.4309 157.452 39.32 157.374 39.2707 157.214 39.1763 156.849 38.9627 156.586 39.0859 156.212 39.4678 155.871 39.821 155.592 40.1495 154.073 41.9194L152.997 43.1637C151.888 44.4572 150.578 45.7221 148.882 45.7221 147.445 45.7221 146.496 45.1307 145.736 44.4819 145.121 43.9521 144.028 42.9543 143.839 41.4554 143.704 40.4123 144.004 39.168 145.453 37.4762L146.907 35.7719ZM158.553 46.7364C160.372 45.2786 160.701 45.0034 161.07 44.6708 161.456 44.3217 161.571 44.0712 161.333 43.6072 161.28 43.4922 161.128 43.2787 160.992 43.1103 160.89 42.9789 160.853 42.8886 160.935 42.8187 161.021 42.753 161.111 42.8187 161.255 42.9953 161.768 43.6277 162.335 44.4162 162.536 44.6626 162.861 45.0732 163.637 45.9479 163.928 46.3216 164.536 47.0772 165.111 47.9355 165.193 48.9375 165.234 49.4549 165.008 50.424 164.208 51.077 163.321 51.7874 162.212 52.0708 160.257 51.656 159.777 53.7996 159.374 55.4833 159.202 56.785 159.046 58.0129 159.358 58.5755 159.461 58.7767 159.547 58.9286 159.617 59.0395 159.699 59.1422 159.777 59.2325 159.781 59.3147 159.719 59.3639 159.625 59.4461 159.534 59.3763 159.415 59.2325L158.5 58.1032C157.958 57.4339 157.777 57.0848 157.699 56.6413 157.559 55.9062 157.756 55.0028 158.134 53.5861 158.405 52.5759 158.775 51.3726 158.836 51.077 158.861 50.9579 158.808 50.8716 158.746 50.7936L157.933 49.7341C157.884 49.6684 157.838 49.652 157.76 49.7136L157.592 49.845C156.479 50.7443 155.535 51.4999 155.083 51.9681 154.767 52.2843 154.561 52.5676 154.804 52.966 154.923 53.1631 155.112 53.4464 155.227 53.5861 155.309 53.6805 155.313 53.7585 155.251 53.8119 155.165 53.8776 155.062 53.8242 154.939 53.6682 154.377 52.9742 153.703 52.0543 153.559 51.8736 153.379 51.6478 152.734 50.9291 152.352 50.4446 152.225 50.2885 152.196 50.1776 152.274 50.1078 152.34 50.0585 152.41 50.0791 152.529 50.2228 152.668 50.3994 152.808 50.5226 152.923 50.617 153.165 50.8183 153.477 50.6663 153.863 50.4363 154.418 50.0914 155.358 49.3235 156.463 48.4447L158.553 46.7364ZM158.742 48.9087C158.61 49.0155 158.582 49.0771 158.615 49.1921 158.734 49.5124 158.984 49.8984 159.226 50.1982 159.612 50.6745 159.785 50.7936 160.113 50.884 160.664 51.0277 161.493 50.9373 162.475 50.1407 164.175 48.7732 163.756 47.2538 163.189 46.5475 162.947 46.2518 162.762 46.0424 162.631 45.952 162.54 45.8822 162.475 45.9027 162.376 45.9767L158.742 48.9087ZM166.688 57.9554C168.7 56.7686 169.07 56.551 169.48 56.2758 169.908 55.9843 170.064 55.7173 169.957 55.3888 169.908 55.2205 169.821 55.0439 169.727 54.8837 169.645 54.7523 169.632 54.6538 169.731 54.5922 169.817 54.547 169.899 54.6414 170.027 54.8468 170.322 55.3519 170.774 56.206 171 56.5879 171.193 56.9206 171.694 57.6762 171.99 58.1772 172.088 58.3496 172.125 58.4728 172.051 58.518 171.948 58.5837 171.875 58.518 171.797 58.3825 171.718 58.2511 171.64 58.1525 171.53 58.0088 171.254 57.6885 170.959 57.7213 170.487 57.9636 170.047 58.1854 169.678 58.4071 167.661 59.5898L165.337 60.9614C164.056 61.7211 163.009 62.3371 162.471 62.7272 162.138 62.9777 161.953 63.2118 162.134 63.6388 162.22 63.84 162.364 64.1439 162.479 64.3452 162.565 64.4889 162.565 64.5833 162.495 64.6162 162.405 64.6737 162.302 64.5874 162.216 64.4437 161.703 63.5731 161.255 62.7149 161.037 62.3576 160.861 62.0537 160.327 61.2447 160.015 60.715 159.916 60.5425 159.904 60.4275 159.99 60.3741 160.06 60.3372 160.126 60.3659 160.224 60.522 160.339 60.7232 160.463 60.8628 160.561 60.9696 160.77 61.2037 161.037 61.1462 161.448 60.9614 162.044 60.7027 163.082 60.0826 164.372 59.3311L166.688 57.9554ZM165.55 67.7289C166.195 65.8358 167.632 64.8092 169.008 64.2384 169.973 63.8359 171.768 63.4458 173.583 64.2918 174.942 64.9242 176.063 66.037 176.938 68.1519 177.303 69.0307 177.464 69.581 177.652 70.2668 177.8 70.8376 177.866 71.3427 177.997 71.7862 178.047 71.9463 178.001 72.0326 177.911 72.0654 177.796 72.1147 177.611 72.1434 177.102 72.32 176.626 72.4884 175.846 72.8251 175.55 72.9114 175.332 72.9894 175.205 73.0017 175.152 72.8785 175.106 72.7635 175.209 72.6896 175.406 72.6116 175.837 72.4145 176.26 72.0202 176.486 71.5152 176.786 70.8417 176.716 69.5769 176.174 68.271 175.661 67.039 175.016 66.3574 174.191 65.9672 172.815 65.3266 171.357 65.6141 169.981 66.1849 166.606 67.5811 165.99 70.8417 166.778 72.743 167.3 74.0119 167.76 74.7141 168.647 75.018 169.016 75.1412 169.505 75.1576 169.776 75.1084 170.027 75.0591 170.088 75.0632 170.142 75.1782 170.183 75.2726 170.092 75.3506 169.981 75.3958 169.813 75.4656 168.507 75.8065 167.965 75.864 167.694 75.8927 167.6 75.864 167.403 75.6586 166.938 75.1905 166.392 74.1515 166.015 73.2399 165.214 71.2934 164.963 69.4824 165.55 67.7289ZM175.657 79.2354C177.936 78.7221 178.355 78.6359 178.823 78.4921 179.328 78.3484 179.541 78.1759 179.537 77.6544 179.537 77.5271 179.496 77.2684 179.451 77.059 179.414 76.8947 179.422 76.7961 179.529 76.7756 179.636 76.751 179.689 76.8495 179.743 77.0754 179.829 77.4819 179.915 77.9172 179.997 78.2909 180.075 78.6851 180.133 79.0342 180.178 79.2354 180.285 79.7159 180.954 82.7013 181.032 82.9806 181.127 83.2598 181.209 83.4939 181.27 83.6048 181.303 83.6787 181.365 83.7567 181.381 83.8347 181.398 83.9128 181.34 83.9374 181.27 83.9538 181.168 83.9743 180.97 83.9415 180.268 84.0483 180.112 84.0688 179.447 84.1838 179.262 84.1961 179.18 84.1961 179.09 84.1879 179.065 84.0893 179.04 83.9867 179.11 83.9374 179.242 83.9086 179.344 83.8881 179.599 83.8142 179.759 83.6951 180.005 83.5267 180.153 83.3378 180.075 82.574 180.051 82.3153 179.726 80.7343 179.652 80.4345 179.636 80.3606 179.582 80.3442 179.48 80.3647L175.689 81.2189C175.583 81.2435 175.525 81.2723 175.546 81.3585 175.624 81.6911 176.006 83.4118 176.121 83.7526 176.227 84.1058 176.326 84.3193 176.507 84.422 176.65 84.5 176.737 84.5369 176.757 84.615 176.77 84.6766 176.753 84.7217 176.667 84.7464 176.577 84.7669 176.326 84.7587 175.546 84.8696 175.242 84.9271 174.63 85.0133 174.527 85.0379 174.412 85.0626 174.248 85.1077 174.211 84.964 174.187 84.8614 174.244 84.8162 174.314 84.7998 174.462 84.7505 174.655 84.7094 174.839 84.6191 175.123 84.4753 175.299 84.2125 175.234 83.6499 175.201 83.3584 174.881 81.8677 174.807 81.5104 174.79 81.4324 174.72 81.4283 174.634 81.4488L173.451 81.7158C172.942 81.8307 171.558 82.1264 171.127 82.2373 170.101 82.4919 169.928 82.7876 170.273 84.3193 170.359 84.7094 170.507 85.3377 170.77 85.6868 171.037 86.0358 171.394 86.1467 172.035 86.1138 172.207 86.1097 172.273 86.1221 172.293 86.2247 172.318 86.3438 172.203 86.3726 172.047 86.4054 171.702 86.4875 170.659 86.5902 170.339 86.582 169.92 86.5656 169.895 86.4301 169.764 85.8592 169.509 84.7423 169.357 83.9045 169.226 83.2557 169.115 82.6069 169.021 82.1387 168.922 81.687 168.885 81.5228 168.815 81.1901 168.717 80.837 168.639 80.492 168.524 80.1101 168.458 79.8103 168.409 79.6173 168.433 79.5023 168.54 79.4777 168.618 79.4613 168.676 79.5106 168.713 79.6912 168.762 79.9171 168.832 80.0896 168.893 80.2169 169.021 80.5002 169.365 80.5043 169.821 80.4715 170.462 80.4017 171.649 80.1388 173.024 79.8309L175.657 79.2354ZM172.831 92.3434C171.632 92.4174 171.242 92.6309 171.148 92.943 171.061 93.2058 171.061 93.5056 171.066 93.7438 171.07 93.9121 171.045 94.0066 170.955 94.0066 170.836 94.0107 170.795 93.8752 170.786 93.6616 170.749 92.6638 170.774 92.0437 170.766 91.7521 170.762 91.6166 170.688 90.8938 170.667 90.1013 170.659 89.9042 170.671 89.7604 170.803 89.7604 170.893 89.7563 170.93 89.8467 170.934 90.0027 170.942 90.2039 170.967 90.4791 171.033 90.6885 171.172 91.0869 171.62 91.1279 172.955 91.1033L182.046 90.9226C182.354 90.9103 182.572 90.9513 182.576 91.1033 182.58 91.2716 182.387 91.4113 182.124 91.6905 181.927 91.8794 179.509 94.3023 177.365 96.6224 176.359 97.7025 174.215 99.8543 173.985 100.121L173.985 100.203 180.872 99.8009C181.812 99.7516 182.096 99.6038 182.235 99.2301 182.322 98.996 182.309 98.6305 182.301 98.4129 182.297 98.2281 182.338 98.1624 182.428 98.1624 182.551 98.1583 182.572 98.3267 182.58 98.5525 182.609 99.3492 182.588 100.092 182.601 100.413 182.605 100.581 182.679 101.164 182.699 101.916 182.703 102.117 182.699 102.269 182.572 102.273 182.486 102.277 182.432 102.187 182.424 102.002 182.42 101.846 182.416 101.731 182.363 101.546 182.223 101.119 181.899 101.004 181.036 101.025L171.349 101.197C171.012 101.209 170.873 101.152 170.864 101.016 170.86 100.848 171.02 100.655 171.185 100.483 172.072 99.4847 174.01 97.452 175.538 95.7929 177.139 94.0641 178.995 92.2901 179.279 92.0026L179.279 91.9574 172.831 92.3434ZM170.77 106.515C170.914 106.281 171 106.252 171.332 106.293 172.166 106.417 173.074 106.605 173.308 106.663 173.534 106.712 173.694 106.774 173.677 106.901 173.661 107.041 173.521 107.032 173.402 107.016 173.201 106.983 172.877 107.004 172.605 107.041 171.431 107.213 170.893 108.051 170.758 108.995 170.56 110.363 171.39 111.164 172.203 111.287 172.95 111.39 173.677 111.262 174.852 110.149L175.501 109.529C177.049 108.051 178.194 107.62 179.426 107.796 181.098 108.043 182.092 109.607 181.796 111.722 181.652 112.708 181.406 113.332 181.242 113.706 181.192 113.833 181.139 113.907 181.028 113.89 180.831 113.862 180.404 113.738 179.217 113.57 178.88 113.521 178.769 113.459 178.786 113.336 178.802 113.229 178.897 113.196 179.081 113.225 179.217 113.242 179.693 113.233 180.141 112.971 180.461 112.782 180.983 112.408 181.122 111.418 181.287 110.301 180.724 109.517 179.817 109.386 179.118 109.291 178.535 109.558 177.398 110.683L177.016 111.065C175.369 112.7 174.223 113.205 172.782 113.003 171.899 112.88 170.901 112.396 170.343 111.197 169.965 110.367 169.944 109.496 170.068 108.692 170.183 107.792 170.388 107.127 170.77 106.515ZM175.369 119.549C177.615 120.182 178.03 120.301 178.515 120.403 179.028 120.514 179.316 120.44 179.48 120.136 179.57 119.989 179.64 119.8 179.689 119.623 179.734 119.475 179.784 119.393 179.907 119.426 179.993 119.455 179.993 119.578 179.923 119.816 179.763 120.383 179.459 121.294 179.332 121.73 179.233 122.099 179.032 122.982 178.872 123.537 178.815 123.73 178.757 123.84 178.663 123.816 178.548 123.779 178.544 123.684 178.58 123.537 178.617 123.389 178.642 123.274 178.663 123.085 178.704 122.662 178.482 122.481 177.973 122.305 177.513 122.14 177.098 122.025 174.852 121.389L172.252 120.646C170.819 120.239 169.653 119.911 169 119.791 168.589 119.722 168.294 119.75 168.109 120.182 168.023 120.383 167.899 120.699 167.838 120.921 167.793 121.085 167.731 121.147 167.653 121.126 167.55 121.097 167.538 120.966 167.583 120.802 167.854 119.833 168.166 118.909 168.277 118.506 168.368 118.169 168.593 117.225 168.762 116.634 168.815 116.441 168.885 116.354 168.992 116.379 169.066 116.399 169.094 116.469 169.045 116.65 168.979 116.868 168.959 117.057 168.959 117.196 168.934 117.508 169.16 117.668 169.571 117.833 170.17 118.083 171.341 118.412 172.77 118.814L175.369 119.549ZM166.323 124.966C166.52 124.777 166.606 124.769 166.922 124.9 167.694 125.233 168.52 125.664 168.733 125.766 168.942 125.873 169.074 125.988 169.029 126.095 168.975 126.222 168.84 126.181 168.729 126.132 168.548 126.054 168.224 125.988 167.957 125.951 166.778 125.816 166.039 126.477 165.657 127.356 165.107 128.625 165.702 129.614 166.446 129.939 167.136 130.23 167.875 130.308 169.296 129.524L170.08 129.097C171.961 128.07 173.18 127.959 174.322 128.456 175.87 129.126 176.425 130.904 175.579 132.858 175.18 133.778 174.79 134.308 174.527 134.632 174.445 134.747 174.371 134.801 174.273 134.756 174.092 134.669 173.702 134.444 172.605 133.967 172.298 133.836 172.199 133.741 172.252 133.63 172.293 133.54 172.396 133.532 172.569 133.602 172.696 133.655 173.164 133.774 173.657 133.639 174.018 133.548 174.614 133.314 175.012 132.398 175.464 131.355 175.131 130.456 174.285 130.091 173.636 129.811 173.004 129.922 171.612 130.702L171.148 130.965C169.127 132.115 167.895 132.3 166.552 131.725 165.735 131.372 164.898 130.641 164.672 129.343 164.524 128.44 164.742 127.598 165.062 126.855 165.419 126.046 165.793 125.454 166.323 124.966ZM56.6331 171.542C56.5345 171.542 56.4031 171.534 56.165 171.46 55.9473 171.398 55.8775 171.222 55.7954 170.696L55.0192 165.563C54.9823 165.366 54.8796 165.247 54.7564 165.238 54.6373 165.242 54.5429 165.337 54.4731 165.485L52.2227 170.051 49.9805 165.542C49.8738 165.308 49.7752 165.238 49.652 165.238 49.5329 165.242 49.4385 165.357 49.4179 165.509L48.5679 170.934C48.5309 171.209 48.4365 171.513 48.2763 171.517 48.1449 171.534 48.0874 171.534 48.0217 171.534 47.919 171.534 47.8205 171.583 47.8164 171.686 47.8164 171.817 47.9519 171.85 48.0422 171.85 48.3215 171.85 48.7321 171.817 48.8964 171.817 49.0483 171.817 49.4385 171.85 49.8039 171.85 49.923 171.85 50.0709 171.829 50.0791 171.686 50.0668 171.575 49.9723 171.538 49.8738 171.534 49.7998 171.534 49.73 171.525 49.5863 171.497 49.4426 171.46 49.381 171.427 49.3769 171.316 49.3769 171.189 49.3851 171.078 49.4056 170.934L49.7916 167.871C50.0791 168.466 50.5103 169.345 50.5719 169.493 50.6704 169.739 51.3521 171 51.5615 171.386 51.7012 171.636 51.7833 171.817 51.9681 171.842 52.1323 171.825 52.1775 171.714 52.3746 171.332L54.1487 167.776 54.5963 171.193C54.6045 171.267 54.6086 171.324 54.6086 171.369 54.6086 171.464 54.5963 171.46 54.6004 171.468 54.5388 171.493 54.4649 171.53 54.4566 171.62 54.469 171.739 54.5757 171.78 54.7769 171.788 55.1219 171.809 56.3456 171.85 56.5674 171.85 56.6947 171.846 56.8384 171.838 56.859 171.686 56.8302 171.575 56.7193 171.542 56.6331 171.542ZM63.6511 166.401C62.6902 165.427 61.216 165.436 60.1442 165.436 59.6268 165.436 59.0067 165.452 58.7439 165.452 58.4975 165.452 57.9513 165.436 57.4996 165.436 57.3846 165.436 57.245 165.444 57.2368 165.579 57.2409 165.698 57.3558 165.739 57.4544 165.739 57.5776 165.739 57.7254 165.748 57.7788 165.764 58.0375 165.85 58.0704 165.879 58.0991 166.154 58.1114 166.413 58.1114 166.647 58.1114 167.916L58.1114 169.374C58.1114 170.146 58.1114 170.795 58.0704 171.139 58.0334 171.39 57.9924 171.493 57.8651 171.525 57.7911 171.542 57.7008 171.55 57.5817 171.55 57.4544 171.55 57.3764 171.632 57.3764 171.71 57.3805 171.825 57.4955 171.866 57.6146 171.866 57.7911 171.866 58.0088 171.858 58.2141 171.846 58.4235 171.846 58.6124 171.833 58.7028 171.833 58.9163 171.833 59.2243 171.858 59.5652 171.887 59.906 171.907 60.2838 171.936 60.5959 171.936 62.2015 171.936 63.1255 171.341 63.5321 170.938 64.029 170.45 64.4889 169.645 64.4889 168.573 64.4848 167.554 64.0906 166.844 63.6511 166.401ZM63.1091 168.799C63.1091 169.649 62.9366 170.367 62.4028 170.803 61.8977 171.226 61.3433 171.357 60.5713 171.357 59.906 171.361 59.5857 171.176 59.5036 171.057 59.4584 171.008 59.4214 170.704 59.4173 170.507 59.405 170.343 59.3927 169.706 59.3927 168.827L59.3927 167.78C59.3927 167.127 59.3927 166.442 59.405 166.154 59.4173 166.068 59.405 166.08 59.4707 166.056 59.5077 166.027 59.8074 165.994 59.9758 165.998 60.6452 165.998 61.5609 166.084 62.333 166.77 62.6984 167.095 63.1091 167.764 63.1091 168.799ZM71.2523 170.15C71.1373 170.146 71.084 170.252 71.0799 170.376 71.0552 170.511 70.9402 170.745 70.8006 170.897 70.4803 171.254 70.0902 171.316 69.3305 171.316 68.2135 171.312 66.7228 170.404 66.7187 168.478 66.7187 167.674 66.8748 166.893 67.4908 166.368 67.8644 166.051 68.3244 165.916 69.0677 165.916 69.8438 165.916 70.4105 166.121 70.6815 166.384 70.8827 166.585 70.9854 166.86 70.9936 167.111 70.9936 167.205 71.01 167.349 71.1538 167.357 71.3016 167.345 71.3304 167.201 71.3386 167.09 71.3468 166.922 71.3468 166.462 71.3673 166.187 71.3837 165.9 71.4084 165.801 71.4084 165.727 71.4166 165.641 71.3262 165.563 71.2154 165.563 70.9649 165.53 70.6856 165.472 70.3612 165.423 69.967 165.374 69.6385 165.337 69.0964 165.337 67.8111 165.337 66.961 165.678 66.3245 166.24 65.4827 166.996 65.2938 167.99 65.2938 168.565 65.2938 169.378 65.5237 170.351 66.3943 171.07 67.1951 171.743 68.2094 171.99 69.3921 171.99 69.9547 171.99 70.6076 171.94 70.9731 171.797 71.125 171.743 71.2072 171.661 71.24 171.513 71.3262 171.217 71.4248 170.507 71.4248 170.392 71.4166 170.277 71.3796 170.162 71.2523 170.15ZM78.1431 170.15C78.0281 170.146 77.9747 170.252 77.9665 170.376 77.946 170.511 77.8269 170.745 77.6914 170.897 77.367 171.254 76.9809 171.316 76.2212 171.316 75.1001 171.312 73.6095 170.404 73.6054 168.478 73.6054 167.674 73.7614 166.893 74.3774 166.368 74.7552 166.051 75.211 165.916 75.9543 165.916 76.7345 165.916 77.2971 166.121 77.5723 166.384 77.7735 166.585 77.8679 166.86 77.8803 167.111 77.8803 167.205 77.9049 167.349 78.0404 167.357 78.1924 167.345 78.217 167.201 78.2252 167.09 78.2334 166.922 78.2334 166.462 78.2581 166.187 78.2745 165.9 78.295 165.801 78.2991 165.727 78.3032 165.641 78.2129 165.563 78.1061 165.563 77.8515 165.53 77.5764 165.472 77.252 165.423 76.8536 165.374 76.5251 165.337 75.9872 165.337 74.6977 165.337 73.8477 165.678 73.2111 166.24 72.3693 166.996 72.1804 167.99 72.1804 168.565 72.1804 169.378 72.4104 170.351 73.2851 171.07 74.0817 171.743 75.096 171.99 76.2787 171.99 76.8413 171.99 77.4984 171.94 77.8597 171.797 78.0117 171.743 78.0979 171.661 78.1226 171.513 78.2088 171.217 78.3073 170.507 78.3114 170.392 78.3073 170.277 78.2704 170.162 78.1431 170.15ZM85.0338 170.15C84.923 170.146 84.8655 170.252 84.8572 170.376 84.8326 170.511 84.7176 170.745 84.5862 170.897 84.2618 171.254 83.8717 171.316 83.112 171.316 81.995 171.312 80.5043 170.404 80.5043 168.478 80.5043 167.674 80.6563 166.893 81.2723 166.368 81.6501 166.051 82.1059 165.916 82.8533 165.916 83.6294 165.916 84.1961 166.121 84.4712 166.384 84.6725 166.585 84.7751 166.86 84.7833 167.111 84.7833 167.205 84.8039 167.349 84.9435 167.357 85.0954 167.345 85.1201 167.201 85.1283 167.09 85.1365 166.922 85.1365 166.462 85.157 166.187 85.1776 165.9 85.194 165.801 85.194 165.727 85.2022 165.641 85.116 165.563 85.0051 165.563 84.7546 165.53 84.4753 165.472 84.1468 165.423 83.7567 165.374 83.4282 165.337 82.8861 165.337 81.5967 165.337 80.7466 165.678 80.106 166.24 79.2642 166.996 79.0753 167.99 79.0753 168.565 79.0753 169.378 79.3093 170.351 80.1799 171.07 80.9766 171.743 81.9909 171.99 83.1736 171.99 83.7403 171.99 84.3932 171.94 84.7587 171.797 84.9065 171.743 84.9928 171.661 85.0215 171.513 85.1119 171.217 85.2063 170.507 85.2104 170.392 85.1981 170.277 85.1611 170.162 85.0338 170.15ZM118.28 171.542C118.202 171.542 118.071 171.534 117.968 171.497 117.792 171.435 117.673 171.365 117.533 171.189 117.332 170.938 115.977 168.803 115.648 168.302L117.044 166.392C117.307 166.027 117.471 165.813 117.627 165.785 117.738 165.756 117.845 165.739 117.919 165.739 118.022 165.739 118.124 165.682 118.128 165.579 118.12 165.452 117.997 165.431 117.898 165.431 117.57 165.431 117.217 165.452 117.057 165.452 116.892 165.452 116.49 165.431 116.153 165.431 116.034 165.431 115.907 165.452 115.898 165.579 115.903 165.694 116.001 165.739 116.075 165.739 116.145 165.739 116.256 165.739 116.33 165.764 116.408 165.78 116.428 165.826 116.428 165.838 116.428 165.891 116.404 165.998 116.338 166.101 116.206 166.318 115.537 167.304 115.237 167.739 114.913 167.197 114.576 166.647 114.219 166.023 114.174 165.941 114.133 165.83 114.133 165.809 114.133 165.801 114.141 165.772 114.202 165.756 114.264 165.739 114.35 165.731 114.391 165.731 114.478 165.731 114.593 165.69 114.597 165.571 114.588 165.444 114.461 165.423 114.35 165.423 114.026 165.423 113.496 165.444 113.381 165.444 112.966 165.444 112.277 165.423 112.071 165.423 111.973 165.427 111.845 165.427 111.825 165.563 111.825 165.649 111.891 165.731 111.981 165.731 112.059 165.731 112.19 165.748 112.322 165.789 112.601 165.879 112.757 166.043 112.979 166.372L114.461 168.688 112.814 170.922C112.519 171.328 112.396 171.435 112.166 171.505 112.051 171.534 111.919 171.542 111.87 171.542 111.771 171.546 111.685 171.616 111.685 171.71 111.685 171.805 111.784 171.858 111.882 171.858L112.03 171.858C112.17 171.858 112.593 171.825 112.753 171.825 112.966 171.825 113.529 171.858 113.587 171.858L113.743 171.858C113.853 171.858 113.981 171.842 113.989 171.71 113.981 171.608 113.903 171.55 113.812 171.542 113.751 171.542 113.689 171.534 113.628 171.534 113.574 171.534 113.537 171.493 113.537 171.46 113.537 171.456 113.537 171.447 113.537 171.447 113.537 171.386 113.578 171.275 113.652 171.16L114.855 169.3C115.237 169.912 115.681 170.663 116.153 171.435 116.17 171.464 116.174 171.484 116.174 171.493 116.174 171.513 116.165 171.513 116.165 171.513 116.079 171.534 115.997 171.599 115.997 171.69 116.022 171.838 116.153 171.829 116.367 171.846 117.073 171.866 117.759 171.866 117.968 171.866L118.223 171.866C118.321 171.866 118.449 171.833 118.465 171.71 118.457 171.604 118.367 171.542 118.28 171.542ZM125.582 171.542C125.508 171.542 125.376 171.534 125.27 171.497 125.093 171.435 124.978 171.365 124.838 171.189 124.637 170.938 123.282 168.803 122.949 168.302L124.35 166.392C124.613 166.027 124.777 165.813 124.929 165.785 125.044 165.756 125.15 165.739 125.224 165.739 125.327 165.739 125.43 165.682 125.43 165.579 125.426 165.452 125.302 165.431 125.204 165.431 124.879 165.431 124.526 165.452 124.362 165.452 124.198 165.452 123.795 165.431 123.463 165.431 123.344 165.431 123.208 165.452 123.208 165.579 123.212 165.694 123.315 165.739 123.385 165.739 123.459 165.739 123.565 165.739 123.639 165.764 123.717 165.78 123.738 165.826 123.734 165.838 123.734 165.891 123.709 165.998 123.647 166.101 123.516 166.318 122.847 167.304 122.543 167.739 122.223 167.193 121.886 166.647 121.529 166.023 121.479 165.941 121.442 165.83 121.446 165.809 121.446 165.801 121.451 165.776 121.512 165.756 121.578 165.739 121.66 165.731 121.705 165.731 121.791 165.731 121.906 165.69 121.91 165.571 121.902 165.444 121.775 165.423 121.66 165.423 121.336 165.423 120.806 165.444 120.699 165.444 120.284 165.444 119.59 165.423 119.389 165.423 119.286 165.427 119.163 165.427 119.143 165.563 119.143 165.649 119.212 165.731 119.295 165.731 119.377 165.731 119.512 165.748 119.635 165.789 119.919 165.879 120.075 166.043 120.292 166.372L121.779 168.688 120.128 170.922C119.837 171.328 119.713 171.435 119.483 171.505 119.364 171.534 119.237 171.542 119.192 171.542 119.089 171.546 119.007 171.616 119.003 171.71 119.003 171.805 119.097 171.858 119.2 171.858L119.348 171.858C119.492 171.858 119.911 171.825 120.071 171.825 120.284 171.825 120.847 171.858 120.904 171.858L121.06 171.858C121.167 171.858 121.299 171.842 121.307 171.71 121.299 171.608 121.221 171.55 121.13 171.542 121.069 171.542 121.003 171.534 120.945 171.534 120.892 171.534 120.855 171.501 120.851 171.46 120.851 171.456 120.851 171.447 120.851 171.447 120.851 171.386 120.892 171.275 120.966 171.16L122.165 169.3C122.543 169.912 122.99 170.663 123.467 171.435 123.483 171.464 123.487 171.484 123.487 171.493 123.487 171.509 123.479 171.513 123.479 171.513 123.393 171.534 123.311 171.599 123.311 171.69 123.335 171.838 123.467 171.829 123.68 171.846 124.383 171.866 125.068 171.866 125.278 171.866L125.532 171.866C125.631 171.866 125.758 171.833 125.771 171.71 125.758 171.604 125.672 171.542 125.582 171.542ZM132.883 171.542C132.805 171.542 132.678 171.534 132.571 171.497 132.394 171.435 132.275 171.365 132.136 171.189 131.934 170.938 130.579 168.803 130.251 168.302L131.651 166.392C131.91 166.027 132.078 165.813 132.23 165.785 132.345 165.756 132.448 165.739 132.526 165.739 132.624 165.739 132.727 165.682 132.731 165.579 132.723 165.452 132.6 165.431 132.505 165.431 132.181 165.431 131.824 165.452 131.663 165.452 131.499 165.452 131.093 165.431 130.76 165.431 130.645 165.431 130.51 165.452 130.505 165.579 130.51 165.694 130.608 165.739 130.682 165.739 130.748 165.739 130.863 165.739 130.932 165.764 131.015 165.78 131.035 165.826 131.031 165.838 131.031 165.891 131.006 165.998 130.945 166.101 130.813 166.318 130.144 167.304 129.84 167.739 129.516 167.197 129.179 166.647 128.822 166.023 128.777 165.941 128.74 165.83 128.74 165.809 128.74 165.801 128.748 165.772 128.805 165.756 128.867 165.739 128.953 165.731 128.994 165.731 129.08 165.731 129.195 165.69 129.2 165.571 129.191 165.444 129.068 165.423 128.953 165.423 128.629 165.423 128.099 165.444 127.984 165.444 127.577 165.444 126.883 165.423 126.682 165.423 126.575 165.427 126.448 165.427 126.432 165.563 126.432 165.649 126.506 165.731 126.588 165.731 126.67 165.731 126.801 165.748 126.929 165.789 127.212 165.879 127.368 166.043 127.582 166.372L129.072 168.688 127.421 170.922C127.126 171.328 127.007 171.435 126.777 171.505 126.658 171.534 126.534 171.542 126.481 171.542 126.387 171.546 126.296 171.616 126.296 171.71 126.296 171.805 126.395 171.858 126.489 171.858L126.637 171.858C126.781 171.858 127.204 171.825 127.364 171.825 127.577 171.825 128.136 171.858 128.189 171.858L128.345 171.858C128.456 171.858 128.588 171.842 128.596 171.71 128.588 171.608 128.51 171.55 128.419 171.542 128.349 171.542 128.288 171.534 128.234 171.534 128.177 171.534 128.14 171.501 128.136 171.46L128.136 171.447C128.136 171.386 128.177 171.275 128.251 171.16L129.454 169.3C129.832 169.912 130.28 170.663 130.748 171.435 130.764 171.464 130.772 171.484 130.772 171.493 130.772 171.509 130.76 171.513 130.76 171.513 130.674 171.534 130.592 171.599 130.592 171.69 130.62 171.838 130.748 171.825 130.965 171.846 131.672 171.866 132.357 171.866 132.563 171.866L132.817 171.866C132.92 171.866 133.047 171.833 133.06 171.71 133.056 171.604 132.969 171.542 132.883 171.542ZM137.376 171.542C137.252 171.542 137.055 171.534 136.949 171.513 136.714 171.464 136.698 171.406 136.665 171.185 136.628 170.84 136.628 170.174 136.628 169.378L136.628 167.916C136.628 166.647 136.628 166.421 136.645 166.154 136.673 165.871 136.706 165.813 136.903 165.768 137.002 165.748 137.064 165.739 137.15 165.739 137.236 165.739 137.359 165.69 137.359 165.571 137.339 165.436 137.215 165.436 137.109 165.431 136.776 165.431 136.213 165.452 136 165.452 135.758 165.452 135.17 165.431 134.846 165.431 134.719 165.436 134.591 165.431 134.575 165.571 134.575 165.69 134.69 165.739 134.784 165.739 134.887 165.739 134.99 165.748 135.076 165.776 135.24 165.838 135.294 165.879 135.322 166.154 135.331 166.413 135.331 166.647 135.331 167.916L135.331 169.378C135.331 170.174 135.331 170.84 135.289 171.176 135.253 171.423 135.228 171.476 135.088 171.517 135.014 171.534 134.924 171.542 134.801 171.542 134.674 171.542 134.591 171.624 134.591 171.702 134.595 171.821 134.719 171.858 134.83 171.858 135.175 171.858 135.766 171.825 135.951 171.825 136.181 171.825 136.772 171.858 137.339 171.858 137.441 171.858 137.565 171.825 137.577 171.702 137.585 171.616 137.495 171.542 137.376 171.542ZM142.595 171.542C142.472 171.542 142.275 171.534 142.168 171.513 141.938 171.464 141.922 171.406 141.885 171.185 141.844 170.84 141.844 170.174 141.844 169.378L141.844 167.916C141.844 166.647 141.844 166.421 141.864 166.154 141.897 165.871 141.926 165.813 142.127 165.768 142.221 165.748 142.287 165.739 142.369 165.739 142.455 165.739 142.579 165.69 142.579 165.571 142.554 165.436 142.439 165.436 142.328 165.431 141.991 165.431 141.433 165.452 141.219 165.452 140.973 165.452 140.39 165.431 140.065 165.431 139.934 165.436 139.811 165.431 139.79 165.571 139.79 165.69 139.909 165.739 139.996 165.739 140.098 165.739 140.205 165.748 140.287 165.776 140.451 165.838 140.501 165.879 140.534 166.154 140.546 166.413 140.546 166.647 140.546 167.916L140.546 169.378C140.546 170.174 140.546 170.84 140.501 171.176 140.464 171.423 140.439 171.476 140.299 171.517 140.226 171.534 140.135 171.542 140.016 171.542 139.889 171.542 139.807 171.624 139.807 171.702 139.811 171.821 139.93 171.858 140.045 171.858 140.39 171.858 140.977 171.825 141.166 171.825 141.4 171.825 141.987 171.858 142.554 171.858 142.657 171.858 142.784 171.825 142.796 171.702 142.8 171.616 142.714 171.542 142.595 171.542ZM147.814 171.542C147.691 171.542 147.498 171.534 147.387 171.513 147.153 171.464 147.137 171.406 147.104 171.185 147.063 170.84 147.063 170.174 147.063 169.378L147.063 167.916C147.063 166.647 147.063 166.421 147.083 166.154 147.112 165.871 147.141 165.813 147.342 165.768 147.441 165.748 147.502 165.739 147.589 165.739 147.675 165.739 147.794 165.69 147.794 165.571 147.773 165.436 147.65 165.436 147.547 165.431 147.215 165.431 146.652 165.452 146.439 165.452 146.196 165.452 145.609 165.431 145.285 165.431 145.157 165.436 145.03 165.431 145.014 165.571 145.014 165.69 145.129 165.739 145.219 165.739 145.322 165.739 145.424 165.748 145.511 165.776 145.679 165.838 145.728 165.879 145.757 166.154 145.765 166.413 145.765 166.647 145.765 167.916L145.765 169.378C145.765 170.174 145.765 170.84 145.728 171.176 145.691 171.423 145.667 171.476 145.527 171.517 145.449 171.534 145.363 171.542 145.24 171.542 145.112 171.542 145.034 171.624 145.034 171.702 145.038 171.821 145.162 171.858 145.272 171.858 145.617 171.858 146.209 171.825 146.398 171.825 146.628 171.825 147.219 171.858 147.786 171.858 147.884 171.858 148.012 171.825 148.02 171.702 148.02 171.612 147.933 171.542 147.814 171.542ZM96.1173 131.302 96.1173 126.424C96.1173 125.512 95.3782 124.773 94.4665 124.773 93.5549 124.773 92.8157 125.52 92.8157 126.424L92.8157 131.302 96.1173 131.302ZM105.057 131.302 105.057 126.424C105.057 125.512 104.318 124.773 103.411 124.773 102.491 124.773 101.756 125.52 101.756 126.424L101.756 131.302 105.057 131.302ZM98.9344 33.1643C97.9817 33.1643 97.2015 33.9404 97.2015 34.8973 97.2015 35.8541 97.9776 36.6302 98.9344 36.6302 99.8912 36.6302 100.671 35.8582 100.671 34.8973 100.667 33.9404 99.8912 33.1643 98.9344 33.1643ZM98.0597 81.5269 99.8091 81.5269 99.8091 77.7694 98.0597 77.7694 98.0597 81.5269ZM81.4735 176.338C80.5208 176.338 79.7405 177.11 79.7405 178.071 79.7405 179.032 80.5167 179.804 81.4735 179.804 82.4303 179.804 83.2105 179.032 83.2105 178.071 83.2105 177.11 82.4303 176.338 81.4735 176.338ZM80.4222 81.5926 80.4222 76.0693C80.4099 74.7757 79.7734 73.8805 78.8207 73.4616 77.872 73.8805 77.2355 74.7716 77.2232 76.0734L77.2232 81.5926 80.4222 81.5926ZM80.4222 63.8483 80.4222 60.2838C80.4099 58.9902 79.7734 58.0909 78.8207 57.6679 77.872 58.095 77.2355 58.9861 77.2232 60.2838L77.2232 63.8442 80.4222 63.8442ZM79.6748 100.77 79.6748 96.142C79.6748 95.6656 79.2929 95.2837 78.8166 95.2837 78.3402 95.2837 77.9583 95.6656 77.9583 96.142L77.9583 100.77 79.6748 100.77ZM79.6748 114.699 79.6748 110.075C79.6748 109.599 79.2929 109.209 78.8166 109.209 78.3402 109.209 77.9583 109.599 77.9583 110.075L77.9583 114.699 79.6748 114.699ZM80.1799 130.263 80.1799 126.157C80.1799 125.385 79.5598 124.764 78.7919 124.764 78.0199 124.764 77.4039 125.385 77.4039 126.157L77.4039 130.263 80.1799 130.263ZM78.8207 13.9991C77.8638 13.9991 77.0877 14.7753 77.0877 15.7321 77.0877 16.6889 77.8597 17.4651 78.8207 17.4651 79.7734 17.4651 80.5536 16.693 80.5536 15.7321 80.5536 14.7753 79.7775 13.9991 78.8207 13.9991ZM120.629 81.5926 120.629 76.0693C120.621 74.7757 119.98 73.8805 119.032 73.4616 118.083 73.8805 117.443 74.7716 117.434 76.0734L117.434 81.5926 120.629 81.5926ZM120.629 63.8483 120.629 60.2838C120.621 58.9902 119.98 58.0909 119.032 57.6679 118.083 58.095 117.443 58.9861 117.434 60.2838L117.434 63.8442 120.629 63.8442ZM119.886 100.77 119.886 96.142C119.886 95.6656 119.5 95.2837 119.028 95.2837 118.555 95.2837 118.169 95.6656 118.169 96.142L118.169 100.77 119.886 100.77ZM119.886 114.699 119.886 110.075C119.886 109.599 119.5 109.209 119.028 109.209 118.555 109.209 118.169 109.599 118.169 110.075L118.169 114.699 119.886 114.699ZM120.391 130.263 120.391 126.157C120.391 125.385 119.771 124.764 119.003 124.764 118.231 124.764 117.615 125.385 117.615 126.157L117.615 130.263 120.391 130.263ZM119.028 13.9991C118.071 13.9991 117.295 14.7753 117.295 15.7321 117.295 16.6889 118.067 17.4651 119.028 17.4651 119.98 17.4651 120.761 16.693 120.761 15.7321 120.765 14.7753 119.989 13.9991 119.028 13.9991ZM246.839 87.7154C231.078 87.7154 227.526 79.1328 227.526 69.5851L227.526 36.9505 237.144 36.9505 237.144 68.9937C237.144 75.2849 239.217 79.7241 247.504 79.7241 254.904 79.7241 258.013 76.6155 258.013 68.1067L258.013 36.9505 267.561 36.9505 267.561 67.5113C267.561 81.2024 260.009 87.7154 246.839 87.7154ZM300.413 86.9023 300.413 63.376C300.413 59.5241 299.374 57.2327 295.896 57.2327 291.083 57.2327 287.309 62.7108 287.309 69.1457L287.309 86.9064 277.835 86.9064 277.835 50.1284 286.792 50.1284C286.792 51.8326 286.648 54.7154 286.274 56.6413L286.352 56.7193C288.574 52.3541 292.865 49.3153 298.861 49.3153 307.148 49.3153 309.809 54.6455 309.809 61.0805L309.809 86.9064 300.413 86.9023ZM324.834 45.3853C321.578 45.3853 318.987 42.7941 318.987 39.6157 318.987 36.507 321.578 33.9117 324.834 33.9117 328.091 33.9117 330.748 36.429 330.748 39.6157 330.752 42.7982 328.091 45.3853 324.834 45.3853ZM320.095 86.9023 320.095 50.1243 329.569 50.1243 329.569 86.9023 320.095 86.9023ZM358.134 86.9023 348.513 86.9023 334.904 50.1243 345.256 50.1243 351.104 66.6982C351.991 69.2155 352.886 72.1763 353.551 74.8373L353.695 74.8373C354.291 72.3241 355.026 69.5071 355.913 66.9939L361.83 50.1243 371.895 50.1243 358.134 86.9023ZM405.712 70.0327 382.917 70.0327C382.843 76.9152 386.252 80.2374 393.056 80.2374 396.686 80.2374 400.608 79.4243 403.786 77.9419L404.673 85.2679C400.752 86.8202 396.091 87.6333 391.504 87.6333 379.808 87.6333 373.3 81.7897 373.3 68.8418 373.3 57.594 379.517 49.3029 390.539 49.3029 401.261 49.3029 406.008 56.629 406.008 65.7291 406.008 66.9939 405.934 68.4763 405.712 70.0327ZM390.243 56.2676C386.321 56.2676 383.582 59.1545 383.065 63.5937L396.608 63.5937C396.756 59.0026 394.243 56.2676 390.243 56.2676ZM433.608 58.633C426.804 57.2244 423.403 61.6677 423.403 71.8806L423.403 86.9023 413.925 86.9023 413.925 50.1243 422.882 50.1243C422.882 51.9722 422.656 54.933 422.217 57.5242L422.364 57.5242C424.143 52.8633 427.695 48.7937 434.06 49.3112L433.608 58.633ZM446.556 87.6415C443.899 87.6415 441.226 87.3499 438.86 86.9803L439.086 79.2067C441.382 79.8021 444.186 80.3195 447.008 80.3195 450.634 80.3195 452.999 78.8371 452.999 76.3937 452.999 69.8849 438.129 73.5766 438.129 61.0764 438.129 54.6414 443.378 49.3112 453.742 49.3112 455.886 49.3112 458.26 49.6068 460.477 49.9764L460.19 57.4503C458.116 56.8507 455.668 56.4894 453.381 56.4894 449.681 56.4894 447.907 57.9677 447.907 60.2633 447.907 66.2588 463.003 63.5978 463.003 75.5108 462.986 82.7588 456.621 87.6415 446.556 87.6415ZM475.786 45.3853C472.53 45.3853 469.938 42.7941 469.938 39.6157 469.938 36.507 472.53 33.9117 475.786 33.9117 479.043 33.9117 481.7 36.429 481.7 39.6157 481.704 42.7982 479.043 45.3853 475.786 45.3853ZM471.051 86.9023 471.051 50.1243 480.529 50.1243 480.529 86.9023 471.051 86.9023ZM504.491 87.6415C496.352 87.6415 493.76 84.6807 493.76 76.098L493.76 57.4503 487.473 57.4503 487.473 50.1243 493.76 50.1243 493.76 38.8026 503.234 36.2853 503.234 50.1243 512.195 50.1243 512.195 57.4503 503.234 57.4503 503.234 73.5807C503.234 78.3156 504.347 79.6543 507.599 79.6543 509.152 79.6543 510.856 79.4284 512.186 79.0588L512.186 86.6805C509.813 87.2719 507.078 87.6415 504.491 87.6415ZM540.957 86.9023C540.957 84.7628 541.035 82.611 541.331 80.685L541.252 80.607C539.47 84.7546 534.965 87.6374 529.487 87.6374 522.831 87.6374 518.975 83.8635 518.975 77.946 518.975 69.1375 527.705 64.4807 540.214 64.4807L540.214 62.4808C540.214 58.633 538.366 56.6372 533.039 56.6372 529.705 56.6372 525.262 57.7501 522.161 59.5241L521.348 51.6067C525.048 50.2762 529.791 49.3071 534.522 49.3071 546.365 49.3071 549.691 54.1199 549.691 62.1112L549.691 77.4285C549.691 80.3894 549.765 83.8635 549.913 86.9023L540.957 86.9023ZM527.939 44.0589C525.118 44.0589 522.835 41.7593 522.835 38.9504 522.835 36.0635 525.126 33.8419 527.939 33.8419 530.752 33.8419 533.044 36.0635 533.044 38.9504 533.044 41.7593 530.748 44.0589 527.939 44.0589ZM540.222 70.624C530.231 70.624 528.009 73.5109 528.009 76.4676 528.009 78.8371 529.635 80.3894 532.374 80.3894 537.035 80.3894 540.214 75.9502 540.214 71.511L540.222 70.624ZM542.883 44.0589C540.07 44.0589 537.778 41.7593 537.778 38.9504 537.778 36.0635 540.078 33.8419 542.883 33.8419 545.687 33.8419 547.991 36.0635 547.991 38.9504 547.991 41.7593 545.696 44.0589 542.883 44.0589ZM573.066 87.6415C564.931 87.6415 562.339 84.6807 562.339 76.098L562.339 57.4503 556.052 57.4503 556.052 50.1243 562.339 50.1243 562.339 38.8026 571.813 36.2853 571.813 50.1243 580.77 50.1243 580.77 57.4503 571.813 57.4503 571.813 73.5807C571.813 78.3156 572.926 79.6543 576.178 79.6543 577.735 79.6543 579.435 79.4284 580.761 79.0588L580.761 86.6805C578.392 87.2719 575.657 87.6415 573.066 87.6415ZM225.674 165.091 225.674 157.691 243.657 128.382C244.691 126.682 245.726 125.204 246.913 123.647 245.135 123.726 242.77 123.795 237.809 123.795L226.265 123.795 226.265 115.139 258.526 115.139 258.526 122.834 239.509 152.878C238.77 154.06 238.105 155.173 237.218 156.36 238.474 156.212 241.878 156.212 248.022 156.212L258.826 156.212 258.826 165.091 225.674 165.091ZM289.444 165.091C289.444 163.39 289.518 160.504 289.884 158.578L289.81 158.504C287.588 162.865 283.375 165.904 277.305 165.904 269.01 165.904 266.353 160.573 266.353 154.138L266.353 128.313 275.753 128.313 275.753 151.843C275.753 155.691 276.788 157.986 280.34 157.986 285.149 157.986 288.845 152.508 288.845 146.073L288.845 128.313 298.323 128.313 298.323 165.091 289.444 165.091ZM274.423 122.247C271.61 122.247 269.318 119.948 269.318 117.139 269.318 114.256 271.618 112.034 274.423 112.034 277.236 112.034 279.531 114.256 279.531 117.139 279.527 119.952 277.236 122.247 274.423 122.247ZM289.37 122.247C286.557 122.247 284.266 119.948 284.266 117.139 284.266 114.256 286.562 112.034 289.37 112.034 292.188 112.034 294.475 114.256 294.475 117.139 294.475 119.952 292.183 122.247 289.37 122.247ZM328.218 136.821C321.418 135.413 318.013 139.856 318.013 150.069L318.013 165.091 308.536 165.091 308.536 128.313 317.496 128.313C317.496 130.16 317.27 133.121 316.831 135.712L316.979 135.712C318.753 131.052 322.305 126.982 328.67 127.499L328.218 136.821ZM340.242 123.578C336.986 123.578 334.394 120.986 334.394 117.808 334.394 114.703 336.986 112.108 340.242 112.108 343.499 112.108 346.155 114.621 346.155 117.808 346.16 120.986 343.494 123.578 340.242 123.578ZM335.503 165.091 335.503 128.313 344.977 128.313 344.977 165.091 335.503 165.091ZM368.474 165.756C358.266 165.756 351.901 160.43 351.901 147.921 351.901 136.452 357.896 127.643 370.922 127.643 373.435 127.643 376.1 128.013 378.47 128.678L377.513 136.895C375.517 136.152 373.217 135.561 370.852 135.561 364.857 135.561 361.826 140 361.826 146.956 361.826 153.243 364.269 157.539 370.556 157.539 373.07 157.539 375.809 157.017 377.813 155.982L378.556 164.052C376.022 165.021 372.396 165.756 368.474 165.756ZM408.509 165.091 408.509 141.564C408.509 137.712 407.474 135.421 403.992 135.421 399.179 135.421 395.405 140.899 395.405 147.33L395.405 165.091 385.931 165.091 385.931 111.069 395.405 111.069 395.405 126.834C395.405 129.056 395.257 132.164 394.74 134.308L394.888 134.386C397.031 130.238 401.253 127.499 406.953 127.499 415.24 127.499 417.905 132.834 417.905 139.265L417.905 165.091 408.509 165.091ZM432.557 130.243C426.557 130.243 425.112 127.007 425.112 123.237L425.112 111.032 429.469 111.032 429.469 122.982C429.469 125.187 430.167 126.584 432.844 126.584 435.304 126.584 436.253 125.549 436.253 122.732L436.253 111.028 440.552 111.028 440.552 122.477C440.544 127.787 437.559 130.243 432.557 130.243ZM444.174 129.881 444.174 126.473 450.24 116.338C450.539 115.837 450.876 115.361 451.237 114.884 450.745 114.913 450.1 114.942 448.277 114.942L444.371 114.942 444.371 111.032 456.576 111.032 456.576 114.576 450.178 124.851C449.952 125.216 449.738 125.524 449.451 125.914 449.817 125.857 450.876 125.857 453.11 125.857L456.683 125.857 456.683 129.877 444.174 129.881ZM471.93 129.881 471.93 122.034 465.031 122.034 465.031 129.881 460.674 129.881 460.674 111.032 465.031 111.032 465.031 118.268 471.93 118.268 471.93 111.032 476.291 111.032 476.291 129.881 471.93 129.881ZM0 98.9303C0 44.293 44.293 0 98.9303 0 153.572 0 197.865 44.293 197.865 98.9303 197.865 153.572 153.572 197.865 98.9303 197.865 44.293 197.861 0 153.568 0 98.9303ZM30.7045 30.7045C13.2435 48.1695 2.44338 72.2831 2.44338 98.9303 2.44338 125.578 13.2394 149.691 30.7045 167.156 48.1695 184.617 72.2831 195.413 98.9262 195.413 125.573 195.413 149.687 184.617 167.152 167.156 184.613 149.691 195.413 125.578 195.413 98.9303 195.413 72.2872 184.617 48.1737 167.152 30.7086 149.691 13.2394 125.578 2.43928 98.9303 2.43928 72.2831 2.43928 48.1695 13.2394 30.7045 30.7045ZM100.429 161.107 101.226 161.107 101.226 159.711 99.3286 159.711 99.3286 162.803 100.433 162.803 100.429 161.107ZM98.9303 6.43903C47.8616 6.43903 6.46778 47.8369 6.46778 98.9016 6.46778 149.974 47.8657 191.372 98.9303 191.372 149.999 191.372 191.393 149.974 191.397 98.9016 191.389 47.8369 149.995 6.43903 98.9303 6.43903ZM88.6927 177.361 84.5 177.361 84.5 178.757 88.6927 178.757 88.6927 189.147C67.7002 186.794 48.8759 177.283 34.7084 163.119 32.6756 161.087 30.7373 158.951 28.9017 156.734 29.2754 154.479 31.2219 152.763 33.5873 152.763 36.2113 152.763 38.3303 154.89 38.3303 157.51L38.3303 162.068 44.3587 162.068 44.3587 162.039 44.3587 157.506C44.3587 154.878 46.49 152.759 49.1058 152.759 51.7299 152.759 53.8571 154.886 53.8571 157.506L53.8571 162.064 59.8855 162.064 59.8855 162.035 59.8855 157.502C59.8855 154.874 62.0168 152.755 64.6326 152.755 67.2485 152.755 69.3839 154.882 69.3839 157.502L69.3839 162.06 75.4122 162.06 75.4122 162.031 75.4122 157.498C75.4122 154.869 77.5394 152.75 80.1635 152.75 82.7876 152.75 84.9065 154.878 84.9065 157.498L84.9065 162.056 88.6927 162.056 88.6927 177.361ZM105.924 189.455C103.616 189.635 101.283 189.721 98.9303 189.721 96.5855 189.721 94.2489 189.635 91.9492 189.463L90.2327 178.761 92.2079 178.761C91.7151 177.587 90.8569 175.533 90.5284 174.7 89.9945 173.361 90.397 172.474 91.2881 172.129 92.1545 171.792 93.1319 172.269 93.4358 173.41L94.3023 176.663 95.5712 176.663 95.5712 178.761 95.5712 179.18 92.5775 179.18 92.5775 180.58 96.9551 180.58 96.9592 178.769 102.269 178.769 102.265 176.671 103.538 176.671 104.413 173.419C104.721 172.277 105.706 171.792 106.581 172.137 107.476 172.482 107.874 173.369 107.345 174.708 107.201 175.074 106.963 175.673 106.712 176.334L105.53 179.188 102.335 179.188 102.335 180.589 106.462 180.589 107.217 178.778 107.644 178.778 105.924 189.455ZM96.0557 158.857 101.805 158.857C102.031 159.387 102.577 160.721 102.918 161.497 103.152 162.035 103.452 162.61 103.086 163.206 102.651 163.908 102.08 163.805 101.682 163.776 101.657 163.772 101.632 163.776 101.608 163.772 101.205 164.877 100.162 165.657 98.9262 165.657 97.6901 165.657 96.6471 164.877 96.2488 163.772 96.2282 163.776 96.1954 163.772 96.1748 163.776 95.7724 163.813 95.2098 163.908 94.7704 163.206 94.4049 162.61 94.7047 162.035 94.9388 161.497 95.2878 160.721 95.834 159.382 96.0557 158.857ZM95.1893 152.886 97.0249 155.518 98.9057 151.95 100.786 155.518 102.626 152.886 101.895 157.448 95.9161 157.448 95.1893 152.886ZM97.3863 165.805C97.8174 167.008 98.9673 167.875 100.322 167.875 101.784 167.875 103.008 166.86 103.345 165.493 104.256 165.542 105.16 165.801 106.059 166.565 106.926 167.292 107.262 168.536 107.386 169.16L90.4832 169.16C90.6023 168.544 90.9431 167.292 91.8096 166.565 93.6616 165.004 95.5506 165.514 97.3863 165.805ZM104.363 170.552C103.727 172.959 101.538 174.737 98.9344 174.737 96.3309 174.737 94.1421 172.959 93.5097 170.552L104.363 170.552ZM163.148 163.124C148.981 177.287 130.16 186.794 109.168 189.147L109.168 178.757 113.007 178.757C120.116 178.757 125.257 178.158 125.257 178.158 125.257 178.158 119.964 177.361 113.007 177.361L109.168 177.361 109.168 162.08 113.755 162.08 113.755 162.052 113.755 157.518C113.755 154.89 115.886 152.771 118.506 152.771 121.126 152.771 123.257 154.902 123.257 157.518L123.257 162.076 129.282 162.076 129.282 162.048 129.282 157.514C129.282 154.886 131.409 152.767 134.029 152.767 136.649 152.767 138.772 154.898 138.772 157.514L138.772 162.072 144.804 162.072 144.804 162.044 144.804 157.51C144.804 154.882 146.931 152.763 149.551 152.763 152.18 152.763 154.299 154.894 154.299 157.51L154.299 162.068 160.327 162.068 160.327 162.039 160.327 157.506C160.327 154.878 162.458 152.759 165.078 152.759 167.156 152.759 168.926 154.097 169.563 155.962 167.559 158.467 165.415 160.857 163.148 163.124ZM170.589 154.705C169.534 152.484 167.271 150.944 164.655 150.944 161.021 150.944 158.077 153.892 158.077 157.526L158.077 159.649 155.699 159.649 155.699 157.526C155.699 153.892 152.755 150.944 149.124 150.944 145.494 150.944 142.546 153.892 142.546 157.526L142.546 159.649 140.164 159.649 140.164 157.526C140.164 153.892 137.22 150.944 133.589 150.944 129.959 150.944 127.015 153.892 127.015 157.526L127.015 159.649 124.633 159.649 124.633 157.526C124.633 153.892 121.685 150.944 118.054 150.944 114.424 150.944 111.48 153.892 111.48 157.526L111.48 159.649 109.024 159.649C108.277 154.73 104.043 150.952 98.9139 150.952 93.7848 150.952 89.5551 154.73 88.8036 159.649L86.2822 159.649 86.2822 157.526C86.2822 153.892 83.3337 150.944 79.7036 150.944 76.0734 150.944 73.129 153.892 73.129 157.526L73.129 159.649 70.7472 159.649 70.7472 157.526C70.7472 153.892 67.807 150.944 64.1686 150.944 60.5384 150.944 57.594 153.892 57.594 157.526L57.594 159.649 55.2122 159.649 55.2122 157.526C55.2122 153.892 52.2679 150.944 48.6377 150.944 45.0034 150.944 42.059 153.892 42.059 157.526L42.059 159.649 39.7183 159.649 39.7183 157.526C39.7183 153.892 36.7739 150.944 33.1438 150.944 30.5402 150.944 28.294 152.459 27.2304 154.652 25.6288 152.594 24.1176 150.463 22.6968 148.27L175.168 148.27C173.731 150.484 172.207 152.631 170.589 154.705ZM176.691 145.843 21.1691 145.843C20.7174 145.092 20.278 144.34 19.8468 143.572L178.018 143.572C177.579 144.336 177.143 145.096 176.691 145.843ZM83.2598 29.1112 83.2598 29.8791C83.2393 30.031 83.1982 30.2569 83.1202 30.4704 82.9888 30.8195 82.6644 31.378 82.2291 32.0555 82.0648 32.3184 81.7774 32.7701 81.457 33.4107 81.0423 32.7783 80.6932 32.3594 80.4468 32.1007 80.1758 31.8133 79.8144 31.4437 79.5106 31.0905 78.8658 30.3226 78.8289 29.8668 78.8289 29.8668 78.8289 29.8668 78.8083 30.3185 78.1595 31.0864 77.8597 31.4355 77.4984 31.805 77.2232 32.0966 76.9686 32.3553 76.6196 32.7824 76.1966 33.4312 75.8681 32.7701 75.5765 32.3143 75.4081 32.0309 74.9769 31.3533 74.6484 30.7989 74.517 30.4499 74.3938 30.1173 74.3486 29.7354 74.3445 29.6943L74.3445 29.1112 83.2598 29.1112ZM74.3651 27.7149C74.4349 26.5774 74.7429 24.4092 75.8516 22.9349 76.6894 21.7933 77.523 21.1158 78.139 20.7174 78.4182 20.5326 78.6441 20.4218 78.8042 20.3437 78.9685 20.4259 79.1944 20.5326 79.4777 20.7174 80.0814 21.1158 80.9232 21.7933 81.765 22.9349 82.8779 24.4092 83.1818 26.5774 83.2516 27.7149L74.3651 27.7149ZM83.5842 32.8029C83.8388 33.152 84.0975 33.6612 84.3809 34.2772 84.7751 35.234 84.8778 36.1744 84.8901 36.8643L84.8901 47.0977 82.2537 47.0977C82.2537 44.8474 82.2537 39.8867 82.2537 36.8684 82.2619 36.1662 82.3892 35.1888 82.7629 34.2731 83.0914 33.5503 83.346 33.1397 83.5842 32.8029ZM80.8246 36.9341 80.8205 47.1019 76.8208 47.1019C76.8208 44.2725 76.8167 36.93 76.8167 36.9259 76.8495 36.2606 76.9029 35.3408 77.3834 34.3922 77.8844 33.3984 78.8371 32.807 78.8371 32.807L78.8412 32.807C78.8412 32.807 79.7405 33.3984 80.2456 34.3922 80.7507 35.39 80.7959 36.2524 80.8246 36.9341ZM74.9236 34.2607C75.2973 35.1806 75.3589 36.1703 75.3712 36.8725L75.3835 47.1019 72.78 47.1019 72.78 36.8561C72.7923 36.1662 72.8662 35.2299 73.2563 34.2649 73.5438 33.653 73.823 33.1438 74.0571 32.7947 74.3528 33.2259 74.6361 33.6448 74.9236 34.2607ZM86.9105 48.7732 86.9105 52.0872 70.7267 52.0872 70.7267 48.7732 86.9105 48.7732ZM86.9105 53.4752 86.9105 66.3738 82.9929 66.3738 82.9929 60.5713C82.997 58.6453 82.2825 57.015 81.108 55.898 80.4797 55.2944 79.72 54.8385 78.8823 54.5511 78.8289 54.5347 78.833 54.5306 78.833 54.5306 78.833 54.5306 78.8248 54.5306 78.7714 54.5511 77.9337 54.8385 77.1698 55.2944 76.5415 55.898 75.3671 57.0109 74.6566 58.6453 74.6607 60.5713L74.6607 66.3779 70.7267 66.3779 70.7267 53.4793 86.9105 53.4752ZM81.5967 60.5713 81.5967 66.3779 76.0529 66.3779 76.0529 60.5713C76.0734 58.3291 77.1698 56.7727 78.8248 56.0418 80.4715 56.7686 81.5761 58.325 81.5967 60.5713ZM86.9105 67.77 86.9105 84.1756 83.3132 84.1756 83.3132 75.983C83.3132 74.0612 82.5904 72.3898 81.3831 71.24 80.7384 70.624 79.9705 70.16 79.1245 69.8725 79.0794 69.852 78.8207 69.774 78.8207 69.774 78.8207 69.774 78.5661 69.8561 78.5455 69.8643 77.6955 70.1518 76.9193 70.624 76.2664 71.24 75.0591 72.3857 74.3322 74.0653 74.3363 75.9789L74.3363 84.1715 70.7226 84.1715 70.7226 67.7659 86.9105 67.77ZM81.917 75.9954 81.917 84.1756 75.7284 84.1756 75.7284 75.983C75.7284 74.4061 76.3075 73.1331 77.2232 72.2502 77.6749 71.819 78.2129 71.4905 78.8207 71.2605L78.8248 71.2605C79.4284 71.4987 79.9582 71.819 80.414 72.2461 81.3421 73.129 81.9088 74.402 81.9129 75.983L81.917 75.9954ZM86.9105 85.5718 86.9105 105.098 70.7267 105.098 70.7267 85.5718 86.9105 85.5718ZM86.9105 106.495 86.9105 119.237 70.7267 119.237 70.7267 106.495 86.9105 106.495ZM86.9105 120.629 86.9105 142.176 70.7267 142.176 70.7267 120.629 86.9105 120.629ZM101.16 67.9137 101.16 73.7286 98.9344 71.5028 96.7128 73.7245 96.7128 67.9137 101.16 67.9137ZM96.7744 66.2383 98.4006 59.2818 99.0699 47.6398 99.4724 59.2736 101.099 66.2383 96.7744 66.2383ZM98.9344 73.8682 109.246 84.1756 88.627 84.1756 98.9344 73.8682ZM109.246 85.5718 109.246 93.4604 88.5613 93.4604 88.5613 85.5718 109.246 85.5718ZM109.246 95.9038 109.246 105.094 102.778 105.094 102.778 102.79C102.778 100.671 101.057 98.9385 98.9262 98.9385 96.8031 98.9385 95.0784 100.667 95.0784 102.79L95.0784 105.094 88.5531 105.094 88.5531 95.9038 109.246 95.9038ZM95.0866 106.495 95.0866 114.699 102.778 114.699 102.778 106.495 109.246 106.495 109.246 119.237 88.5613 119.237 88.5613 106.495 95.0866 106.495ZM109.246 120.629 109.246 142.176 88.5613 142.176 88.5613 120.629 109.246 120.629ZM123.471 29.1112 123.471 29.8791C123.45 30.0351 123.401 30.261 123.327 30.4745 123.196 30.8195 122.871 31.3739 122.436 32.0514 122.272 32.3143 121.984 32.766 121.664 33.4066 121.249 32.7783 120.9 32.3553 120.654 32.1007 120.387 31.8133 120.021 31.4437 119.718 31.0905 119.069 30.3226 119.036 29.8668 119.036 29.8668 119.036 29.8668 119.015 30.3185 118.367 31.0864 118.067 31.4355 117.705 31.805 117.43 32.0966 117.176 32.3553 116.827 32.7824 116.404 33.4312 116.075 32.7701 115.783 32.3143 115.615 32.0309 115.184 31.3533 114.855 30.7989 114.724 30.4499 114.597 30.1132 114.556 29.723 114.552 29.6902L114.552 29.1112 123.471 29.1112ZM114.576 27.7149C114.646 26.5774 114.954 24.4092 116.063 22.9349 116.9 21.7933 117.734 21.1158 118.35 20.7174 118.629 20.5326 118.851 20.4218 119.015 20.3437 119.18 20.4259 119.405 20.5326 119.685 20.7174 120.288 21.1158 121.13 21.7933 121.972 22.9349 123.085 24.4092 123.389 26.5774 123.459 27.7149L114.576 27.7149ZM123.795 32.8029C124.046 33.152 124.309 33.6612 124.588 34.2772 124.982 35.234 125.085 36.1744 125.097 36.8643L125.097 47.0977 122.461 47.0977C122.461 44.8474 122.461 39.8867 122.461 36.8684 122.473 36.1662 122.596 35.1888 122.974 34.2731 123.298 33.5503 123.557 33.1397 123.795 32.8029ZM121.032 36.9341 121.028 47.1019 117.036 47.1019C117.036 44.2725 117.032 36.93 117.032 36.9259 117.065 36.2606 117.118 35.3408 117.599 34.3922 118.1 33.3984 119.052 32.807 119.052 32.807L119.056 32.807C119.056 32.807 119.956 33.3984 120.461 34.3922 120.958 35.39 121.003 36.2524 121.032 36.9341ZM115.131 34.2607C115.504 35.1806 115.566 36.1703 115.578 36.8725L115.59 47.1019 112.983 47.1019 112.983 36.8561C112.999 36.1662 113.069 35.2299 113.459 34.2649 113.747 33.653 114.026 33.1438 114.256 32.7947 114.564 33.2259 114.843 33.6448 115.131 34.2607ZM127.122 48.7732 127.122 52.0872 110.938 52.0872 110.938 48.7732 127.122 48.7732ZM127.122 53.4752 127.122 66.3738 123.204 66.3738 123.204 60.5713C123.204 58.6453 122.494 57.015 121.319 55.898 120.691 55.2944 119.927 54.8385 119.089 54.5511 119.036 54.5347 119.04 54.5306 119.04 54.5306 119.04 54.5306 119.032 54.5306 118.978 54.5511 118.141 54.8385 117.377 55.2944 116.749 55.898 115.574 57.0109 114.864 58.6453 114.864 60.5713L114.864 66.3779 110.93 66.3779 110.93 53.4793 127.122 53.4752ZM121.808 60.5713 121.808 66.3779 116.26 66.3779 116.26 60.5713C116.28 58.3291 117.377 56.7727 119.032 56.0418 120.683 56.7686 121.787 58.325 121.808 60.5713ZM127.122 67.77 127.122 84.1756 123.524 84.1756 123.524 75.983C123.524 74.0612 122.802 72.3898 121.594 71.24 120.95 70.624 120.182 70.16 119.336 69.8725 119.295 69.852 119.032 69.774 119.032 69.774 119.032 69.774 118.777 69.8561 118.753 69.8643 117.902 70.1518 117.126 70.624 116.473 71.24 115.266 72.3857 114.543 74.0653 114.543 75.9789L114.543 84.1715 110.93 84.1715 110.93 67.7659 127.122 67.77ZM122.128 75.9954 122.128 84.1756 115.944 84.1756 115.944 75.983C115.944 74.4061 116.523 73.1331 117.438 72.2502 117.89 71.819 118.428 71.4905 119.032 71.2605L119.036 71.2605C119.64 71.4987 120.173 71.819 120.629 72.2461 121.553 73.129 122.124 74.402 122.128 75.983L122.128 75.9954ZM127.122 85.5718 127.122 105.098 110.938 105.098 110.938 85.5718 127.122 85.5718ZM127.122 106.495 127.122 119.237 110.938 119.237 110.938 106.495 127.122 106.495ZM127.122 120.629 127.122 142.176 110.938 142.176 110.938 120.629 127.122 120.629ZM129.61 142.176 129.61 47.0977 127.569 47.0977 127.569 36.6179C127.549 35.3161 127.36 34.4866 126.785 33.152 126.637 32.8153 126.428 32.4457 126.189 32.0761L126.189 28.2899C126.189 28.2899 126.185 25.3126 124.957 23.0746 123.623 20.6312 121.032 19.2966 119.767 18.7668 119.479 18.6313 119.286 18.5697 119.249 18.5615L119.04 18.4835 118.781 18.5615C118.658 18.5985 116.609 19.2473 114.658 21.896 112.893 24.3312 112.835 27.4562 112.819 28.3145 112.819 28.4541 112.823 28.5362 112.823 28.5486L112.823 32.0432C112.585 32.3882 112.256 32.9097 111.895 33.6776 111.353 35.0081 111.316 36.2401 111.295 36.9793L111.295 47.1019 109.242 47.1019 109.242 81.8102 103.624 76.1966 103.624 66.2875 101.719 59.8896 98.9262 37.9566 96.8688 58.9697 94.9552 66.2875 94.9552 75.4615 89.395 81.0259 89.395 47.0854 87.354 47.0854 87.354 36.6179C87.3335 35.3161 87.1446 34.4866 86.5656 33.152 86.4218 32.8153 86.2083 32.4457 85.9742 32.0761L85.9742 28.2899C85.9742 28.2899 85.9701 25.3126 84.7423 23.0746 83.4035 20.6312 80.8123 19.2966 79.5516 18.7668 79.2642 18.6313 79.0712 18.5697 79.0342 18.5615L78.8248 18.4835 78.5661 18.5615C78.4388 18.5985 76.3937 19.2473 74.439 21.896 72.6732 24.3312 72.6157 27.4562 72.5993 28.3145 72.5993 28.4541 72.5993 28.5362 72.5993 28.5486L72.5993 32.0432C72.3611 32.3882 72.0326 32.9097 71.6712 33.6776 71.1332 35.0081 71.0922 36.2401 71.0758 36.9793L71.0758 47.1019 69.0225 47.1019 69.0225 142.172 19.0789 142.172C12.0896 129.306 8.10628 114.572 8.10628 98.8975 8.10628 73.823 18.2699 51.118 34.7043 34.6755 51.1427 18.2412 73.8436 8.06932 98.9262 8.06932 124.009 8.06932 146.714 18.2371 163.152 34.6755 179.587 51.1139 189.754 73.8148 189.754 98.8975 189.754 114.572 185.771 129.306 178.782 142.172L129.61 142.176Z" fill="#000000" fill-rule="nonzero" fill-opacity="1" transform="matrix(1.0161 0 0 1 2448.8 81.0574)"/></g></g></g></g></g></svg>